{"glyphs":{"0":{"ha":943,"x_min":0,"x_max":0,"o":"m 471 -22 b 872 492 721 -22 872 178 b 471 1008 872 807 721 1008 b 71 492 224 1008 71 807 b 471 -22 71 178 224 -22 z m 226 492 b 471 871 226 735 315 871 b 717 492 629 871 717 735 b 471 115 717 250 629 115 b 226 492 315 115 226 250 z "},"1":{"ha":564,"x_min":0,"x_max":0,"o":"m 133 824 l 54 824 l 54 703 l 263 703 l 263 0 l 413 0 l 413 986 l 294 986 b 133 824 294 874 244 824 z "},"2":{"ha":875,"x_min":0,"x_max":0,"o":"m 97 685 l 253 675 b 460 871 276 801 350 871 b 632 722 561 871 632 810 b 457 517 632 650 560 582 b 82 0 278 408 82 293 l 793 0 l 793 138 l 267 138 b 526 393 272 229 456 354 b 788 721 671 482 788 575 b 460 1008 788 886 649 1008 b 97 685 256 1008 119 871 z "},"3":{"ha":869,"x_min":0,"x_max":0,"o":"m 426 586 l 347 588 l 347 460 l 426 461 b 646 289 535 464 646 410 b 428 115 646 165 536 115 b 222 274 336 115 232 161 l 68 265 b 428 -22 76 94 222 -22 b 803 271 651 -22 803 96 b 578 533 803 401 722 496 b 769 751 704 567 769 640 b 428 1008 769 904 632 1008 b 99 761 251 1008 118 907 l 254 751 b 426 871 265 825 331 871 b 613 742 542 871 613 821 b 426 586 613 626 513 585 z "},"4":{"ha":903,"x_min":0,"x_max":0,"o":"m 725 986 l 556 986 l 68 332 l 68 194 l 575 194 l 575 0 l 725 0 l 725 194 l 835 194 l 835 332 l 725 332 z m 243 332 l 575 775 l 575 332 z "},"5":{"ha":890,"x_min":0,"x_max":0,"o":"m 740 986 l 172 986 l 96 425 l 253 425 b 440 529 282 489 354 529 b 653 321 569 529 653 449 b 450 115 653 200 571 115 b 236 269 343 115 251 172 l 82 260 b 453 -22 96 93 249 -22 b 808 322 661 -22 808 119 b 488 657 808 517 675 657 b 264 565 400 657 310 624 l 303 849 l 740 849 z "},"6":{"ha":883,"x_min":0,"x_max":0,"o":"m 649 757 l 797 767 b 472 1008 754 922 626 1008 b 82 438 185 1008 82 736 b 185 90 82 288 115 164 b 442 -22 258 13 349 -22 b 801 326 651 -22 801 110 b 474 665 801 526 669 665 b 226 524 368 665 279 615 b 471 872 242 746 326 872 b 649 757 557 872 621 831 z m 239 326 b 454 536 240 449 329 536 b 647 326 568 536 647 449 b 446 110 647 200 565 110 b 239 326 322 110 236 200 z "},"7":{"ha":817,"x_min":0,"x_max":0,"o":"m 54 986 l 54 849 l 607 849 b 289 0 413 607 289 313 l 443 0 b 763 858 440 326 571 619 l 763 986 z "},"8":{"ha":868,"x_min":0,"x_max":0,"o":"m 435 -22 b 815 271 660 -22 815 90 b 615 535 815 393 740 489 b 768 738 711 572 768 638 b 435 1008 768 894 632 1008 b 101 738 238 1008 101 894 b 253 535 101 638 157 572 b 54 271 128 490 54 394 b 435 -22 54 90 208 -22 z m 210 288 b 435 460 210 392 297 460 b 658 288 571 460 658 392 b 435 115 658 182 571 115 b 210 288 297 115 210 182 z m 256 731 b 435 871 256 817 325 871 b 611 731 544 871 611 817 b 435 590 611 644 544 590 b 256 731 325 590 256 644 z "},"9":{"ha":885,"x_min":0,"x_max":0,"o":"m 82 657 b 410 315 82 454 217 315 b 658 454 524 315 608 368 b 415 114 643 238 560 114 b 246 211 339 114 276 150 l 96 201 b 418 -22 144 57 264 -22 b 803 543 706 -22 803 247 b 701 894 803 696 769 819 b 442 1008 628 974 535 1008 b 82 657 233 1008 82 875 z m 235 657 b 439 876 235 783 318 876 b 643 657 563 876 646 783 b 431 444 642 533 556 444 b 235 657 314 444 235 533 z "}," ":{"ha":338,"x_min":0,"x_max":0,"o":""},"A":{"ha":964,"x_min":0,"x_max":0,"o":"m 31 0 l 190 0 l 281 257 l 683 257 l 772 0 l 933 0 l 578 986 l 386 986 z m 328 393 l 482 843 l 636 393 z "},"Á":{"ha":964,"x_min":0,"x_max":0,"o":"m 31 0 l 190 0 l 281 257 l 683 257 l 772 0 l 933 0 l 578 986 l 386 986 z m 328 393 l 482 843 l 636 393 z m 426 1096 l 531 1096 l 656 1276 l 514 1276 z "},"Ă":{"ha":964,"x_min":0,"x_max":0,"o":"m 31 0 l 190 0 l 281 257 l 683 257 l 772 0 l 933 0 l 578 986 l 386 986 z m 278 1278 b 482 1094 278 1175 368 1094 b 686 1278 596 1094 686 1175 l 583 1278 b 482 1188 583 1226 539 1188 b 381 1278 425 1188 381 1226 z m 328 393 l 482 843 l 636 393 z "},"Ǎ":{"ha":964,"x_min":0,"x_max":0,"o":"m 31 0 l 190 0 l 281 257 l 683 257 l 772 0 l 933 0 l 578 986 l 386 986 z m 274 1263 l 393 1096 l 564 1096 l 685 1263 l 564 1263 l 479 1144 l 394 1263 z m 328 393 l 482 843 l 636 393 z "},"Â":{"ha":964,"x_min":0,"x_max":0,"o":"m 31 0 l 190 0 l 281 257 l 683 257 l 772 0 l 933 0 l 578 986 l 386 986 z m 275 1096 l 396 1096 l 481 1214 l 565 1096 l 686 1096 l 565 1263 l 394 1263 z m 328 393 l 482 843 l 636 393 z "},"Ä":{"ha":964,"x_min":0,"x_max":0,"o":"m 31 0 l 190 0 l 281 257 l 683 257 l 772 0 l 933 0 l 578 986 l 386 986 z m 288 1094 l 442 1094 l 442 1235 l 288 1235 z m 328 393 l 482 843 l 636 393 z m 525 1094 l 679 1094 l 679 1235 l 525 1235 z "},"À":{"ha":964,"x_min":0,"x_max":0,"o":"m 31 0 l 190 0 l 281 257 l 683 257 l 772 0 l 933 0 l 578 986 l 386 986 z m 306 1276 l 432 1096 l 536 1096 l 449 1276 z m 328 393 l 482 843 l 636 393 z "},"Ā":{"ha":964,"x_min":0,"x_max":0,"o":"m 31 0 l 190 0 l 281 257 l 683 257 l 772 0 l 933 0 l 578 986 l 386 986 z m 296 1114 l 667 1114 l 667 1217 l 296 1217 z m 328 393 l 482 843 l 636 393 z "},"Ą":{"ha":1011,"x_min":0,"x_max":0,"o":"m 31 0 l 190 0 l 281 257 l 683 257 l 772 0 l 843 0 l 793 -54 b 739 -181 756 -93 739 -136 b 864 -300 739 -249 796 -299 b 981 -261 903 -300 943 -289 l 981 -165 b 894 -194 950 -179 918 -194 b 849 -147 867 -194 849 -174 b 892 -57 849 -119 871 -85 l 932 0 l 933 0 l 578 986 l 386 986 z m 328 393 l 482 843 l 636 393 z "},"Å":{"ha":964,"x_min":0,"x_max":0,"o":"m 31 0 l 190 0 l 281 257 l 683 257 l 772 0 l 933 0 l 578 986 l 386 986 z m 328 393 l 482 843 l 636 393 z m 347 1194 b 481 1063 347 1118 408 1063 b 614 1194 554 1063 614 1118 b 481 1328 614 1267 554 1328 b 347 1194 408 1328 347 1267 z m 429 1196 b 481 1246 429 1221 453 1246 b 532 1196 508 1246 532 1221 b 481 1144 532 1168 508 1144 b 429 1196 453 1144 429 1168 z "},"Ã":{"ha":964,"x_min":0,"x_max":0,"o":"m 31 0 l 190 0 l 281 257 l 683 257 l 772 0 l 933 0 l 578 986 l 386 986 z m 244 1094 l 343 1094 b 396 1185 343 1156 360 1185 b 465 1140 426 1185 442 1163 b 575 1093 489 1115 519 1093 b 717 1282 661 1093 717 1167 l 619 1282 b 568 1192 619 1221 603 1192 b 489 1243 533 1192 517 1218 b 388 1282 464 1268 435 1282 b 244 1094 300 1282 244 1211 z m 328 393 l 482 843 l 636 393 z "},"Æ":{"ha":1388,"x_min":0,"x_max":0,"o":"m 558 986 l 31 0 l 194 0 l 331 263 l 703 263 l 703 0 l 1314 0 l 1314 138 l 853 138 l 853 428 l 1286 428 l 1286 561 l 853 561 l 853 849 l 1303 849 l 1303 986 z m 403 403 l 636 853 l 703 853 l 703 403 z "},"B":{"ha":954,"x_min":0,"x_max":0,"o":"m 119 0 l 521 0 b 874 279 749 0 874 99 b 649 510 874 410 792 494 b 832 713 764 525 832 600 b 465 986 832 897 710 986 l 119 986 z m 269 135 l 269 438 l 522 438 b 719 285 646 438 719 383 b 522 135 719 188 646 135 z m 269 565 l 269 851 l 471 851 b 678 707 607 851 678 803 b 471 565 678 615 603 565 z "},"C":{"ha":986,"x_min":0,"x_max":0,"o":"m 929 335 l 769 343 b 518 115 743 197 653 115 b 219 492 313 115 219 286 b 518 871 219 699 311 871 b 764 663 646 871 735 796 l 922 671 b 519 1008 879 876 735 1008 b 64 492 233 1008 64 781 b 519 -22 64 203 233 -22 b 929 335 750 -22 892 118 z "},"Ć":{"ha":986,"x_min":0,"x_max":0,"o":"m 929 335 l 769 343 b 518 115 743 197 653 115 b 219 492 313 115 219 286 b 518 871 219 699 311 871 b 764 663 646 871 735 796 l 922 671 b 519 1008 879 876 735 1008 b 64 492 233 1008 64 781 b 519 -22 64 203 233 -22 b 929 335 750 -22 892 118 z m 465 1096 l 569 1096 l 694 1276 l 553 1276 z "},"Č":{"ha":986,"x_min":0,"x_max":0,"o":"m 929 335 l 769 343 b 518 115 743 197 653 115 b 219 492 313 115 219 286 b 518 871 219 699 311 871 b 764 663 646 871 735 796 l 922 671 b 519 1008 879 876 735 1008 b 64 492 233 1008 64 781 b 519 -22 64 203 233 -22 b 929 335 750 -22 892 118 z m 314 1263 l 433 1096 l 604 1096 l 725 1263 l 604 1263 l 519 1144 l 435 1263 z "},"Ç":{"ha":986,"x_min":0,"x_max":0,"o":"m 929 335 l 769 343 b 518 115 743 197 653 115 b 219 492 313 115 219 286 b 518 871 219 699 311 871 b 764 663 646 871 735 796 l 922 671 b 519 1008 879 876 735 1008 b 64 492 233 1008 64 781 b 465 -19 64 221 213 7 l 424 -65 l 465 -119 b 567 -168 521 -106 567 -125 b 506 -225 567 -203 543 -225 b 406 -156 458 -225 426 -181 l 340 -215 b 513 -312 396 -281 444 -312 b 654 -178 589 -312 654 -254 b 519 -49 654 -103 596 -49 l 544 -22 b 929 335 760 -12 893 126 z "},"Ĉ":{"ha":986,"x_min":0,"x_max":0,"o":"m 929 335 l 769 343 b 518 115 743 197 653 115 b 219 492 313 115 219 286 b 518 871 219 699 311 871 b 764 663 646 871 735 796 l 922 671 b 519 1008 879 876 735 1008 b 64 492 233 1008 64 781 b 519 -22 64 203 233 -22 b 929 335 750 -22 892 118 z m 315 1096 l 436 1096 l 521 1214 l 606 1096 l 726 1096 l 606 1263 l 435 1263 z "},"Ċ":{"ha":986,"x_min":0,"x_max":0,"o":"m 929 335 l 769 343 b 518 115 743 197 653 115 b 219 492 313 115 219 286 b 518 871 219 699 311 871 b 764 663 646 871 735 796 l 922 671 b 519 1008 879 876 735 1008 b 64 492 233 1008 64 781 b 519 -22 64 203 233 -22 b 929 335 750 -22 892 118 z m 443 1094 l 597 1094 l 597 1235 l 443 1235 z "},"D":{"ha":983,"x_min":0,"x_max":0,"o":"m 436 986 l 119 986 l 119 0 l 444 0 b 918 492 749 0 918 176 b 436 986 918 808 744 986 z m 269 138 l 269 849 l 436 849 b 764 492 656 849 764 732 b 436 138 764 254 656 138 z "},"Ð":{"ha":1100,"x_min":0,"x_max":0,"o":"m 64 547 l 64 439 l 236 439 l 236 0 l 561 0 b 1035 492 865 0 1035 176 b 553 986 1035 808 861 986 l 236 986 l 236 547 z m 386 138 l 386 439 l 582 439 l 582 547 l 386 547 l 386 849 l 553 849 b 881 492 772 849 881 732 b 553 138 881 254 772 138 z "},"Ď":{"ha":983,"x_min":0,"x_max":0,"o":"m 436 986 l 119 986 l 119 0 l 444 0 b 918 492 749 0 918 176 b 436 986 918 808 744 986 z m 242 1263 l 361 1096 l 532 1096 l 653 1263 l 532 1263 l 447 1144 l 363 1263 z m 269 138 l 269 849 l 436 849 b 764 492 656 849 764 732 b 436 138 764 254 656 138 z "},"Đ":{"ha":1100,"x_min":0,"x_max":0,"o":"m 64 547 l 64 439 l 236 439 l 236 0 l 561 0 b 1035 492 865 0 1035 176 b 553 986 1035 808 861 986 l 236 986 l 236 547 z m 386 138 l 386 439 l 582 439 l 582 547 l 386 547 l 386 849 l 553 849 b 881 492 772 849 881 732 b 553 138 881 254 772 138 z "},"E":{"ha":846,"x_min":0,"x_max":0,"o":"m 119 986 l 119 0 l 772 0 l 772 138 l 269 138 l 269 428 l 744 428 l 744 561 l 269 561 l 269 849 l 761 849 l 761 986 z "},"É":{"ha":846,"x_min":0,"x_max":0,"o":"m 119 986 l 119 0 l 772 0 l 772 138 l 269 138 l 269 428 l 744 428 l 744 561 l 269 561 l 269 849 l 761 849 l 761 986 z m 386 1097 l 490 1097 l 615 1278 l 474 1278 z "},"Ě":{"ha":846,"x_min":0,"x_max":0,"o":"m 119 986 l 119 0 l 772 0 l 772 138 l 269 138 l 269 428 l 744 428 l 744 561 l 269 561 l 269 849 l 761 849 l 761 986 z m 235 1264 l 354 1097 l 525 1097 l 646 1264 l 525 1264 l 440 1146 l 356 1264 z "},"Ê":{"ha":846,"x_min":0,"x_max":0,"o":"m 119 986 l 119 0 l 772 0 l 772 138 l 269 138 l 269 428 l 744 428 l 744 561 l 269 561 l 269 849 l 761 849 l 761 986 z m 236 1097 l 357 1097 l 442 1215 l 526 1097 l 647 1097 l 526 1264 l 356 1264 z "},"Ë":{"ha":846,"x_min":0,"x_max":0,"o":"m 119 986 l 119 0 l 772 0 l 772 138 l 269 138 l 269 428 l 744 428 l 744 561 l 269 561 l 269 849 l 761 849 l 761 986 z m 247 1096 l 401 1096 l 401 1236 l 247 1236 z m 486 1096 l 640 1096 l 640 1236 l 486 1236 z "},"Ė":{"ha":846,"x_min":0,"x_max":0,"o":"m 119 986 l 119 0 l 772 0 l 772 138 l 269 138 l 269 428 l 744 428 l 744 561 l 269 561 l 269 849 l 761 849 l 761 986 z m 364 1096 l 518 1096 l 518 1236 l 364 1236 z "},"È":{"ha":846,"x_min":0,"x_max":0,"o":"m 119 986 l 119 0 l 772 0 l 772 138 l 269 138 l 269 428 l 744 428 l 744 561 l 269 561 l 269 849 l 761 849 l 761 986 z m 267 1278 l 393 1097 l 497 1097 l 410 1278 z "},"Ē":{"ha":846,"x_min":0,"x_max":0,"o":"m 119 986 l 119 0 l 772 0 l 772 138 l 269 138 l 269 428 l 744 428 l 744 561 l 269 561 l 269 849 l 761 849 l 761 986 z m 257 1115 l 628 1115 l 628 1218 l 257 1218 z "},"Ę":{"ha":846,"x_min":0,"x_max":0,"o":"m 119 986 l 119 0 l 685 0 l 635 -54 b 581 -181 597 -93 581 -136 b 706 -300 581 -249 638 -299 b 822 -261 744 -300 785 -289 l 822 -165 b 736 -194 792 -179 760 -194 b 690 -147 708 -194 690 -174 b 733 -57 690 -119 713 -85 l 774 0 l 772 0 l 772 138 l 269 138 l 269 428 l 744 428 l 744 561 l 269 561 l 269 849 l 761 849 l 761 986 z "},"Ẽ":{"ha":846,"x_min":0,"x_max":0,"o":"m 119 986 l 119 0 l 772 0 l 772 138 l 269 138 l 269 428 l 744 428 l 744 561 l 269 561 l 269 849 l 761 849 l 761 986 z m 206 1096 l 304 1096 b 357 1186 304 1157 321 1186 b 426 1142 388 1186 403 1164 b 536 1094 450 1117 481 1094 b 678 1283 622 1094 678 1168 l 581 1283 b 529 1193 581 1222 564 1193 b 450 1244 494 1193 478 1219 b 349 1283 425 1269 396 1283 b 206 1096 261 1283 206 1213 z "},"Ə":{"ha":1017,"x_min":0,"x_max":0,"o":"m 796 547 l 64 547 l 65 476 b 499 -22 81 132 275 -22 b 953 493 760 -22 953 190 b 499 1008 953 807 767 1008 b 90 703 307 1008 149 890 l 253 692 b 500 871 301 811 392 871 b 796 547 657 871 785 735 z m 226 411 l 792 411 b 500 115 763 222 657 115 b 226 411 351 115 253 222 z "},"Ʒ":{"ha":853,"x_min":0,"x_max":0,"o":"m 68 286 l 68 117 b 408 -22 151 32 282 -22 b 785 285 633 -22 785 104 b 514 574 785 439 674 558 l 769 833 l 769 986 l 71 986 l 71 849 l 586 849 l 331 586 l 331 457 l 410 458 b 629 285 540 460 629 389 b 408 115 629 185 539 115 b 68 286 303 115 174 179 z "},"Ǯ":{"ha":853,"x_min":0,"x_max":0,"o":"m 68 286 l 68 117 b 408 -22 151 32 282 -22 b 785 285 633 -22 785 104 b 514 574 785 439 674 558 l 769 833 l 769 986 l 71 986 l 71 849 l 586 849 l 331 586 l 331 457 l 410 458 b 629 285 540 460 629 389 b 408 115 629 185 539 115 b 68 286 303 115 174 179 z m 213 1263 l 332 1096 l 503 1096 l 624 1263 l 503 1263 l 418 1144 l 333 1263 z "},"F":{"ha":826,"x_min":0,"x_max":0,"o":"m 119 986 l 119 0 l 269 0 l 269 415 l 735 415 l 735 549 l 269 549 l 269 849 l 760 849 l 760 986 z "},"G":{"ha":996,"x_min":0,"x_max":0,"o":"m 925 0 l 925 504 l 518 504 l 518 374 l 776 374 b 518 115 764 225 676 115 b 219 492 313 115 219 286 b 518 871 219 699 311 871 b 765 668 651 871 733 794 l 921 676 b 519 1008 876 878 735 1008 b 64 492 233 1008 64 781 b 515 -22 64 203 233 -22 b 813 156 649 -22 769 50 l 824 0 z "},"Ğ":{"ha":996,"x_min":0,"x_max":0,"o":"m 925 0 l 925 504 l 518 504 l 518 374 l 776 374 b 518 115 764 225 676 115 b 219 492 313 115 219 286 b 518 871 219 699 311 871 b 765 668 651 871 733 794 l 921 676 b 519 1008 876 878 735 1008 b 64 492 233 1008 64 781 b 515 -22 64 203 233 -22 b 813 156 649 -22 769 50 l 824 0 z m 317 1278 b 521 1094 317 1175 407 1094 b 725 1278 635 1094 725 1175 l 622 1278 b 521 1188 622 1226 578 1188 b 419 1278 464 1188 419 1226 z "},"Ǧ":{"ha":996,"x_min":0,"x_max":0,"o":"m 925 0 l 925 504 l 518 504 l 518 374 l 776 374 b 518 115 764 225 676 115 b 219 492 313 115 219 286 b 518 871 219 699 311 871 b 765 668 651 871 733 794 l 921 676 b 519 1008 876 878 735 1008 b 64 492 233 1008 64 781 b 515 -22 64 203 233 -22 b 813 156 649 -22 769 50 l 824 0 z m 314 1263 l 433 1096 l 604 1096 l 725 1263 l 604 1263 l 519 1144 l 435 1263 z "},"Ĝ":{"ha":996,"x_min":0,"x_max":0,"o":"m 925 0 l 925 504 l 518 504 l 518 374 l 776 374 b 518 115 764 225 676 115 b 219 492 313 115 219 286 b 518 871 219 699 311 871 b 765 668 651 871 733 794 l 921 676 b 519 1008 876 878 735 1008 b 64 492 233 1008 64 781 b 515 -22 64 203 233 -22 b 813 156 649 -22 769 50 l 824 0 z m 315 1096 l 436 1096 l 521 1214 l 606 1096 l 726 1096 l 606 1263 l 435 1263 z "},"Ģ":{"ha":996,"x_min":0,"x_max":0,"o":"m 925 0 l 925 504 l 518 504 l 518 374 l 776 374 b 518 115 764 225 676 115 b 219 492 313 115 219 286 b 518 871 219 699 311 871 b 765 668 651 871 733 794 l 921 676 b 519 1008 876 878 735 1008 b 64 492 233 1008 64 781 b 515 -22 64 203 233 -22 b 813 156 649 -22 769 50 l 824 0 z m 381 -264 l 485 -264 l 610 -83 l 468 -83 z "},"Ġ":{"ha":996,"x_min":0,"x_max":0,"o":"m 925 0 l 925 504 l 518 504 l 518 374 l 776 374 b 518 115 764 225 676 115 b 219 492 313 115 219 286 b 518 871 219 699 311 871 b 765 668 651 871 733 794 l 921 676 b 519 1008 876 878 735 1008 b 64 492 233 1008 64 781 b 515 -22 64 203 233 -22 b 813 156 649 -22 769 50 l 824 0 z m 443 1094 l 597 1094 l 597 1235 l 443 1235 z "},"Ḡ":{"ha":996,"x_min":0,"x_max":0,"o":"m 925 0 l 925 504 l 518 504 l 518 374 l 776 374 b 518 115 764 225 676 115 b 219 492 313 115 219 286 b 518 871 219 699 311 871 b 765 668 651 871 733 794 l 921 676 b 519 1008 876 878 735 1008 b 64 492 233 1008 64 781 b 515 -22 64 203 233 -22 b 813 156 649 -22 769 50 l 824 0 z m 335 1114 l 706 1114 l 706 1217 l 335 1217 z "},"Ǥ":{"ha":1057,"x_min":0,"x_max":0,"o":"m 518 504 l 518 386 l 776 386 b 768 317 776 363 774 339 l 518 317 l 518 214 l 725 214 b 518 115 682 153 613 115 b 219 492 313 115 219 286 b 518 871 219 699 311 871 b 765 681 651 871 733 794 l 921 690 b 519 1008 876 878 735 1008 b 64 492 233 1008 64 781 b 519 -22 64 203 233 -22 b 889 214 693 -22 826 57 l 1000 214 l 1000 317 l 918 317 b 928 443 924 356 928 397 l 928 504 z "},"H":{"ha":983,"x_min":0,"x_max":0,"o":"m 119 0 l 269 0 l 269 428 l 714 428 l 714 0 l 864 0 l 864 986 l 714 986 l 714 564 l 269 564 l 269 986 l 119 986 z "},"Ħ":{"ha":1211,"x_min":0,"x_max":0,"o":"m 207 986 l 207 851 l 119 851 l 119 714 l 207 714 l 207 0 l 357 0 l 357 413 l 853 413 l 853 0 l 1003 0 l 1003 714 l 1090 714 l 1090 851 l 1003 851 l 1003 986 l 853 986 l 853 851 l 357 851 l 357 986 z m 357 550 l 357 714 l 853 714 l 853 550 z "},"Ĥ":{"ha":983,"x_min":0,"x_max":0,"o":"m 119 0 l 269 0 l 269 428 l 714 428 l 714 0 l 864 0 l 864 986 l 714 986 l 714 564 l 269 564 l 269 986 l 119 986 z m 286 1096 l 407 1096 l 492 1214 l 576 1096 l 697 1096 l 576 1263 l 406 1263 z "},"I":{"ha":389,"x_min":0,"x_max":0,"o":"m 119 986 l 119 0 l 269 0 l 269 986 z "},"Ĳ":{"ha":1131,"x_min":0,"x_max":0,"o":"m 119 986 l 119 0 l 269 0 l 269 986 z m 372 329 b 700 -22 374 124 508 -22 b 1032 347 901 -22 1032 122 l 1032 986 l 882 986 l 882 347 b 701 115 882 199 817 115 b 525 340 589 115 526 194 z "},"Í":{"ha":389,"x_min":0,"x_max":0,"o":"m 119 986 l 119 0 l 269 0 l 269 986 z m 139 1096 l 243 1096 l 368 1276 l 226 1276 z "},"Î":{"ha":389,"x_min":0,"x_max":0,"o":"m 119 986 l 119 0 l 269 0 l 269 986 z m -11 1096 l 110 1096 l 194 1214 l 279 1096 l 400 1096 l 279 1263 l 108 1263 z "},"Ï":{"ha":389,"x_min":0,"x_max":0,"o":"m 119 986 l 119 0 l 269 0 l 269 986 z m 0 1094 l 154 1094 l 154 1235 l 0 1235 z m 238 1094 l 392 1094 l 392 1235 l 238 1235 z "},"İ":{"ha":389,"x_min":0,"x_max":0,"o":"m 119 986 l 119 0 l 269 0 l 269 986 z m 118 1094 l 272 1094 l 272 1235 l 118 1235 z "},"Ì":{"ha":389,"x_min":0,"x_max":0,"o":"m 119 986 l 119 0 l 269 0 l 269 986 z m 18 1276 l 144 1096 l 249 1096 l 161 1276 z "},"Ī":{"ha":389,"x_min":0,"x_max":0,"o":"m 119 986 l 119 0 l 269 0 l 269 986 z m 8 1114 l 379 1114 l 379 1217 l 8 1217 z "},"Į":{"ha":389,"x_min":0,"x_max":0,"o":"m 119 986 l 119 0 l 182 0 l 132 -54 b 78 -181 94 -93 78 -136 b 203 -300 78 -249 135 -299 b 319 -261 242 -300 282 -289 l 319 -165 b 233 -194 289 -179 257 -194 b 188 -147 206 -194 188 -174 b 231 -57 188 -119 210 -85 l 271 0 l 269 0 l 269 986 z "},"Ĩ":{"ha":389,"x_min":0,"x_max":0,"o":"m 119 986 l 119 0 l 269 0 l 269 986 z m -42 1094 l 57 1094 b 110 1185 57 1156 74 1185 b 179 1140 140 1185 156 1163 b 289 1093 203 1115 233 1093 b 431 1282 375 1093 431 1167 l 333 1282 b 282 1192 333 1221 317 1192 b 203 1243 247 1192 231 1218 b 101 1282 178 1268 149 1282 b -42 1094 14 1282 -42 1211 z "},"J":{"ha":843,"x_min":0,"x_max":0,"o":"m 238 340 l 85 329 b 413 -22 86 124 221 -22 b 744 347 614 -22 744 122 l 744 986 l 594 986 l 594 347 b 414 115 594 199 529 115 b 238 340 301 115 239 194 z "},"Ĵ":{"ha":843,"x_min":0,"x_max":0,"o":"m 238 340 l 85 329 b 413 -22 86 124 221 -22 b 744 347 614 -22 744 122 l 744 986 l 594 986 l 594 347 b 414 115 594 199 529 115 b 238 340 301 115 239 194 z m 464 1096 l 585 1096 l 669 1214 l 754 1096 l 875 1096 l 754 1263 l 583 1263 z "},"K":{"ha":931,"x_min":0,"x_max":0,"o":"m 119 986 l 119 0 l 269 0 l 269 317 l 389 450 l 715 0 l 892 0 l 489 556 l 867 986 l 685 986 l 269 515 l 269 986 z "},"Ǩ":{"ha":931,"x_min":0,"x_max":0,"o":"m 119 986 l 119 0 l 269 0 l 269 317 l 389 450 l 715 0 l 892 0 l 489 556 l 867 986 l 685 986 l 269 515 l 269 986 z m 256 1263 l 375 1096 l 546 1096 l 667 1263 l 546 1263 l 461 1144 l 376 1263 z "},"Ķ":{"ha":931,"x_min":0,"x_max":0,"o":"m 119 986 l 119 0 l 269 0 l 269 317 l 389 450 l 715 0 l 892 0 l 489 556 l 867 986 l 685 986 l 269 515 l 269 986 z m 347 -264 l 451 -264 l 576 -83 l 435 -83 z "},"L":{"ha":810,"x_min":0,"x_max":0,"o":"m 119 0 l 750 0 l 750 138 l 269 138 l 269 986 l 119 986 z "},"Ĺ":{"ha":810,"x_min":0,"x_max":0,"o":"m 119 0 l 750 0 l 750 138 l 269 138 l 269 986 l 119 986 z m 139 1096 l 243 1096 l 368 1276 l 226 1276 z "},"Ľ":{"ha":810,"x_min":0,"x_max":0,"o":"m 119 0 l 750 0 l 750 138 l 269 138 l 269 986 l 119 986 z m 381 818 l 444 818 l 388 603 l 471 603 l 556 818 l 554 818 l 554 988 l 381 988 z "},"Ļ":{"ha":810,"x_min":0,"x_max":0,"o":"m 119 0 l 750 0 l 750 138 l 269 138 l 269 986 l 119 986 z m 294 -264 l 399 -264 l 524 -83 l 382 -83 z "},"Ł":{"ha":861,"x_min":0,"x_max":0,"o":"m 22 511 l 75 399 l 171 443 l 171 0 l 801 0 l 801 138 l 321 138 l 321 514 l 526 610 l 472 722 l 321 651 l 321 986 l 171 986 l 171 581 z "},"M":{"ha":1236,"x_min":0,"x_max":0,"o":"m 119 986 l 119 0 l 269 0 l 269 713 l 535 1 l 701 1 l 965 713 l 965 0 l 1117 0 l 1117 986 l 911 986 l 618 176 l 325 986 z "},"N":{"ha":1029,"x_min":0,"x_max":0,"o":"m 119 986 l 119 0 l 269 0 l 269 771 l 714 0 l 910 0 l 910 986 l 760 986 l 760 199 l 308 986 z "},"Ń":{"ha":1029,"x_min":0,"x_max":0,"o":"m 119 986 l 119 0 l 269 0 l 269 771 l 714 0 l 910 0 l 910 986 l 760 986 l 760 199 l 308 986 z m 460 1096 l 564 1096 l 689 1276 l 547 1276 z "},"Ň":{"ha":1029,"x_min":0,"x_max":0,"o":"m 119 986 l 119 0 l 269 0 l 269 771 l 714 0 l 910 0 l 910 986 l 760 986 l 760 199 l 308 986 z m 308 1263 l 428 1096 l 599 1096 l 719 1263 l 599 1263 l 514 1144 l 429 1263 z "},"Ņ":{"ha":1029,"x_min":0,"x_max":0,"o":"m 119 986 l 119 0 l 269 0 l 269 771 l 714 0 l 910 0 l 910 986 l 760 986 l 760 199 l 308 986 z m 374 -264 l 478 -264 l 603 -83 l 461 -83 z "},"Ñ":{"ha":1029,"x_min":0,"x_max":0,"o":"m 119 986 l 119 0 l 269 0 l 269 771 l 714 0 l 910 0 l 910 986 l 760 986 l 760 199 l 308 986 z m 279 1094 l 378 1094 b 431 1185 378 1156 394 1185 b 500 1140 461 1185 476 1163 b 610 1093 524 1115 554 1093 b 751 1282 696 1093 751 1167 l 654 1282 b 603 1192 654 1221 638 1192 b 524 1243 568 1192 551 1218 b 422 1282 499 1268 469 1282 b 279 1094 335 1282 279 1211 z "},"Ŋ":{"ha":1029,"x_min":0,"x_max":0,"o":"m 119 986 l 119 0 l 269 0 l 269 771 l 761 0 l 761 -10 b 674 -87 761 -60 731 -87 l 542 -87 l 542 -214 l 693 -214 b 910 -8 826 -214 910 -133 l 910 986 l 760 986 l 760 265 l 304 986 z "},"O":{"ha":1049,"x_min":0,"x_max":0,"o":"m 524 -22 b 985 492 813 -22 985 174 b 524 1008 985 813 813 1008 b 64 492 238 1008 64 813 b 524 -22 64 174 238 -22 z m 221 492 b 524 871 221 728 335 871 b 829 492 715 871 829 728 b 524 115 829 257 715 115 b 221 492 335 115 221 257 z "},"Ó":{"ha":1049,"x_min":0,"x_max":0,"o":"m 524 -22 b 985 492 813 -22 985 174 b 524 1008 985 813 813 1008 b 64 492 238 1008 64 813 b 524 -22 64 174 238 -22 z m 221 492 b 524 871 221 728 335 871 b 829 492 715 871 829 728 b 524 115 829 257 715 115 b 221 492 335 115 221 257 z m 469 1096 l 574 1096 l 699 1276 l 557 1276 z "},"Ô":{"ha":1049,"x_min":0,"x_max":0,"o":"m 524 -22 b 985 492 813 -22 985 174 b 524 1008 985 813 813 1008 b 64 492 238 1008 64 813 b 524 -22 64 174 238 -22 z m 221 492 b 524 871 221 728 335 871 b 829 492 715 871 829 728 b 524 115 829 257 715 115 b 221 492 335 115 221 257 z m 319 1096 l 440 1096 l 525 1214 l 610 1096 l 731 1096 l 610 1263 l 439 1263 z "},"Ö":{"ha":1049,"x_min":0,"x_max":0,"o":"m 524 -22 b 985 492 813 -22 985 174 b 524 1008 985 813 813 1008 b 64 492 238 1008 64 813 b 524 -22 64 174 238 -22 z m 221 492 b 524 871 221 728 335 871 b 829 492 715 871 829 728 b 524 115 829 257 715 115 b 221 492 335 115 221 257 z m 331 1094 l 485 1094 l 485 1235 l 331 1235 z m 569 1094 l 724 1094 l 724 1235 l 569 1235 z "},"Ò":{"ha":1049,"x_min":0,"x_max":0,"o":"m 524 -22 b 985 492 813 -22 985 174 b 524 1008 985 813 813 1008 b 64 492 238 1008 64 813 b 524 -22 64 174 238 -22 z m 221 492 b 524 871 221 728 335 871 b 829 492 715 871 829 728 b 524 115 829 257 715 115 b 221 492 335 115 221 257 z m 349 1276 l 475 1096 l 579 1096 l 492 1276 z "},"Ő":{"ha":1049,"x_min":0,"x_max":0,"o":"m 524 -22 b 985 492 813 -22 985 174 b 524 1008 985 813 813 1008 b 64 492 238 1008 64 813 b 524 -22 64 174 238 -22 z m 221 492 b 524 871 221 728 335 871 b 829 492 715 871 829 728 b 524 115 829 257 715 115 b 221 492 335 115 221 257 z m 390 1096 l 494 1096 l 619 1276 l 478 1276 z m 571 1096 l 675 1096 l 800 1276 l 658 1276 z "},"Ō":{"ha":1049,"x_min":0,"x_max":0,"o":"m 524 -22 b 985 492 813 -22 985 174 b 524 1008 985 813 813 1008 b 64 492 238 1008 64 813 b 524 -22 64 174 238 -22 z m 221 492 b 524 871 221 728 335 871 b 829 492 715 871 829 728 b 524 115 829 257 715 115 b 221 492 335 115 221 257 z m 339 1114 l 710 1114 l 710 1217 l 339 1217 z "},"Ø":{"ha":1054,"x_min":0,"x_max":0,"o":"m 528 -22 b 989 492 817 -22 989 174 b 863 875 989 656 944 786 l 961 1008 l 833 1008 l 783 942 b 528 1008 714 985 628 1008 b 68 492 242 1008 68 813 b 179 128 68 340 107 217 l 68 -22 l 196 -22 l 256 57 b 528 -22 328 6 419 -22 z m 225 492 b 528 871 225 728 339 871 b 696 822 593 871 650 854 l 276 258 b 225 492 243 319 225 399 z m 343 176 l 768 749 b 833 492 811 685 833 597 b 528 115 833 257 719 115 b 343 176 454 115 392 136 z "},"Õ":{"ha":1049,"x_min":0,"x_max":0,"o":"m 524 -22 b 985 492 813 -22 985 174 b 524 1008 985 813 813 1008 b 64 492 238 1008 64 813 b 524 -22 64 174 238 -22 z m 221 492 b 524 871 221 728 335 871 b 829 492 715 871 829 728 b 524 115 829 257 715 115 b 221 492 335 115 221 257 z m 288 1094 l 386 1094 b 439 1185 386 1156 403 1185 b 508 1140 469 1185 485 1163 b 618 1093 532 1115 563 1093 b 760 1282 704 1093 760 1167 l 663 1282 b 611 1192 663 1221 646 1192 b 532 1243 576 1192 560 1218 b 431 1282 507 1268 478 1282 b 288 1094 343 1282 288 1211 z "},"Œ":{"ha":1521,"x_min":0,"x_max":0,"o":"m 519 -22 b 835 118 657 -22 763 31 l 835 0 l 1447 0 l 1447 138 l 985 138 l 985 428 l 1419 428 l 1419 561 l 985 561 l 985 849 l 1436 849 l 1436 986 l 835 986 l 835 868 b 519 1008 763 956 657 1008 b 64 492 233 1008 64 781 b 519 -22 64 203 233 -22 z m 219 492 b 519 871 219 697 317 871 b 821 492 724 871 821 697 b 519 115 821 288 724 115 b 219 492 318 115 219 288 z "},"P":{"ha":913,"x_min":0,"x_max":0,"o":"m 488 986 l 119 986 l 119 0 l 269 0 l 269 369 l 488 369 b 846 679 713 369 846 486 b 488 986 846 871 713 986 z m 269 506 l 269 849 l 483 849 b 690 679 619 849 690 792 b 483 506 690 565 619 506 z "},"Þ":{"ha":871,"x_min":0,"x_max":0,"o":"m 269 0 l 269 207 l 449 207 b 804 511 674 207 804 319 b 449 808 804 699 674 808 l 269 808 l 269 986 l 119 986 l 119 0 z m 269 344 l 269 671 l 446 671 b 649 511 581 671 649 618 b 446 344 649 400 581 344 z "},"Q":{"ha":1040,"x_min":0,"x_max":0,"o":"m 519 -22 b 696 10 585 -22 644 -11 l 776 -93 l 914 -93 l 792 64 b 976 492 911 156 976 313 b 519 1008 976 781 808 1008 b 64 492 233 1008 64 781 b 519 -22 64 203 233 -22 z m 219 492 b 519 871 219 697 317 871 b 821 492 724 871 821 697 b 700 179 821 363 779 247 l 604 304 l 467 304 l 604 126 b 519 115 579 118 550 115 b 219 492 318 115 219 288 z "},"R":{"ha":944,"x_min":0,"x_max":0,"o":"m 513 986 l 119 986 l 119 0 l 269 0 l 269 385 l 492 385 b 690 268 626 385 682 357 l 713 0 l 864 0 l 838 288 b 685 457 828 392 785 443 b 854 689 778 483 854 569 b 513 986 854 874 718 986 z m 269 522 l 269 849 l 503 849 b 699 685 629 849 699 789 b 503 522 699 579 628 522 z "},"Ŕ":{"ha":944,"x_min":0,"x_max":0,"o":"m 513 986 l 119 986 l 119 0 l 269 0 l 269 385 l 492 385 b 690 268 626 385 682 357 l 713 0 l 864 0 l 838 288 b 685 457 828 392 785 443 b 854 689 778 483 854 569 b 513 986 854 874 718 986 z m 269 522 l 269 849 l 503 849 b 699 685 629 849 699 789 b 503 522 699 579 628 522 z m 415 1096 l 519 1096 l 644 1276 l 503 1276 z "},"Ř":{"ha":944,"x_min":0,"x_max":0,"o":"m 513 986 l 119 986 l 119 0 l 269 0 l 269 385 l 492 385 b 690 268 626 385 682 357 l 713 0 l 864 0 l 838 288 b 685 457 828 392 785 443 b 854 689 778 483 854 569 b 513 986 854 874 718 986 z m 264 1263 l 383 1096 l 554 1096 l 675 1263 l 554 1263 l 469 1144 l 385 1263 z m 269 522 l 269 849 l 503 849 b 699 685 629 849 699 789 b 503 522 699 579 628 522 z "},"Ŗ":{"ha":944,"x_min":0,"x_max":0,"o":"m 513 986 l 119 986 l 119 0 l 269 0 l 269 385 l 492 385 b 690 268 626 385 682 357 l 713 0 l 864 0 l 838 288 b 685 457 828 392 785 443 b 854 689 778 483 854 569 b 513 986 854 874 718 986 z m 269 522 l 269 849 l 503 849 b 699 685 629 849 699 789 b 503 522 699 579 628 522 z m 351 -264 l 456 -264 l 581 -83 l 439 -83 z "},"S":{"ha":914,"x_min":0,"x_max":0,"o":"m 232 328 l 78 318 b 479 -17 94 115 256 -17 b 836 267 669 -17 836 82 b 501 558 836 418 694 510 b 254 729 382 590 254 622 b 435 872 253 817 329 872 b 664 679 561 872 647 796 l 817 688 b 438 1008 796 875 651 1008 b 99 731 238 1008 99 901 b 419 447 99 572 242 490 b 681 256 603 401 681 346 b 488 119 682 165 604 119 b 232 328 343 119 256 203 z "},"Ś":{"ha":914,"x_min":0,"x_max":0,"o":"m 232 328 l 78 318 b 479 -17 94 115 256 -17 b 836 267 669 -17 836 82 b 501 558 836 418 694 510 b 254 729 382 590 254 622 b 435 872 253 817 329 872 b 664 679 561 872 647 796 l 817 688 b 438 1008 796 875 651 1008 b 99 731 238 1008 99 901 b 419 447 99 572 242 490 b 681 256 603 401 681 346 b 488 119 682 165 604 119 b 232 328 343 119 256 203 z m 411 1096 l 515 1096 l 640 1276 l 499 1276 z "},"Ꞌ":{"ha":263,"x_min":0,"x_max":0,"o":"m 64 986 l 64 793 l 83 519 l 181 519 l 199 793 l 199 986 z "},"Š":{"ha":914,"x_min":0,"x_max":0,"o":"m 232 328 l 78 318 b 479 -17 94 115 256 -17 b 836 267 669 -17 836 82 b 501 558 836 418 694 510 b 254 729 382 590 254 622 b 435 872 253 817 329 872 b 664 679 561 872 647 796 l 817 688 b 438 1008 796 875 651 1008 b 99 731 238 1008 99 901 b 419 447 99 572 242 490 b 681 256 603 401 681 346 b 488 119 682 165 604 119 b 232 328 343 119 256 203 z m 260 1263 l 379 1096 l 550 1096 l 671 1263 l 550 1263 l 465 1144 l 381 1263 z "},"Ş":{"ha":914,"x_min":0,"x_max":0,"o":"m 232 328 l 78 318 b 418 -14 93 135 226 8 l 371 -65 l 413 -119 b 514 -168 468 -106 514 -125 b 453 -225 514 -203 490 -225 b 353 -156 406 -225 374 -181 l 288 -215 b 460 -312 343 -281 392 -312 b 601 -178 536 -312 601 -254 b 467 -49 601 -103 543 -49 l 496 -17 b 836 267 679 -11 836 88 b 501 558 836 418 694 510 b 254 729 382 590 254 622 b 435 872 253 817 329 872 b 664 679 561 872 647 796 l 817 688 b 438 1008 796 875 651 1008 b 99 731 238 1008 99 901 b 419 447 99 572 242 490 b 681 256 603 401 681 346 b 488 119 682 165 604 119 b 232 328 343 119 256 203 z "},"Ŝ":{"ha":914,"x_min":0,"x_max":0,"o":"m 232 328 l 78 318 b 479 -17 94 115 256 -17 b 836 267 669 -17 836 82 b 501 558 836 418 694 510 b 254 729 382 590 254 622 b 435 872 253 817 329 872 b 664 679 561 872 647 796 l 817 688 b 438 1008 796 875 651 1008 b 99 731 238 1008 99 901 b 419 447 99 572 242 490 b 681 256 603 401 681 346 b 488 119 682 165 604 119 b 232 328 343 119 256 203 z m 261 1096 l 382 1096 l 467 1214 l 551 1096 l 672 1096 l 551 1263 l 381 1263 z "},"Ș":{"ha":914,"x_min":0,"x_max":0,"o":"m 232 328 l 78 318 b 479 -17 94 115 256 -17 b 836 267 669 -17 836 82 b 501 558 836 418 694 510 b 254 729 382 590 254 622 b 435 872 253 817 329 872 b 664 679 561 872 647 796 l 817 688 b 438 1008 796 875 651 1008 b 99 731 238 1008 99 901 b 419 447 99 572 242 490 b 681 256 603 401 681 346 b 488 119 682 165 604 119 b 232 328 343 119 256 203 z m 329 -264 l 433 -264 l 558 -83 l 417 -83 z "},"ẞ":{"ha":985,"x_min":0,"x_max":0,"o":"m 543 138 l 363 138 l 363 0 l 543 0 b 904 307 768 0 904 122 b 558 589 904 471 765 582 l 843 842 l 843 986 l 425 986 b 119 681 233 986 119 872 l 119 0 l 269 0 l 269 681 b 425 849 269 790 325 849 l 650 849 l 376 607 l 376 472 l 517 474 b 751 304 663 475 751 413 b 543 138 751 201 672 138 z "},"T":{"ha":828,"x_min":0,"x_max":0,"o":"m 792 986 l 36 986 l 36 849 l 339 849 l 339 0 l 489 0 l 489 849 l 792 849 z "},"Ŧ":{"ha":828,"x_min":0,"x_max":0,"o":"m 792 986 l 36 986 l 36 849 l 339 849 l 339 526 l 158 526 l 158 419 l 339 419 l 339 0 l 489 0 l 489 419 l 671 419 l 671 526 l 489 526 l 489 849 l 792 849 z "},"Ť":{"ha":828,"x_min":0,"x_max":0,"o":"m 792 986 l 36 986 l 36 849 l 339 849 l 339 0 l 489 0 l 489 849 l 792 849 z m 206 1263 l 325 1096 l 496 1096 l 617 1263 l 496 1263 l 411 1144 l 326 1263 z "},"Ţ":{"ha":828,"x_min":0,"x_max":0,"o":"m 792 986 l 36 986 l 36 849 l 339 849 l 339 0 l 376 0 l 317 -65 l 358 -119 b 460 -168 414 -106 460 -125 b 399 -225 460 -203 436 -225 b 299 -156 351 -225 319 -181 l 233 -215 b 406 -312 289 -281 338 -312 b 547 -178 482 -312 547 -254 b 413 -49 547 -103 489 -49 l 457 0 l 489 0 l 489 849 l 792 849 z "},"Ț":{"ha":828,"x_min":0,"x_max":0,"o":"m 792 986 l 36 986 l 36 849 l 339 849 l 339 0 l 489 0 l 489 849 l 792 849 z m 274 -264 l 378 -264 l 503 -83 l 361 -83 z "},"U":{"ha":964,"x_min":0,"x_max":0,"o":"m 865 349 l 865 988 l 715 988 l 715 349 b 482 115 715 199 629 115 b 249 349 333 115 249 199 l 249 988 l 99 988 l 99 349 b 482 -22 99 121 246 -22 b 865 349 717 -22 865 121 z "},"Ú":{"ha":964,"x_min":0,"x_max":0,"o":"m 865 349 l 865 988 l 715 988 l 715 349 b 482 115 715 199 629 115 b 249 349 333 115 249 199 l 249 988 l 99 988 l 99 349 b 482 -22 99 121 246 -22 b 865 349 717 -22 865 121 z m 426 1096 l 531 1096 l 656 1276 l 514 1276 z "},"Ŭ":{"ha":964,"x_min":0,"x_max":0,"o":"m 865 349 l 865 988 l 715 988 l 715 349 b 482 115 715 199 629 115 b 249 349 333 115 249 199 l 249 988 l 99 988 l 99 349 b 482 -22 99 121 246 -22 b 865 349 717 -22 865 121 z m 278 1278 b 482 1094 278 1175 368 1094 b 686 1278 596 1094 686 1175 l 583 1278 b 482 1188 583 1226 539 1188 b 381 1278 425 1188 381 1226 z "},"Û":{"ha":964,"x_min":0,"x_max":0,"o":"m 865 349 l 865 988 l 715 988 l 715 349 b 482 115 715 199 629 115 b 249 349 333 115 249 199 l 249 988 l 99 988 l 99 349 b 482 -22 99 121 246 -22 b 865 349 717 -22 865 121 z m 276 1096 l 397 1096 l 482 1214 l 567 1096 l 688 1096 l 567 1263 l 396 1263 z "},"Ü":{"ha":964,"x_min":0,"x_max":0,"o":"m 865 349 l 865 988 l 715 988 l 715 349 b 482 115 715 199 629 115 b 249 349 333 115 249 199 l 249 988 l 99 988 l 99 349 b 482 -22 99 121 246 -22 b 865 349 717 -22 865 121 z m 288 1094 l 442 1094 l 442 1235 l 288 1235 z m 526 1094 l 681 1094 l 681 1235 l 526 1235 z "},"Ù":{"ha":964,"x_min":0,"x_max":0,"o":"m 865 349 l 865 988 l 715 988 l 715 349 b 482 115 715 199 629 115 b 249 349 333 115 249 199 l 249 988 l 99 988 l 99 349 b 482 -22 99 121 246 -22 b 865 349 717 -22 865 121 z m 306 1276 l 432 1096 l 536 1096 l 449 1276 z "},"Ű":{"ha":964,"x_min":0,"x_max":0,"o":"m 865 349 l 865 988 l 715 988 l 715 349 b 482 115 715 199 629 115 b 249 349 333 115 249 199 l 249 988 l 99 988 l 99 349 b 482 -22 99 121 246 -22 b 865 349 717 -22 865 121 z m 347 1096 l 451 1096 l 576 1276 l 435 1276 z m 528 1096 l 632 1096 l 757 1276 l 615 1276 z "},"Ū":{"ha":964,"x_min":0,"x_max":0,"o":"m 865 349 l 865 988 l 715 988 l 715 349 b 482 115 715 199 629 115 b 249 349 333 115 249 199 l 249 988 l 99 988 l 99 349 b 482 -22 99 121 246 -22 b 865 349 717 -22 865 121 z m 296 1114 l 667 1114 l 667 1217 l 296 1217 z "},"Ų":{"ha":964,"x_min":0,"x_max":0,"o":"m 865 349 l 865 988 l 715 988 l 715 349 b 482 115 715 199 629 115 b 249 349 333 115 249 199 l 249 988 l 99 988 l 99 349 b 482 -22 99 121 246 -22 b 515 -21 493 -22 504 -22 l 485 -54 b 431 -181 447 -93 431 -136 b 556 -300 431 -249 488 -299 b 672 -261 594 -300 635 -289 l 672 -165 b 586 -194 642 -179 610 -194 b 540 -147 558 -194 540 -174 b 583 -57 540 -119 563 -85 l 622 -3 b 865 349 774 43 865 171 z "},"Ů":{"ha":964,"x_min":0,"x_max":0,"o":"m 865 349 l 865 988 l 715 988 l 715 349 b 482 115 715 199 629 115 b 249 349 333 115 249 199 l 249 988 l 99 988 l 99 349 b 482 -22 99 121 246 -22 b 865 349 717 -22 865 121 z m 347 1194 b 481 1063 347 1118 408 1063 b 614 1194 554 1063 614 1118 b 481 1328 614 1267 554 1328 b 347 1194 408 1328 347 1267 z m 429 1196 b 481 1246 429 1221 453 1246 b 532 1196 508 1246 532 1221 b 481 1144 532 1168 508 1144 b 429 1196 453 1144 429 1168 z "},"Ũ":{"ha":964,"x_min":0,"x_max":0,"o":"m 865 349 l 865 988 l 715 988 l 715 349 b 482 115 715 199 629 115 b 249 349 333 115 249 199 l 249 988 l 99 988 l 99 349 b 482 -22 99 121 246 -22 b 865 349 717 -22 865 121 z m 244 1094 l 343 1094 b 396 1185 343 1156 360 1185 b 465 1140 426 1185 442 1163 b 575 1093 489 1115 519 1093 b 717 1282 661 1093 717 1167 l 619 1282 b 568 1192 619 1221 603 1192 b 489 1243 533 1192 517 1218 b 388 1282 464 1268 435 1282 b 244 1094 300 1282 244 1211 z "},"V":{"ha":963,"x_min":0,"x_max":0,"o":"m 31 986 l 388 0 l 575 0 l 932 986 l 771 986 l 482 168 l 190 986 z "},"W":{"ha":1301,"x_min":0,"x_max":0,"o":"m 31 986 l 293 0 l 467 0 l 650 703 l 833 0 l 1010 0 l 1271 986 l 1110 986 l 919 207 l 726 986 l 574 986 l 383 207 l 192 986 z "},"Ẃ":{"ha":1301,"x_min":0,"x_max":0,"o":"m 31 986 l 293 0 l 467 0 l 650 703 l 833 0 l 1010 0 l 1271 986 l 1110 986 l 919 207 l 726 986 l 574 986 l 383 207 l 192 986 z m 596 1096 l 700 1096 l 825 1276 l 683 1276 z "},"Ŵ":{"ha":1301,"x_min":0,"x_max":0,"o":"m 31 986 l 293 0 l 467 0 l 650 703 l 833 0 l 1010 0 l 1271 986 l 1110 986 l 919 207 l 726 986 l 574 986 l 383 207 l 192 986 z m 446 1096 l 567 1096 l 651 1214 l 736 1096 l 857 1096 l 736 1263 l 565 1263 z "},"Ẅ":{"ha":1301,"x_min":0,"x_max":0,"o":"m 31 986 l 293 0 l 467 0 l 650 703 l 833 0 l 1010 0 l 1271 986 l 1110 986 l 919 207 l 726 986 l 574 986 l 383 207 l 192 986 z m 457 1094 l 611 1094 l 611 1235 l 457 1235 z m 696 1094 l 850 1094 l 850 1235 l 696 1235 z "},"Ẁ":{"ha":1301,"x_min":0,"x_max":0,"o":"m 31 986 l 293 0 l 467 0 l 650 703 l 833 0 l 1010 0 l 1271 986 l 1110 986 l 919 207 l 726 986 l 574 986 l 383 207 l 192 986 z m 475 1276 l 601 1096 l 706 1096 l 618 1276 z "},"X":{"ha":915,"x_min":0,"x_max":0,"o":"m 703 986 l 460 613 l 214 986 l 40 986 l 367 496 l 38 0 l 210 0 l 457 379 l 704 0 l 878 0 l 549 494 l 874 986 z "},"Y":{"ha":906,"x_min":0,"x_max":0,"o":"m 31 986 l 378 396 l 378 0 l 528 0 l 528 396 l 874 986 l 703 986 l 453 547 l 203 986 z "},"Ý":{"ha":904,"x_min":0,"x_max":0,"o":"m 31 986 l 378 396 l 378 0 l 528 0 l 528 396 l 874 986 l 703 986 l 453 547 l 203 986 z m 397 1096 l 501 1096 l 626 1276 l 485 1276 z "},"Ŷ":{"ha":904,"x_min":0,"x_max":0,"o":"m 31 986 l 378 396 l 378 0 l 528 0 l 528 396 l 874 986 l 703 986 l 453 547 l 203 986 z m 247 1096 l 368 1096 l 453 1214 l 538 1096 l 658 1096 l 538 1263 l 367 1263 z "},"Ÿ":{"ha":904,"x_min":0,"x_max":0,"o":"m 31 986 l 378 396 l 378 0 l 528 0 l 528 396 l 874 986 l 703 986 l 453 547 l 203 986 z m 258 1094 l 413 1094 l 413 1235 l 258 1235 z m 497 1094 l 651 1094 l 651 1235 l 497 1235 z "},"Ỳ":{"ha":904,"x_min":0,"x_max":0,"o":"m 31 986 l 378 396 l 378 0 l 528 0 l 528 396 l 874 986 l 703 986 l 453 547 l 203 986 z m 276 1276 l 403 1096 l 507 1096 l 419 1276 z "},"Ỹ":{"ha":904,"x_min":0,"x_max":0,"o":"m 31 986 l 378 396 l 378 0 l 528 0 l 528 396 l 874 986 l 703 986 l 453 547 l 203 986 z m 217 1094 l 315 1094 b 368 1185 315 1156 332 1185 b 438 1140 399 1185 414 1163 b 547 1093 461 1115 492 1093 b 689 1282 633 1093 689 1167 l 592 1282 b 540 1192 592 1221 575 1192 b 461 1243 506 1192 489 1218 b 360 1282 436 1268 407 1282 b 217 1094 272 1282 217 1211 z "},"Z":{"ha":779,"x_min":0,"x_max":0,"o":"m 729 853 l 729 986 l 64 986 l 64 849 l 549 849 l 38 142 l 38 0 l 740 0 l 740 138 l 210 138 z "},"Ź":{"ha":779,"x_min":0,"x_max":0,"o":"m 729 853 l 729 986 l 64 986 l 64 849 l 549 849 l 38 142 l 38 0 l 740 0 l 740 138 l 210 138 z m 344 1096 l 449 1096 l 574 1276 l 432 1276 z "},"Ž":{"ha":779,"x_min":0,"x_max":0,"o":"m 729 853 l 729 986 l 64 986 l 64 849 l 549 849 l 38 142 l 38 0 l 740 0 l 740 138 l 210 138 z m 193 1263 l 313 1096 l 483 1096 l 604 1263 l 483 1263 l 399 1144 l 314 1263 z "},"Ż":{"ha":779,"x_min":0,"x_max":0,"o":"m 729 853 l 729 986 l 64 986 l 64 849 l 549 849 l 38 142 l 38 0 l 740 0 l 740 138 l 210 138 z m 322 1094 l 476 1094 l 476 1235 l 322 1235 z "},"a":{"ha":819,"x_min":0,"x_max":0,"o":"m 74 515 l 226 506 b 389 633 246 589 303 633 b 551 457 496 633 550 575 l 340 415 b 61 193 171 383 61 340 b 326 -17 61 63 178 -17 b 564 114 449 -17 531 43 b 728 0 571 10 661 -1 l 774 0 l 774 115 l 744 115 b 699 167 715 115 699 129 l 699 440 b 389 753 699 642 589 753 b 74 515 219 753 103 664 z m 214 196 b 397 317 214 289 296 299 l 554 344 l 554 335 b 358 97 554 176 468 99 b 214 196 261 97 214 142 z "},"á":{"ha":819,"x_min":0,"x_max":0,"o":"m 74 515 l 226 506 b 389 633 246 589 303 633 b 551 457 496 633 550 575 l 340 415 b 61 193 171 383 61 340 b 326 -17 61 63 178 -17 b 564 114 449 -17 531 43 b 728 0 571 10 661 -1 l 774 0 l 774 115 l 744 115 b 699 167 715 115 699 129 l 699 440 b 389 753 699 642 589 753 b 74 515 219 753 103 664 z m 214 196 b 397 317 214 289 296 299 l 554 344 l 554 335 b 358 97 554 176 468 99 b 214 196 261 97 214 142 z m 343 846 l 447 846 l 572 1026 l 431 1026 z "},"ă":{"ha":819,"x_min":0,"x_max":0,"o":"m 74 515 l 226 506 b 389 633 246 589 303 633 b 551 457 496 633 550 575 l 340 415 b 61 193 171 383 61 340 b 326 -17 61 63 178 -17 b 564 114 449 -17 531 43 b 728 0 571 10 661 -1 l 774 0 l 774 115 l 744 115 b 699 167 715 115 699 129 l 699 440 b 389 753 699 642 589 753 b 74 515 219 753 103 664 z m 194 1028 b 399 844 194 925 285 844 b 603 1028 513 844 603 925 l 500 1028 b 399 938 500 976 456 938 b 297 1028 342 938 297 976 z m 214 196 b 397 317 214 289 296 299 l 554 344 l 554 335 b 358 97 554 176 468 99 b 214 196 261 97 214 142 z "},"ǎ":{"ha":819,"x_min":0,"x_max":0,"o":"m 74 515 l 226 506 b 389 633 246 589 303 633 b 551 457 496 633 550 575 l 340 415 b 61 193 171 383 61 340 b 326 -17 61 63 178 -17 b 564 114 449 -17 531 43 b 728 0 571 10 661 -1 l 774 0 l 774 115 l 744 115 b 699 167 715 115 699 129 l 699 440 b 389 753 699 642 589 753 b 74 515 219 753 103 664 z m 192 1013 l 311 846 l 482 846 l 603 1013 l 482 1013 l 397 894 l 313 1013 z m 214 196 b 397 317 214 289 296 299 l 554 344 l 554 335 b 358 97 554 176 468 99 b 214 196 261 97 214 142 z "},"â":{"ha":819,"x_min":0,"x_max":0,"o":"m 74 515 l 226 506 b 389 633 246 589 303 633 b 551 457 496 633 550 575 l 340 415 b 61 193 171 383 61 340 b 326 -17 61 63 178 -17 b 564 114 449 -17 531 43 b 728 0 571 10 661 -1 l 774 0 l 774 115 l 744 115 b 699 167 715 115 699 129 l 699 440 b 389 753 699 642 589 753 b 74 515 219 753 103 664 z m 193 846 l 314 846 l 399 964 l 483 846 l 604 846 l 483 1013 l 313 1013 z m 214 196 b 397 317 214 289 296 299 l 554 344 l 554 335 b 358 97 554 176 468 99 b 214 196 261 97 214 142 z "},"ä":{"ha":819,"x_min":0,"x_max":0,"o":"m 74 515 l 226 506 b 389 633 246 589 303 633 b 551 457 496 633 550 575 l 340 415 b 61 193 171 383 61 340 b 326 -17 61 63 178 -17 b 564 114 449 -17 531 43 b 728 0 571 10 661 -1 l 774 0 l 774 115 l 744 115 b 699 167 715 115 699 129 l 699 440 b 389 753 699 642 589 753 b 74 515 219 753 103 664 z m 204 844 l 358 844 l 358 985 l 204 985 z m 214 196 b 397 317 214 289 296 299 l 554 344 l 554 335 b 358 97 554 176 468 99 b 214 196 261 97 214 142 z m 443 844 l 597 844 l 597 985 l 443 985 z "},"à":{"ha":819,"x_min":0,"x_max":0,"o":"m 74 515 l 226 506 b 389 633 246 589 303 633 b 551 457 496 633 550 575 l 340 415 b 61 193 171 383 61 340 b 326 -17 61 63 178 -17 b 564 114 449 -17 531 43 b 728 0 571 10 661 -1 l 774 0 l 774 115 l 744 115 b 699 167 715 115 699 129 l 699 440 b 389 753 699 642 589 753 b 74 515 219 753 103 664 z m 214 196 b 397 317 214 289 296 299 l 554 344 l 554 335 b 358 97 554 176 468 99 b 214 196 261 97 214 142 z m 222 1026 l 349 846 l 453 846 l 365 1026 z "},"ā":{"ha":819,"x_min":0,"x_max":0,"o":"m 74 515 l 226 506 b 389 633 246 589 303 633 b 551 457 496 633 550 575 l 340 415 b 61 193 171 383 61 340 b 326 -17 61 63 178 -17 b 564 114 449 -17 531 43 b 728 0 571 10 661 -1 l 774 0 l 774 115 l 744 115 b 699 167 715 115 699 129 l 699 440 b 389 753 699 642 589 753 b 74 515 219 753 103 664 z m 214 196 b 397 317 214 289 296 299 l 554 344 l 554 335 b 358 97 554 176 468 99 b 214 196 261 97 214 142 z m 214 864 l 585 864 l 585 967 l 214 967 z "},"ą":{"ha":819,"x_min":0,"x_max":0,"o":"m 74 515 l 226 506 b 389 633 246 589 303 633 b 551 457 496 633 550 575 l 340 415 b 61 193 171 383 61 340 b 326 -17 61 63 178 -17 b 564 114 449 -17 531 43 b 683 1 569 32 626 7 l 636 -50 b 582 -176 599 -89 582 -132 b 707 -296 582 -244 639 -294 b 824 -257 746 -296 786 -285 l 824 -161 b 738 -190 793 -175 761 -190 b 692 -143 710 -190 692 -169 b 735 -53 692 -115 714 -81 l 772 0 l 774 0 l 774 3 l 775 4 l 774 4 l 774 115 l 744 115 b 699 167 715 115 699 129 l 699 440 b 389 753 699 642 589 753 b 74 515 219 753 103 664 z m 214 196 b 397 317 214 289 296 299 l 554 344 l 554 335 b 358 97 554 176 468 99 b 214 196 261 97 214 142 z "},"å":{"ha":819,"x_min":0,"x_max":0,"o":"m 74 515 l 226 506 b 389 633 246 589 303 633 b 551 457 496 633 550 575 l 340 415 b 61 193 171 383 61 340 b 326 -17 61 63 178 -17 b 564 114 449 -17 531 43 b 728 0 571 10 661 -1 l 774 0 l 774 115 l 744 115 b 699 167 715 115 699 129 l 699 440 b 389 753 699 642 589 753 b 74 515 219 753 103 664 z m 214 196 b 397 317 214 289 296 299 l 554 344 l 554 335 b 358 97 554 176 468 99 b 214 196 261 97 214 142 z m 264 944 b 397 813 264 868 325 813 b 531 944 471 813 531 868 b 397 1078 531 1017 471 1078 b 264 944 325 1078 264 1017 z m 346 946 b 397 996 346 971 369 996 b 449 946 425 996 449 971 b 397 894 449 918 425 894 b 346 946 369 894 346 918 z "},"ã":{"ha":819,"x_min":0,"x_max":0,"o":"m 74 515 l 226 506 b 389 633 246 589 303 633 b 551 457 496 633 550 575 l 340 415 b 61 193 171 383 61 340 b 326 -17 61 63 178 -17 b 564 114 449 -17 531 43 b 728 0 571 10 661 -1 l 774 0 l 774 115 l 744 115 b 699 167 715 115 699 129 l 699 440 b 389 753 699 642 589 753 b 74 515 219 753 103 664 z m 163 844 l 261 844 b 314 935 261 906 278 935 b 383 890 344 935 360 913 b 493 843 407 865 438 843 b 635 1032 579 843 635 917 l 538 1032 b 486 942 538 971 521 942 b 407 993 451 942 435 968 b 306 1032 382 1018 353 1032 b 163 844 218 1032 163 961 z m 214 196 b 397 317 214 289 296 299 l 554 344 l 554 335 b 358 97 554 176 468 99 b 214 196 261 97 214 142 z "},"æ":{"ha":1310,"x_min":0,"x_max":0,"o":"m 74 515 l 229 506 b 389 633 244 582 306 633 b 551 457 488 633 550 576 l 333 415 b 61 196 172 386 61 344 b 329 -17 61 64 182 -15 b 606 169 472 -15 569 50 b 915 -17 661 53 771 -17 b 1238 211 1065 -17 1194 71 l 1083 222 b 915 108 1054 151 988 108 b 719 326 800 108 729 189 l 1249 326 l 1247 374 b 915 753 1240 635 1092 753 b 649 636 803 753 710 710 b 389 753 597 714 506 753 b 74 515 224 753 103 661 z m 214 196 b 397 317 214 293 296 297 l 554 346 l 554 297 b 360 90 554 169 468 96 b 214 196 260 86 214 142 z m 722 436 b 915 628 739 557 808 628 b 1093 436 999 628 1076 576 z "},"b":{"ha":849,"x_min":0,"x_max":0,"o":"m 104 986 l 104 0 l 242 0 l 246 106 b 475 -17 288 31 374 -17 b 786 368 667 -17 786 132 b 475 753 786 604 667 753 b 251 638 379 753 293 708 l 251 986 z m 240 368 b 438 631 240 529 317 631 b 633 368 557 631 633 529 b 438 110 633 210 556 110 b 240 368 317 110 240 210 z "},"c":{"ha":790,"x_min":0,"x_max":0,"o":"m 583 478 l 736 486 b 413 753 717 651 576 753 b 61 368 199 753 61 601 b 413 -17 61 135 199 -17 b 742 263 582 -17 719 90 l 588 271 b 413 111 572 168 500 111 b 214 368 288 111 214 207 b 413 625 214 529 288 625 b 583 478 496 625 568 571 z "},"ć":{"ha":790,"x_min":0,"x_max":0,"o":"m 583 478 l 736 486 b 413 753 717 651 576 753 b 61 368 199 753 61 601 b 413 -17 61 135 199 -17 b 742 263 582 -17 719 90 l 588 271 b 413 111 572 168 500 111 b 214 368 288 111 214 207 b 413 625 214 529 288 625 b 583 478 496 625 568 571 z m 356 846 l 460 846 l 585 1026 l 443 1026 z "},"č":{"ha":790,"x_min":0,"x_max":0,"o":"m 583 478 l 736 486 b 413 753 717 651 576 753 b 61 368 199 753 61 601 b 413 -17 61 135 199 -17 b 742 263 582 -17 719 90 l 588 271 b 413 111 572 168 500 111 b 214 368 288 111 214 207 b 413 625 214 529 288 625 b 583 478 496 625 568 571 z m 204 1013 l 324 846 l 494 846 l 615 1013 l 494 1013 l 410 894 l 325 1013 z "},"ç":{"ha":790,"x_min":0,"x_max":0,"o":"m 583 478 l 736 486 b 413 753 717 651 576 753 b 61 368 199 753 61 601 b 363 -14 61 154 178 8 l 315 -65 l 357 -119 b 458 -168 413 -106 458 -125 b 397 -225 458 -203 435 -225 b 297 -156 350 -225 318 -181 l 232 -215 b 404 -312 288 -281 336 -312 b 546 -178 481 -312 546 -254 b 411 -49 546 -103 488 -49 l 442 -15 b 742 263 597 -4 721 100 l 588 271 b 413 111 572 168 500 111 b 214 368 288 111 214 207 b 413 625 214 529 288 625 b 583 478 496 625 568 571 z "},"ĉ":{"ha":790,"x_min":0,"x_max":0,"o":"m 583 478 l 736 486 b 413 753 717 651 576 753 b 61 368 199 753 61 601 b 413 -17 61 135 199 -17 b 742 263 582 -17 719 90 l 588 271 b 413 111 572 168 500 111 b 214 368 288 111 214 207 b 413 625 214 529 288 625 b 583 478 496 625 568 571 z m 207 846 l 328 846 l 413 964 l 497 846 l 618 846 l 497 1013 l 326 1013 z "},"ċ":{"ha":790,"x_min":0,"x_max":0,"o":"m 583 478 l 736 486 b 413 753 717 651 576 753 b 61 368 199 753 61 601 b 413 -17 61 135 199 -17 b 742 263 582 -17 719 90 l 588 271 b 413 111 572 168 500 111 b 214 368 288 111 214 207 b 413 625 214 529 288 625 b 583 478 496 625 568 571 z m 335 844 l 489 844 l 489 985 l 335 985 z "},"d":{"ha":849,"x_min":0,"x_max":0,"o":"m 744 986 l 597 986 l 597 638 b 374 753 556 708 469 753 b 63 368 182 753 63 604 b 374 -17 63 132 182 -17 b 603 106 475 -17 561 31 l 607 0 l 744 0 z m 215 368 b 411 631 215 529 292 631 b 608 368 532 631 608 529 b 411 110 608 210 532 110 b 215 368 293 110 215 210 z "},"ð":{"ha":838,"x_min":0,"x_max":0,"o":"m 432 658 b 63 346 225 676 81 556 b 385 -17 44 147 179 -3 b 625 65 475 -24 550 3 b 671 849 774 200 850 600 l 764 883 l 729 972 l 601 924 b 292 1049 528 989 426 1035 l 254 926 b 450 867 329 919 394 899 l 307 813 l 342 724 l 538 797 b 646 510 606 725 644 626 b 432 658 607 596 529 649 z m 215 336 b 425 532 225 461 311 542 b 614 365 521 524 599 464 b 386 107 603 204 508 97 b 215 336 274 119 203 204 z "},"ď":{"ha":1047,"x_min":0,"x_max":0,"o":"m 744 986 l 597 986 l 597 638 b 374 753 556 708 469 753 b 63 368 182 753 63 604 b 374 -17 63 132 182 -17 b 603 106 475 -17 561 31 l 607 0 l 744 0 z m 215 368 b 411 631 215 529 292 631 b 608 368 532 631 608 529 b 411 110 608 210 532 110 b 215 368 293 110 215 210 z m 811 818 l 875 818 l 818 603 l 901 603 l 986 818 l 985 818 l 985 988 l 811 988 z "},"đ":{"ha":922,"x_min":0,"x_max":0,"o":"m 744 986 l 597 986 l 597 914 l 449 914 l 449 807 l 597 807 l 597 638 b 374 753 556 708 469 753 b 63 368 182 753 63 604 b 374 -17 63 132 182 -17 b 603 106 475 -17 561 31 l 607 0 l 744 0 l 744 807 l 832 807 l 832 914 l 744 914 z m 215 368 b 411 631 215 529 292 631 b 608 368 532 631 608 529 b 411 110 608 210 532 110 b 215 368 293 110 215 210 z "},"e":{"ha":807,"x_min":0,"x_max":0,"o":"m 61 368 b 413 -17 61 135 199 -17 b 735 211 563 -17 692 71 l 581 222 b 413 108 551 151 485 108 b 217 326 297 108 226 189 l 746 326 l 744 374 b 413 753 738 635 589 753 b 61 368 199 753 61 601 z m 219 436 b 413 628 236 557 306 628 b 590 436 496 628 574 576 z "},"é":{"ha":808,"x_min":0,"x_max":0,"o":"m 61 368 b 413 -17 61 135 199 -17 b 735 211 563 -17 692 71 l 581 222 b 413 108 551 151 485 108 b 217 326 297 108 226 189 l 746 326 l 744 374 b 413 753 738 635 589 753 b 61 368 199 753 61 601 z m 219 436 b 413 628 236 557 306 628 b 590 436 496 628 574 576 z m 356 843 l 460 843 l 585 1024 l 443 1024 z "},"ě":{"ha":808,"x_min":0,"x_max":0,"o":"m 61 368 b 413 -17 61 135 199 -17 b 735 211 563 -17 692 71 l 581 222 b 413 108 551 151 485 108 b 217 326 297 108 226 189 l 746 326 l 744 374 b 413 753 738 635 589 753 b 61 368 199 753 61 601 z m 204 1011 l 324 844 l 494 844 l 615 1011 l 494 1011 l 410 893 l 325 1011 z m 219 436 b 413 628 236 557 306 628 b 590 436 496 628 574 576 z "},"ê":{"ha":808,"x_min":0,"x_max":0,"o":"m 61 368 b 413 -17 61 135 199 -17 b 735 211 563 -17 692 71 l 581 222 b 413 108 551 151 485 108 b 217 326 297 108 226 189 l 746 326 l 744 374 b 413 753 738 635 589 753 b 61 368 199 753 61 601 z m 207 843 l 328 843 l 413 961 l 497 843 l 618 843 l 497 1010 l 326 1010 z m 219 436 b 413 628 236 557 306 628 b 590 436 496 628 574 576 z "},"ë":{"ha":808,"x_min":0,"x_max":0,"o":"m 61 368 b 413 -17 61 135 199 -17 b 735 211 563 -17 692 71 l 581 222 b 413 108 551 151 485 108 b 217 326 297 108 226 189 l 746 326 l 744 374 b 413 753 738 635 589 753 b 61 368 199 753 61 601 z m 218 842 l 372 842 l 372 982 l 218 982 z m 219 436 b 413 628 236 557 306 628 b 590 436 496 628 574 576 z m 456 842 l 610 842 l 610 982 l 456 982 z "},"ė":{"ha":808,"x_min":0,"x_max":0,"o":"m 61 368 b 413 -17 61 135 199 -17 b 735 211 563 -17 692 71 l 581 222 b 413 108 551 151 485 108 b 217 326 297 108 226 189 l 746 326 l 744 374 b 413 753 738 635 589 753 b 61 368 199 753 61 601 z m 219 436 b 413 628 236 557 306 628 b 590 436 496 628 574 576 z m 335 842 l 489 842 l 489 982 l 335 982 z "},"è":{"ha":808,"x_min":0,"x_max":0,"o":"m 61 368 b 413 -17 61 135 199 -17 b 735 211 563 -17 692 71 l 581 222 b 413 108 551 151 485 108 b 217 326 297 108 226 189 l 746 326 l 744 374 b 413 753 738 635 589 753 b 61 368 199 753 61 601 z m 219 436 b 413 628 236 557 306 628 b 590 436 496 628 574 576 z m 235 1024 l 361 843 l 465 843 l 378 1024 z "},"ē":{"ha":808,"x_min":0,"x_max":0,"o":"m 61 368 b 413 -17 61 135 199 -17 b 735 211 563 -17 692 71 l 581 222 b 413 108 551 151 485 108 b 217 326 297 108 226 189 l 746 326 l 744 374 b 413 753 738 635 589 753 b 61 368 199 753 61 601 z m 219 436 b 413 628 236 557 306 628 b 590 436 496 628 574 576 z m 226 861 l 597 861 l 597 964 l 226 964 z "},"ę":{"ha":808,"x_min":0,"x_max":0,"o":"m 61 368 b 413 -17 61 135 199 -17 l 414 -17 l 379 -54 b 325 -181 342 -93 325 -136 b 450 -300 325 -249 382 -299 b 567 -261 489 -300 529 -289 l 567 -165 b 481 -194 536 -179 504 -194 b 435 -147 453 -194 435 -174 b 478 -57 435 -119 457 -85 l 517 -1 b 735 211 619 29 701 104 l 581 222 b 413 108 551 151 485 108 b 217 326 297 108 226 189 l 746 326 l 744 374 b 413 753 738 635 589 753 b 61 368 199 753 61 601 z m 219 436 b 413 628 236 557 306 628 b 590 436 496 628 574 576 z "},"ẽ":{"ha":808,"x_min":0,"x_max":0,"o":"m 61 368 b 413 -17 61 135 199 -17 b 735 211 563 -17 692 71 l 581 222 b 413 108 551 151 485 108 b 217 326 297 108 226 189 l 746 326 l 744 374 b 413 753 738 635 589 753 b 61 368 199 753 61 601 z m 175 842 l 274 842 b 326 932 274 903 290 932 b 396 888 357 932 372 910 b 506 840 419 863 450 840 b 647 1029 592 840 647 914 l 550 1029 b 499 939 550 968 533 939 b 419 990 464 939 447 965 b 318 1029 394 1015 365 1029 b 175 842 231 1029 175 958 z m 219 436 b 413 628 236 557 306 628 b 590 436 496 628 574 576 z "},"ə":{"ha":808,"x_min":0,"x_max":0,"o":"m 746 368 b 394 753 746 601 608 753 b 72 525 244 753 115 665 l 226 514 b 394 628 256 585 322 628 b 590 410 510 628 581 547 l 61 410 l 63 363 b 394 -17 69 101 218 -17 b 746 368 608 -17 746 135 z m 217 300 l 588 300 b 394 108 571 179 501 108 b 217 300 311 108 233 160 z "},"ʒ":{"ha":853,"x_min":0,"x_max":0,"o":"m 68 36 l 68 -133 b 408 -272 151 -218 282 -272 b 785 35 633 -272 785 -146 b 514 324 785 189 674 308 l 769 583 l 769 736 l 71 736 l 71 599 l 586 599 l 331 336 l 331 207 l 410 208 b 629 35 540 210 629 139 b 408 -135 629 -65 539 -135 b 68 36 303 -135 174 -71 z "},"ǯ":{"ha":853,"x_min":0,"x_max":0,"o":"m 68 36 l 68 -133 b 408 -272 151 -218 282 -272 b 785 35 633 -272 785 -146 b 514 324 785 189 674 308 l 769 583 l 769 736 l 71 736 l 71 599 l 586 599 l 331 336 l 331 207 l 410 208 b 629 35 540 210 629 139 b 408 -135 629 -65 539 -135 b 68 36 303 -135 174 -71 z m 213 1013 l 332 846 l 503 846 l 624 1013 l 503 1013 l 418 894 l 333 1013 z "},"f":{"ha":576,"x_min":0,"x_max":0,"o":"m 179 769 l 179 726 l 76 726 l 76 606 l 179 606 l 179 0 l 326 0 l 326 606 l 511 606 l 511 726 l 326 726 l 326 769 b 407 865 326 829 360 865 l 522 865 l 522 986 l 396 986 b 179 769 246 986 179 906 z "},"g":{"ha":847,"x_min":0,"x_max":0,"o":"m 385 38 b 594 160 476 38 558 86 l 594 53 b 404 -103 594 -50 524 -103 b 235 -3 321 -103 261 -65 l 83 -12 b 403 -225 119 -142 242 -225 b 743 78 603 -225 743 -117 l 743 736 l 600 736 l 600 621 b 383 753 565 703 482 753 b 61 392 193 753 61 606 b 385 38 61 182 194 38 z m 214 393 b 408 626 214 536 289 626 b 599 393 526 626 601 536 b 408 158 597 249 522 158 b 214 393 290 158 214 249 z "},"ğ":{"ha":847,"x_min":0,"x_max":0,"o":"m 385 38 b 594 160 476 38 558 86 l 594 53 b 404 -103 594 -50 524 -103 b 235 -3 321 -103 261 -65 l 83 -12 b 403 -225 119 -142 242 -225 b 743 78 603 -225 743 -117 l 743 736 l 600 736 l 600 621 b 383 753 565 703 482 753 b 61 392 193 753 61 606 b 385 38 61 182 194 38 z m 204 1028 b 408 844 204 925 294 844 b 613 1028 522 844 613 925 l 510 1028 b 408 938 510 976 465 938 b 307 1028 351 938 307 976 z m 214 393 b 408 626 214 536 289 626 b 599 393 526 626 601 536 b 408 158 597 249 522 158 b 214 393 290 158 214 249 z "},"ǧ":{"ha":847,"x_min":0,"x_max":0,"o":"m 385 38 b 594 160 476 38 558 86 l 594 53 b 404 -103 594 -50 524 -103 b 235 -3 321 -103 261 -65 l 83 -12 b 403 -225 119 -142 242 -225 b 743 78 603 -225 743 -117 l 743 736 l 600 736 l 600 621 b 383 753 565 703 482 753 b 61 392 193 753 61 606 b 385 38 61 182 194 38 z m 201 1013 l 321 846 l 492 846 l 613 1013 l 492 1013 l 407 894 l 322 1013 z m 214 393 b 408 626 214 536 289 626 b 599 393 526 626 601 536 b 408 158 597 249 522 158 b 214 393 290 158 214 249 z "},"ĝ":{"ha":847,"x_min":0,"x_max":0,"o":"m 385 38 b 594 160 476 38 558 86 l 594 53 b 404 -103 594 -50 524 -103 b 235 -3 321 -103 261 -65 l 83 -12 b 403 -225 119 -142 242 -225 b 743 78 603 -225 743 -117 l 743 736 l 600 736 l 600 621 b 383 753 565 703 482 753 b 61 392 193 753 61 606 b 385 38 61 182 194 38 z m 203 846 l 324 846 l 408 964 l 493 846 l 614 846 l 493 1013 l 322 1013 z m 214 393 b 408 626 214 536 289 626 b 599 393 526 626 601 536 b 408 158 597 249 522 158 b 214 393 290 158 214 249 z "},"ģ":{"ha":847,"x_min":0,"x_max":0,"o":"m 385 38 b 594 160 476 38 558 86 l 594 53 b 404 -103 594 -50 524 -103 b 235 -3 321 -103 261 -65 l 83 -12 b 403 -225 119 -142 242 -225 b 743 78 603 -225 743 -117 l 743 736 l 600 736 l 600 621 b 383 753 565 703 482 753 b 61 392 193 753 61 606 b 385 38 61 182 194 38 z m 214 393 b 408 626 214 536 289 626 b 599 393 526 626 601 536 b 408 158 597 249 522 158 b 214 393 290 158 214 249 z m 325 1025 l 326 1025 l 326 856 l 500 856 l 500 1025 l 436 1025 l 493 1240 l 410 1240 z "},"ġ":{"ha":847,"x_min":0,"x_max":0,"o":"m 385 38 b 594 160 476 38 558 86 l 594 53 b 404 -103 594 -50 524 -103 b 235 -3 321 -103 261 -65 l 83 -12 b 403 -225 119 -142 242 -225 b 743 78 603 -225 743 -117 l 743 736 l 600 736 l 600 621 b 383 753 565 703 482 753 b 61 392 193 753 61 606 b 385 38 61 182 194 38 z m 214 393 b 408 626 214 536 289 626 b 599 393 526 626 601 536 b 408 158 597 249 522 158 b 214 393 290 158 214 249 z m 331 844 l 485 844 l 485 985 l 331 985 z "},"ḡ":{"ha":847,"x_min":0,"x_max":0,"o":"m 385 38 b 594 160 476 38 558 86 l 594 53 b 404 -103 594 -50 524 -103 b 235 -3 321 -103 261 -65 l 83 -12 b 403 -225 119 -142 242 -225 b 743 78 603 -225 743 -117 l 743 736 l 600 736 l 600 621 b 383 753 565 703 482 753 b 61 392 193 753 61 606 b 385 38 61 182 194 38 z m 214 393 b 408 626 214 536 289 626 b 599 393 526 626 601 536 b 408 158 597 249 522 158 b 214 393 290 158 214 249 z m 222 864 l 593 864 l 593 967 l 222 967 z "},"ǥ":{"ha":896,"x_min":0,"x_max":0,"o":"m 385 38 b 594 160 476 38 558 86 l 594 53 b 404 -103 594 -50 524 -103 b 235 -3 321 -103 261 -65 l 83 -12 b 403 -225 119 -142 242 -225 b 743 78 603 -225 743 -117 l 743 319 l 819 319 l 819 426 l 743 426 l 743 736 l 600 736 l 600 621 b 383 753 565 703 482 753 b 61 392 193 753 61 606 b 385 38 61 182 194 38 z m 214 393 b 408 626 214 536 289 626 b 597 426 517 626 589 550 l 346 426 l 346 319 l 590 319 b 408 158 568 218 501 158 b 214 393 290 158 214 249 z "},"h":{"ha":821,"x_min":0,"x_max":0,"o":"m 104 986 l 104 0 l 251 0 l 251 421 b 426 622 251 551 319 622 b 569 421 525 622 569 554 l 569 0 l 717 0 l 717 474 b 468 753 717 643 621 753 b 251 636 378 753 294 718 l 251 986 z "},"ħ":{"ha":858,"x_min":0,"x_max":0,"o":"m 156 986 l 156 914 l 76 914 l 76 807 l 156 807 l 156 0 l 303 0 l 303 421 b 478 622 303 551 371 622 b 621 421 576 622 621 554 l 621 0 l 768 0 l 768 474 b 519 753 768 643 672 753 b 303 636 429 753 346 718 l 303 807 l 461 807 l 461 914 l 303 914 l 303 986 z "},"ĥ":{"ha":821,"x_min":0,"x_max":0,"o":"m 104 986 l 104 0 l 251 0 l 251 421 b 426 622 251 551 319 622 b 569 421 525 622 569 554 l 569 0 l 717 0 l 717 474 b 468 753 717 643 621 753 b 251 636 378 753 294 718 l 251 986 z m -26 1096 l 94 1096 l 179 1214 l 264 1096 l 385 1096 l 264 1263 l 93 1263 z "},"i":{"ha":357,"x_min":0,"x_max":0,"o":"m 104 736 l 104 0 l 251 0 l 251 736 z m 101 844 l 256 844 l 256 985 l 101 985 z "},"ı":{"ha":357,"x_min":0,"x_max":0,"o":"m 104 736 l 104 0 l 251 0 l 251 736 z "},"í":{"ha":357,"x_min":0,"x_max":0,"o":"m 104 736 l 104 0 l 251 0 l 251 736 z m 122 846 l 226 846 l 351 1026 l 210 1026 z "},"î":{"ha":357,"x_min":0,"x_max":0,"o":"m 104 736 l 104 0 l 251 0 l 251 736 z m -26 846 l 94 846 l 179 964 l 264 846 l 385 846 l 264 1013 l 93 1013 z "},"ï":{"ha":357,"x_min":0,"x_max":0,"o":"m 104 736 l 104 0 l 251 0 l 251 736 z m -17 844 l 138 844 l 138 985 l -17 985 z m 222 844 l 376 844 l 376 985 l 222 985 z "},"ì":{"ha":357,"x_min":0,"x_max":0,"o":"m 104 736 l 104 0 l 251 0 l 251 736 z m 1 1026 l 128 846 l 232 846 l 144 1026 z "},"ĳ":{"ha":736,"x_min":0,"x_max":0,"o":"m 104 736 l 104 0 l 251 0 l 251 736 z m 101 844 l 256 844 l 256 985 l 101 985 z m 336 -208 l 425 -208 b 632 10 564 -208 632 -128 l 632 736 l 483 736 l 483 10 b 403 -87 483 -50 453 -87 l 336 -87 z m 481 844 l 635 844 l 635 985 l 481 985 z "},"ī":{"ha":357,"x_min":0,"x_max":0,"o":"m 104 736 l 104 0 l 251 0 l 251 736 z m -8 864 l 363 864 l 363 967 l -8 967 z "},"į":{"ha":357,"x_min":0,"x_max":0,"o":"m 104 736 l 104 0 l 164 0 l 114 -54 b 60 -181 76 -93 60 -136 b 185 -300 60 -249 117 -299 b 301 -261 224 -300 264 -289 l 301 -165 b 215 -194 271 -179 239 -194 b 169 -147 188 -194 169 -174 b 213 -57 169 -119 192 -85 l 253 0 l 251 0 l 251 736 z m 101 844 l 256 844 l 256 985 l 101 985 z "},"ĩ":{"ha":357,"x_min":0,"x_max":0,"o":"m 104 736 l 104 0 l 251 0 l 251 736 z m -58 844 l 40 844 b 93 935 40 906 57 935 b 163 890 124 935 139 913 b 272 843 186 865 217 843 b 414 1032 358 843 414 917 l 317 1032 b 265 942 317 971 300 942 b 186 993 231 942 214 968 b 85 1032 161 1018 132 1032 b -58 844 -3 1032 -58 961 z "},"j":{"ha":394,"x_min":0,"x_max":0,"o":"m 290 10 l 290 736 l 142 736 l 142 10 b 61 -87 142 -50 111 -87 l -6 -87 l -6 -208 l 83 -208 b 290 10 222 -208 290 -128 z m 139 844 l 293 844 l 293 985 l 139 985 z "},"ȷ":{"ha":394,"x_min":0,"x_max":0,"o":"m 290 10 l 290 736 l 142 736 l 142 10 b 61 -87 142 -50 111 -87 l -6 -87 l -6 -208 l 83 -208 b 290 10 222 -208 290 -128 z "},"ĵ":{"ha":394,"x_min":0,"x_max":0,"o":"m 290 10 l 290 736 l 142 736 l 142 10 b 61 -87 142 -50 111 -87 l -6 -87 l -6 -208 l 83 -208 b 290 10 222 -208 290 -128 z m 10 846 l 131 846 l 215 964 l 300 846 l 421 846 l 300 1013 l 129 1013 z "},"k":{"ha":846,"x_min":0,"x_max":0,"o":"m 104 986 l 104 0 l 251 0 l 251 194 l 381 335 l 610 0 l 781 0 l 479 428 l 768 736 l 578 736 l 251 372 l 251 986 z "},"ǩ":{"ha":846,"x_min":0,"x_max":0,"o":"m 104 986 l 104 0 l 251 0 l 251 194 l 381 335 l 610 0 l 781 0 l 479 428 l 768 736 l 578 736 l 251 372 l 251 986 z m -29 1263 l 90 1096 l 261 1096 l 382 1263 l 261 1263 l 176 1144 l 92 1263 z "},"ķ":{"ha":846,"x_min":0,"x_max":0,"o":"m 104 986 l 104 0 l 251 0 l 251 194 l 381 335 l 610 0 l 781 0 l 479 428 l 768 736 l 578 736 l 251 372 l 251 986 z m 285 -264 l 389 -264 l 514 -83 l 372 -83 z "},"l":{"ha":414,"x_min":0,"x_max":0,"o":"m 104 986 l 104 164 b 269 0 104 64 171 0 l 361 0 l 361 121 l 301 121 b 251 171 269 121 251 138 l 251 986 z "},"ĺ":{"ha":414,"x_min":0,"x_max":0,"o":"m 104 986 l 104 164 b 269 0 104 64 171 0 l 361 0 l 361 121 l 301 121 b 251 171 269 121 251 138 l 251 986 z m 122 1096 l 226 1096 l 351 1276 l 210 1276 z "},"ľ":{"ha":546,"x_min":0,"x_max":0,"o":"m 104 986 l 104 164 b 269 0 104 64 171 0 l 361 0 l 361 121 l 301 121 b 251 171 269 121 251 138 l 251 986 z m 318 818 l 382 818 l 325 603 l 408 603 l 493 818 l 492 818 l 492 988 l 318 988 z "},"ļ":{"ha":414,"x_min":0,"x_max":0,"o":"m 104 986 l 104 164 b 269 0 104 64 171 0 l 361 0 l 361 121 l 301 121 b 251 171 269 121 251 138 l 251 986 z m 99 -264 l 203 -264 l 328 -83 l 186 -83 z "},"ł":{"ha":542,"x_min":0,"x_max":0,"o":"m 210 986 l 210 565 l 104 521 l 147 422 l 210 449 l 210 164 b 375 0 210 64 276 0 l 467 0 l 467 121 l 407 121 b 357 171 375 121 357 138 l 357 510 l 490 565 l 449 664 l 357 626 l 357 986 z "},"m":{"ha":1229,"x_min":0,"x_max":0,"o":"m 104 736 l 104 0 l 251 0 l 251 428 b 415 629 251 556 311 629 b 544 428 497 629 544 556 l 544 0 l 683 0 l 683 428 b 847 629 683 556 742 629 b 976 428 931 629 976 558 l 976 0 l 1124 0 l 1124 474 b 886 753 1124 653 1035 753 b 665 600 775 753 699 699 b 451 753 633 697 557 753 b 242 615 353 753 278 703 l 239 736 z "},"n":{"ha":821,"x_min":0,"x_max":0,"o":"m 104 736 l 104 0 l 251 0 l 251 428 b 426 629 251 558 319 629 b 569 428 529 629 569 558 l 569 0 l 717 0 l 717 474 b 467 753 717 635 632 753 b 243 613 367 753 281 711 l 239 736 z "},"ń":{"ha":821,"x_min":0,"x_max":0,"o":"m 104 736 l 104 0 l 251 0 l 251 428 b 426 629 251 558 319 629 b 569 428 529 629 569 558 l 569 0 l 717 0 l 717 474 b 467 753 717 635 632 753 b 243 613 367 753 281 711 l 239 736 z m 354 846 l 458 846 l 583 1026 l 442 1026 z "},"ň":{"ha":821,"x_min":0,"x_max":0,"o":"m 104 736 l 104 0 l 251 0 l 251 428 b 426 629 251 558 319 629 b 569 428 529 629 569 558 l 569 0 l 717 0 l 717 474 b 467 753 717 635 632 753 b 243 613 367 753 281 711 l 239 736 z m 203 1013 l 322 846 l 493 846 l 614 1013 l 493 1013 l 408 894 l 324 1013 z "},"ņ":{"ha":821,"x_min":0,"x_max":0,"o":"m 104 736 l 104 0 l 251 0 l 251 428 b 426 629 251 558 319 629 b 569 428 529 629 569 558 l 569 0 l 717 0 l 717 474 b 467 753 717 635 632 753 b 243 613 367 753 281 711 l 239 736 z m 271 -264 l 375 -264 l 500 -83 l 358 -83 z "},"ñ":{"ha":821,"x_min":0,"x_max":0,"o":"m 104 736 l 104 0 l 251 0 l 251 428 b 426 629 251 558 319 629 b 569 428 529 629 569 558 l 569 0 l 717 0 l 717 474 b 467 753 717 635 632 753 b 243 613 367 753 281 711 l 239 736 z m 174 844 l 272 844 b 325 935 272 906 289 935 b 394 890 356 935 371 913 b 504 843 418 865 449 843 b 646 1032 590 843 646 917 l 549 1032 b 497 942 549 971 532 942 b 418 993 463 942 446 968 b 317 1032 393 1018 364 1032 b 174 844 229 1032 174 961 z "},"ŋ":{"ha":821,"x_min":0,"x_max":0,"o":"m 104 736 l 104 0 l 251 0 l 251 428 b 426 629 251 558 319 629 b 569 428 529 629 569 558 l 569 -10 b 482 -99 569 -64 536 -99 l 378 -99 l 378 -214 l 499 -214 b 717 -8 632 -214 717 -133 l 717 474 b 467 753 717 635 632 753 b 243 613 367 753 281 711 l 239 736 z "},"o":{"ha":824,"x_min":0,"x_max":0,"o":"m 413 -17 b 763 368 624 -17 763 133 b 413 753 763 603 624 753 b 61 368 200 753 61 603 b 413 -17 61 133 200 -17 z m 214 368 b 413 625 214 529 288 625 b 610 368 538 625 610 529 b 413 111 610 207 538 111 b 214 368 288 111 214 207 z "},"ó":{"ha":824,"x_min":0,"x_max":0,"o":"m 413 -17 b 763 368 624 -17 763 133 b 413 753 763 603 624 753 b 61 368 200 753 61 603 b 413 -17 61 133 200 -17 z m 214 368 b 413 625 214 529 288 625 b 610 368 538 625 610 529 b 413 111 610 207 538 111 b 214 368 288 111 214 207 z m 356 846 l 460 846 l 585 1026 l 443 1026 z "},"ô":{"ha":824,"x_min":0,"x_max":0,"o":"m 413 -17 b 763 368 624 -17 763 133 b 413 753 763 603 624 753 b 61 368 200 753 61 603 b 413 -17 61 133 200 -17 z m 207 846 l 328 846 l 413 964 l 497 846 l 618 846 l 497 1013 l 326 1013 z m 214 368 b 413 625 214 529 288 625 b 610 368 538 625 610 529 b 413 111 610 207 538 111 b 214 368 288 111 214 207 z "},"ö":{"ha":824,"x_min":0,"x_max":0,"o":"m 413 -17 b 763 368 624 -17 763 133 b 413 753 763 603 624 753 b 61 368 200 753 61 603 b 413 -17 61 133 200 -17 z m 214 368 b 413 625 214 529 288 625 b 610 368 538 625 610 529 b 413 111 610 207 538 111 b 214 368 288 111 214 207 z m 218 844 l 372 844 l 372 985 l 218 985 z m 456 844 l 610 844 l 610 985 l 456 985 z "},"ò":{"ha":824,"x_min":0,"x_max":0,"o":"m 413 -17 b 763 368 624 -17 763 133 b 413 753 763 603 624 753 b 61 368 200 753 61 603 b 413 -17 61 133 200 -17 z m 214 368 b 413 625 214 529 288 625 b 610 368 538 625 610 529 b 413 111 610 207 538 111 b 214 368 288 111 214 207 z m 235 1026 l 361 846 l 465 846 l 378 1026 z "},"ő":{"ha":824,"x_min":0,"x_max":0,"o":"m 413 -17 b 763 368 624 -17 763 133 b 413 753 763 603 624 753 b 61 368 200 753 61 603 b 413 -17 61 133 200 -17 z m 214 368 b 413 625 214 529 288 625 b 610 368 538 625 610 529 b 413 111 610 207 538 111 b 214 368 288 111 214 207 z m 276 846 l 381 846 l 506 1026 l 364 1026 z m 458 846 l 563 846 l 688 1026 l 546 1026 z "},"ō":{"ha":824,"x_min":0,"x_max":0,"o":"m 413 -17 b 763 368 624 -17 763 133 b 413 753 763 603 624 753 b 61 368 200 753 61 603 b 413 -17 61 133 200 -17 z m 214 368 b 413 625 214 529 288 625 b 610 368 538 625 610 529 b 413 111 610 207 538 111 b 214 368 288 111 214 207 z m 226 864 l 597 864 l 597 967 l 226 967 z "},"ø":{"ha":803,"x_min":0,"x_max":0,"o":"m 413 -17 b 763 368 624 -17 763 133 b 686 625 763 472 735 560 l 792 753 l 664 753 l 615 693 b 413 753 560 732 492 753 b 61 368 200 753 61 603 b 135 114 61 265 88 179 l 26 -17 l 154 -17 l 206 44 b 413 -17 261 6 332 -17 z m 214 368 b 413 625 214 529 288 625 b 528 588 458 625 497 613 l 235 236 b 214 368 221 272 214 317 z m 293 151 l 586 506 b 610 368 601 468 610 421 b 413 111 610 207 538 111 b 293 151 365 111 325 125 z "},"õ":{"ha":824,"x_min":0,"x_max":0,"o":"m 413 -17 b 763 368 624 -17 763 133 b 413 753 763 603 624 753 b 61 368 200 753 61 603 b 413 -17 61 133 200 -17 z m 175 844 l 274 844 b 326 935 274 906 290 935 b 396 890 357 935 372 913 b 506 843 419 865 450 843 b 647 1032 592 843 647 917 l 550 1032 b 499 942 550 971 533 942 b 419 993 464 942 447 968 b 318 1032 394 1018 365 1032 b 175 844 231 1032 175 961 z m 214 368 b 413 625 214 529 288 625 b 610 368 538 625 610 529 b 413 111 610 207 538 111 b 214 368 288 111 214 207 z "},"œ":{"ha":1358,"x_min":0,"x_max":0,"o":"m 413 -17 b 688 113 531 -17 626 31 b 964 -17 749 31 844 -17 b 1286 211 1114 -17 1243 71 l 1132 222 b 964 108 1103 151 1036 108 b 768 326 849 108 778 189 l 1297 326 l 1296 374 b 964 753 1289 635 1140 753 b 688 624 844 753 749 706 b 413 753 626 706 531 753 b 61 368 200 753 61 603 b 413 -17 61 133 200 -17 z m 214 368 b 413 625 214 529 288 625 b 610 368 538 625 610 529 b 413 111 610 207 538 111 b 214 368 288 111 214 207 z m 771 436 b 964 628 788 557 857 628 b 1142 436 1047 628 1125 576 z "},"p":{"ha":849,"x_min":0,"x_max":0,"o":"m 104 -208 l 251 -208 l 251 103 b 469 -17 293 25 369 -17 b 786 368 685 -17 786 161 b 469 753 786 575 685 753 b 246 626 364 753 286 708 l 242 736 l 104 736 z m 239 368 b 435 626 239 500 299 626 b 632 368 572 626 632 501 b 435 110 632 233 574 110 b 239 368 299 110 239 236 z "},"þ":{"ha":843,"x_min":0,"x_max":0,"o":"m 104 986 l 104 -208 l 254 -208 l 254 81 b 465 -17 297 19 368 -17 b 782 368 678 -17 782 161 b 465 753 782 575 678 753 b 254 653 365 753 294 717 l 254 986 z m 242 368 b 435 625 242 501 299 625 b 629 368 574 625 629 504 b 435 115 629 236 574 115 b 242 368 299 115 242 239 z "},"q":{"ha":849,"x_min":0,"x_max":0,"o":"m 744 -208 l 744 736 l 607 736 l 603 626 b 379 753 563 708 485 753 b 63 368 164 753 63 575 b 379 -17 63 161 164 -17 b 597 103 479 -17 556 25 l 597 -208 z m 217 368 b 414 626 217 501 276 626 b 610 368 550 626 610 500 b 414 110 610 236 550 110 b 217 368 275 110 217 233 z "},"r":{"ha":551,"x_min":0,"x_max":0,"o":"m 104 736 l 104 0 l 251 0 l 251 429 b 418 615 251 551 303 615 l 490 615 l 490 736 l 419 736 b 243 597 325 736 269 692 l 239 736 z "},"ŕ":{"ha":551,"x_min":0,"x_max":0,"o":"m 104 736 l 104 0 l 251 0 l 251 429 b 418 615 251 551 303 615 l 490 615 l 490 736 l 419 736 b 243 597 325 736 269 692 l 239 736 z m 233 846 l 338 846 l 463 1026 l 321 1026 z "},"ř":{"ha":551,"x_min":0,"x_max":0,"o":"m 104 736 l 104 0 l 251 0 l 251 429 b 418 615 251 551 303 615 l 490 615 l 490 736 l 419 736 b 243 597 325 736 269 692 l 239 736 z m 82 1013 l 201 846 l 372 846 l 493 1013 l 372 1013 l 288 894 l 203 1013 z "},"ŗ":{"ha":551,"x_min":0,"x_max":0,"o":"m 104 736 l 104 0 l 251 0 l 251 429 b 418 615 251 551 303 615 l 490 615 l 490 736 l 419 736 b 243 597 325 736 269 692 l 239 736 z m 39 -264 l 143 -264 l 268 -83 l 126 -83 z "},"s":{"ha":757,"x_min":0,"x_max":0,"o":"m 533 504 l 685 513 b 379 753 661 660 539 753 b 79 522 196 753 79 665 b 369 306 79 382 213 339 b 543 199 449 288 542 278 b 393 106 543 129 460 106 b 213 242 292 106 228 158 l 61 232 b 394 -17 72 78 207 -17 b 696 192 551 -17 696 47 b 396 418 696 336 579 385 b 232 526 318 433 233 460 b 368 631 232 592 293 631 b 533 504 444 631 518 583 z "},"ś":{"ha":758,"x_min":0,"x_max":0,"o":"m 533 504 l 685 513 b 379 753 661 660 539 753 b 79 522 196 753 79 665 b 369 306 79 382 213 339 b 543 199 449 288 542 278 b 393 106 543 129 460 106 b 213 242 292 106 228 158 l 61 232 b 394 -17 72 78 207 -17 b 696 192 551 -17 696 47 b 396 418 696 336 579 385 b 232 526 318 433 233 460 b 368 631 232 592 293 631 b 533 504 444 631 518 583 z m 324 846 l 428 846 l 553 1026 l 411 1026 z "},"ꞌ":{"ha":264,"x_min":0,"x_max":0,"o":"m 64 986 l 64 793 l 83 519 l 181 519 l 199 793 l 199 986 z "},"š":{"ha":758,"x_min":0,"x_max":0,"o":"m 533 504 l 685 513 b 379 753 661 660 539 753 b 79 522 196 753 79 665 b 369 306 79 382 213 339 b 543 199 449 288 542 278 b 393 106 543 129 460 106 b 213 242 292 106 228 158 l 61 232 b 394 -17 72 78 207 -17 b 696 192 551 -17 696 47 b 396 418 696 336 579 385 b 232 526 318 433 233 460 b 368 631 232 592 293 631 b 533 504 444 631 518 583 z m 172 1013 l 292 846 l 463 846 l 583 1013 l 463 1013 l 378 894 l 293 1013 z "},"ş":{"ha":758,"x_min":0,"x_max":0,"o":"m 533 504 l 685 513 b 379 753 661 660 539 753 b 79 522 196 753 79 665 b 369 306 79 382 213 339 b 543 199 449 288 542 278 b 393 106 543 129 460 106 b 213 242 292 106 228 158 l 61 232 b 335 -14 71 94 179 4 l 288 -65 l 329 -119 b 431 -168 385 -106 431 -125 b 369 -225 431 -203 407 -225 b 269 -156 322 -225 290 -181 l 204 -215 b 376 -312 260 -281 308 -312 b 518 -178 453 -312 518 -254 b 383 -49 518 -103 460 -49 l 413 -17 b 696 192 563 -11 696 53 b 396 418 696 336 579 385 b 232 526 318 433 233 460 b 368 631 232 592 293 631 b 533 504 444 631 518 583 z "},"ŝ":{"ha":758,"x_min":0,"x_max":0,"o":"m 533 504 l 685 513 b 379 753 661 660 539 753 b 79 522 196 753 79 665 b 369 306 79 382 213 339 b 543 199 449 288 542 278 b 393 106 543 129 460 106 b 213 242 292 106 228 158 l 61 232 b 394 -17 72 78 207 -17 b 696 192 551 -17 696 47 b 396 418 696 336 579 385 b 232 526 318 433 233 460 b 368 631 232 592 293 631 b 533 504 444 631 518 583 z m 175 846 l 296 846 l 381 964 l 465 846 l 586 846 l 465 1013 l 294 1013 z "},"ș":{"ha":758,"x_min":0,"x_max":0,"o":"m 533 504 l 685 513 b 379 753 661 660 539 753 b 79 522 196 753 79 665 b 369 306 79 382 213 339 b 543 199 449 288 542 278 b 393 106 543 129 460 106 b 213 242 292 106 228 158 l 61 232 b 394 -17 72 78 207 -17 b 696 192 551 -17 696 47 b 396 418 696 336 579 385 b 232 526 318 433 233 460 b 368 631 232 592 293 631 b 533 504 444 631 518 583 z m 244 -264 l 349 -264 l 474 -83 l 332 -83 z "},"ß":{"ha":851,"x_min":0,"x_max":0,"o":"m 433 132 b 643 290 543 132 643 183 b 421 457 643 407 543 458 l 358 456 l 358 588 l 417 586 b 585 742 524 583 585 654 b 426 871 585 813 515 871 b 251 679 324 871 251 806 l 251 0 l 104 0 l 104 679 b 426 1003 104 886 236 1003 b 735 746 608 1003 735 901 b 578 531 735 646 679 563 b 796 275 707 500 796 407 b 433 0 796 85 617 0 l 344 0 l 344 132 z "},"t":{"ha":572,"x_min":0,"x_max":0,"o":"m 182 903 l 182 736 l 69 736 l 69 617 l 182 617 l 182 211 b 400 0 182 74 258 0 l 522 0 l 522 121 l 415 121 b 329 211 358 121 329 151 l 329 617 l 524 617 l 524 736 l 329 736 l 329 903 z "},"ŧ":{"ha":572,"x_min":0,"x_max":0,"o":"m 182 903 l 182 736 l 69 736 l 69 617 l 182 617 l 182 442 l 69 442 l 69 335 l 182 335 l 182 211 b 400 0 182 74 258 0 l 522 0 l 522 121 l 415 121 b 329 211 358 121 329 151 l 329 335 l 524 335 l 524 442 l 329 442 l 329 617 l 524 617 l 524 736 l 329 736 l 329 903 z "},"ť":{"ha":588,"x_min":0,"x_max":0,"o":"m 182 903 l 182 736 l 69 736 l 69 617 l 182 617 l 182 211 b 400 0 182 74 258 0 l 522 0 l 522 121 l 415 121 b 329 211 358 121 329 151 l 329 617 l 524 617 l 524 736 l 329 736 l 329 903 z m 379 922 l 443 922 l 386 794 l 469 794 l 553 922 l 553 1092 l 379 1092 z "},"ţ":{"ha":574,"x_min":0,"x_max":0,"o":"m 182 903 l 182 736 l 69 736 l 69 617 l 182 617 l 182 211 b 308 13 182 107 226 39 l 238 -65 l 279 -119 b 381 -168 335 -106 381 -125 b 319 -225 381 -203 357 -225 b 219 -156 272 -225 240 -181 l 154 -215 b 326 -312 210 -281 258 -312 b 468 -178 403 -312 468 -254 b 333 -49 468 -103 410 -49 l 378 0 l 400 0 l 522 0 l 522 121 l 415 121 b 329 211 358 121 329 151 l 329 617 l 524 617 l 524 736 l 329 736 l 329 903 z "},"ț":{"ha":574,"x_min":0,"x_max":0,"o":"m 182 903 l 182 736 l 69 736 l 69 617 l 182 617 l 182 211 b 400 0 182 74 258 0 l 522 0 l 522 121 l 415 121 b 329 211 358 121 329 151 l 329 617 l 524 617 l 524 736 l 329 736 l 329 903 z m 196 -264 l 300 -264 l 425 -83 l 283 -83 z "},"u":{"ha":814,"x_min":0,"x_max":0,"o":"m 710 0 l 710 736 l 563 736 l 563 308 b 390 107 563 178 496 107 b 251 308 290 107 251 178 l 251 736 l 104 736 l 104 263 b 351 -17 104 101 189 -17 b 571 121 447 -17 531 24 l 572 0 z "},"ú":{"ha":814,"x_min":0,"x_max":0,"o":"m 710 0 l 710 736 l 563 736 l 563 308 b 390 107 563 178 496 107 b 251 308 290 107 251 178 l 251 736 l 104 736 l 104 263 b 351 -17 104 101 189 -17 b 571 121 447 -17 531 24 l 572 0 z m 346 846 l 450 846 l 575 1026 l 433 1026 z "},"ŭ":{"ha":814,"x_min":0,"x_max":0,"o":"m 710 0 l 710 736 l 563 736 l 563 308 b 390 107 563 178 496 107 b 251 308 290 107 251 178 l 251 736 l 104 736 l 104 263 b 351 -17 104 101 189 -17 b 571 121 447 -17 531 24 l 572 0 z m 197 1028 b 401 844 197 925 288 844 b 606 1028 515 844 606 925 l 503 1028 b 401 938 503 976 458 938 b 300 1028 344 938 300 976 z "},"û":{"ha":814,"x_min":0,"x_max":0,"o":"m 710 0 l 710 736 l 563 736 l 563 308 b 390 107 563 178 496 107 b 251 308 290 107 251 178 l 251 736 l 104 736 l 104 263 b 351 -17 104 101 189 -17 b 571 121 447 -17 531 24 l 572 0 z m 196 846 l 317 846 l 401 964 l 486 846 l 607 846 l 486 1013 l 315 1013 z "},"ü":{"ha":814,"x_min":0,"x_max":0,"o":"m 710 0 l 710 736 l 563 736 l 563 308 b 390 107 563 178 496 107 b 251 308 290 107 251 178 l 251 736 l 104 736 l 104 263 b 351 -17 104 101 189 -17 b 571 121 447 -17 531 24 l 572 0 z m 208 844 l 363 844 l 363 985 l 208 985 z m 446 844 l 600 844 l 600 985 l 446 985 z "},"ù":{"ha":814,"x_min":0,"x_max":0,"o":"m 710 0 l 710 736 l 563 736 l 563 308 b 390 107 563 178 496 107 b 251 308 290 107 251 178 l 251 736 l 104 736 l 104 263 b 351 -17 104 101 189 -17 b 571 121 447 -17 531 24 l 572 0 z m 226 1026 l 353 846 l 457 846 l 369 1026 z "},"ű":{"ha":814,"x_min":0,"x_max":0,"o":"m 710 0 l 710 736 l 563 736 l 563 308 b 390 107 563 178 496 107 b 251 308 290 107 251 178 l 251 736 l 104 736 l 104 263 b 351 -17 104 101 189 -17 b 571 121 447 -17 531 24 l 572 0 z m 267 846 l 371 846 l 496 1026 l 354 1026 z m 449 846 l 553 846 l 678 1026 l 536 1026 z "},"ū":{"ha":814,"x_min":0,"x_max":0,"o":"m 710 0 l 710 736 l 563 736 l 563 308 b 390 107 563 178 496 107 b 251 308 290 107 251 178 l 251 736 l 104 736 l 104 263 b 351 -17 104 101 189 -17 b 571 121 447 -17 531 24 l 572 0 z m 217 864 l 588 864 l 588 967 l 217 967 z "},"ų":{"ha":814,"x_min":0,"x_max":0,"o":"m 710 0 l 710 736 l 563 736 l 563 308 b 390 107 563 178 496 107 b 251 308 290 107 251 178 l 251 736 l 104 736 l 104 263 b 351 -17 104 101 189 -17 b 571 121 447 -17 531 24 l 572 0 l 622 0 l 572 -54 b 518 -181 535 -93 518 -136 b 643 -300 518 -249 575 -299 b 760 -261 682 -300 722 -289 l 760 -165 b 674 -194 729 -179 697 -194 b 628 -147 646 -194 628 -174 b 671 -57 628 -119 650 -85 l 711 0 z "},"ů":{"ha":814,"x_min":0,"x_max":0,"o":"m 710 0 l 710 736 l 563 736 l 563 308 b 390 107 563 178 496 107 b 251 308 290 107 251 178 l 251 736 l 104 736 l 104 263 b 351 -17 104 101 189 -17 b 571 121 447 -17 531 24 l 572 0 z m 268 944 b 401 813 268 868 329 813 b 535 944 475 813 535 868 b 401 1078 535 1017 475 1078 b 268 944 329 1078 268 1017 z m 350 946 b 401 996 350 971 374 996 b 453 946 429 996 453 971 b 401 894 453 918 429 894 b 350 946 374 894 350 918 z "},"ũ":{"ha":814,"x_min":0,"x_max":0,"o":"m 710 0 l 710 736 l 563 736 l 563 308 b 390 107 563 178 496 107 b 251 308 290 107 251 178 l 251 736 l 104 736 l 104 263 b 351 -17 104 101 189 -17 b 571 121 447 -17 531 24 l 572 0 z m 165 844 l 264 844 b 317 935 264 906 281 935 b 386 890 347 935 363 913 b 496 843 410 865 440 843 b 638 1032 582 843 638 917 l 540 1032 b 489 942 540 971 524 942 b 410 993 454 942 438 968 b 308 1032 385 1018 356 1032 b 165 844 221 1032 165 961 z "},"v":{"ha":779,"x_min":0,"x_max":0,"o":"m 749 736 l 593 736 l 389 151 l 185 736 l 31 736 l 300 0 l 479 0 z "},"w":{"ha":1151,"x_min":0,"x_max":0,"o":"m 644 736 l 506 736 l 342 167 l 179 736 l 31 736 l 257 0 l 421 0 l 575 528 l 731 0 l 894 0 l 1122 736 l 972 736 l 808 167 z "},"ẃ":{"ha":1151,"x_min":0,"x_max":0,"o":"m 644 736 l 506 736 l 342 167 l 179 736 l 31 736 l 257 0 l 421 0 l 575 528 l 731 0 l 894 0 l 1122 736 l 972 736 l 808 167 z m 521 846 l 625 846 l 750 1026 l 608 1026 z "},"ŵ":{"ha":1151,"x_min":0,"x_max":0,"o":"m 644 736 l 506 736 l 342 167 l 179 736 l 31 736 l 257 0 l 421 0 l 575 528 l 731 0 l 894 0 l 1122 736 l 972 736 l 808 167 z m 372 846 l 493 846 l 578 964 l 663 846 l 783 846 l 663 1013 l 492 1013 z "},"ẅ":{"ha":1151,"x_min":0,"x_max":0,"o":"m 644 736 l 506 736 l 342 167 l 179 736 l 31 736 l 257 0 l 421 0 l 575 528 l 731 0 l 894 0 l 1122 736 l 972 736 l 808 167 z m 382 844 l 536 844 l 536 985 l 382 985 z m 621 844 l 775 844 l 775 985 l 621 985 z "},"ẁ":{"ha":1151,"x_min":0,"x_max":0,"o":"m 644 736 l 506 736 l 342 167 l 179 736 l 31 736 l 257 0 l 421 0 l 575 528 l 731 0 l 894 0 l 1122 736 l 972 736 l 808 167 z m 400 1026 l 526 846 l 631 846 l 543 1026 z "},"x":{"ha":843,"x_min":0,"x_max":0,"o":"m 596 736 l 422 481 l 249 736 l 78 736 l 333 376 l 65 0 l 236 0 l 422 271 l 607 0 l 778 0 l 511 375 l 767 736 z "},"y":{"ha":768,"x_min":0,"x_max":0,"o":"m 31 736 l 299 22 l 343 22 l 319 -39 b 246 -89 306 -75 285 -89 l 158 -89 l 158 -208 l 265 -208 b 443 -86 357 -208 414 -169 l 739 736 l 590 736 l 388 156 l 179 736 z "},"ý":{"ha":768,"x_min":0,"x_max":0,"o":"m 31 736 l 299 22 l 343 22 l 319 -39 b 246 -89 306 -75 285 -89 l 158 -89 l 158 -208 l 265 -208 b 443 -86 357 -208 414 -169 l 739 736 l 590 736 l 388 156 l 179 736 z m 329 846 l 433 846 l 558 1026 l 417 1026 z "},"ŷ":{"ha":768,"x_min":0,"x_max":0,"o":"m 31 736 l 299 22 l 343 22 l 319 -39 b 246 -89 306 -75 285 -89 l 158 -89 l 158 -208 l 265 -208 b 443 -86 357 -208 414 -169 l 739 736 l 590 736 l 388 156 l 179 736 z m 179 846 l 300 846 l 385 964 l 469 846 l 590 846 l 469 1013 l 299 1013 z "},"ÿ":{"ha":768,"x_min":0,"x_max":0,"o":"m 31 736 l 299 22 l 343 22 l 319 -39 b 246 -89 306 -75 285 -89 l 158 -89 l 158 -208 l 265 -208 b 443 -86 357 -208 414 -169 l 739 736 l 590 736 l 388 156 l 179 736 z m 190 844 l 344 844 l 344 985 l 190 985 z m 429 844 l 583 844 l 583 985 l 429 985 z "},"ỳ":{"ha":768,"x_min":0,"x_max":0,"o":"m 31 736 l 299 22 l 343 22 l 319 -39 b 246 -89 306 -75 285 -89 l 158 -89 l 158 -208 l 265 -208 b 443 -86 357 -208 414 -169 l 739 736 l 590 736 l 388 156 l 179 736 z m 208 1026 l 335 846 l 439 846 l 351 1026 z "},"ỹ":{"ha":768,"x_min":0,"x_max":0,"o":"m 31 736 l 299 22 l 343 22 l 319 -39 b 246 -89 306 -75 285 -89 l 158 -89 l 158 -208 l 265 -208 b 443 -86 357 -208 414 -169 l 739 736 l 590 736 l 388 156 l 179 736 z m 149 844 l 247 844 b 300 935 247 906 264 935 b 369 890 331 935 346 913 b 479 843 393 865 424 843 b 621 1032 565 843 621 917 l 524 1032 b 472 942 524 971 507 942 b 393 993 438 942 421 968 b 292 1032 368 1018 339 1032 b 149 844 204 1032 149 961 z "},"z":{"ha":783,"x_min":0,"x_max":0,"o":"m 694 596 l 694 736 l 96 736 l 96 615 l 528 615 l 79 139 l 79 0 l 706 0 l 706 121 l 244 121 z "},"ź":{"ha":785,"x_min":0,"x_max":0,"o":"m 694 596 l 694 736 l 96 736 l 96 615 l 528 615 l 79 139 l 79 0 l 706 0 l 706 121 l 244 121 z m 339 846 l 443 846 l 568 1026 l 426 1026 z "},"ž":{"ha":785,"x_min":0,"x_max":0,"o":"m 694 596 l 694 736 l 96 736 l 96 615 l 528 615 l 79 139 l 79 0 l 706 0 l 706 121 l 244 121 z m 188 1013 l 307 846 l 478 846 l 599 1013 l 478 1013 l 393 894 l 308 1013 z "},"ż":{"ha":785,"x_min":0,"x_max":0,"o":"m 694 596 l 694 736 l 96 736 l 96 615 l 528 615 l 79 139 l 79 0 l 706 0 l 706 121 l 244 121 z m 318 844 l 472 844 l 472 985 l 318 985 z "},"ª":{"ha":819,"x_min":0,"x_max":0,"o":"m 74 515 l 226 506 b 389 633 246 589 303 633 b 551 457 496 633 550 575 l 340 415 b 61 193 171 383 61 340 b 326 -17 61 63 178 -17 b 564 114 449 -17 531 43 b 728 0 571 10 661 -1 l 774 0 l 774 115 l 744 115 b 699 167 715 115 699 129 l 699 440 b 389 753 699 642 589 753 b 74 515 219 753 103 664 z m 214 196 b 397 317 214 289 296 299 l 554 344 l 554 335 b 358 97 554 176 468 99 b 214 196 261 97 214 142 z "},"º":{"ha":824,"x_min":0,"x_max":0,"o":"m 413 -17 b 763 368 624 -17 763 133 b 413 753 763 603 624 753 b 61 368 200 753 61 603 b 413 -17 61 133 200 -17 z m 214 368 b 413 625 214 529 288 625 b 610 368 538 625 610 529 b 413 111 610 207 538 111 b 214 368 288 111 214 207 z "},"А":{"ha":964,"x_min":0,"x_max":0,"o":"m 31 0 l 190 0 l 281 257 l 683 257 l 772 0 l 933 0 l 578 986 l 386 986 z m 328 393 l 482 843 l 636 393 z "},"Б":{"ha":926,"x_min":0,"x_max":0,"o":"m 119 0 l 488 0 b 846 303 713 0 846 114 b 488 611 846 496 713 611 l 269 611 l 269 849 l 800 849 l 800 986 l 119 986 z m 269 138 l 269 474 l 483 474 b 690 303 621 474 690 415 b 483 138 690 193 621 138 z "},"В":{"ha":954,"x_min":0,"x_max":0,"o":"m 119 0 l 521 0 b 874 279 749 0 874 99 b 649 510 874 410 792 494 b 832 713 764 525 832 600 b 465 986 832 897 710 986 l 119 986 z m 269 135 l 269 438 l 522 438 b 719 285 646 438 719 383 b 522 135 719 188 646 135 z m 269 565 l 269 851 l 471 851 b 678 707 607 851 678 803 b 471 565 678 615 603 565 z "},"Г":{"ha":835,"x_min":0,"x_max":0,"o":"m 119 986 l 119 0 l 269 0 l 269 849 l 800 849 l 800 986 z "},"Ѓ":{"ha":835,"x_min":0,"x_max":0,"o":"m 119 986 l 119 0 l 269 0 l 269 849 l 800 849 l 800 986 z m 404 1096 l 508 1096 l 633 1276 l 492 1276 z "},"Ґ":{"ha":750,"x_min":0,"x_max":0,"o":"m 119 986 l 119 0 l 269 0 l 269 849 l 715 849 l 715 1201 l 565 1201 l 565 986 z "},"Ғ":{"ha":908,"x_min":0,"x_max":0,"o":"m 193 986 l 193 524 l 92 524 l 92 388 l 193 388 l 193 0 l 343 0 l 343 388 l 672 388 l 672 524 l 343 524 l 343 849 l 874 849 l 874 986 z "},"Д":{"ha":1142,"x_min":0,"x_max":0,"o":"m 949 986 l 317 986 l 244 321 b 122 138 231 196 192 138 l 69 138 l 69 -208 l 219 -208 l 219 0 l 921 0 l 921 -208 l 1071 -208 l 1071 138 l 949 138 z m 340 138 b 396 307 369 178 386 233 l 454 849 l 799 849 l 799 138 z "},"Е":{"ha":846,"x_min":0,"x_max":0,"o":"m 119 986 l 119 0 l 772 0 l 772 138 l 269 138 l 269 428 l 744 428 l 744 561 l 269 561 l 269 849 l 761 849 l 761 986 z "},"Ѐ":{"ha":846,"x_min":0,"x_max":0,"o":"m 119 986 l 119 0 l 772 0 l 772 138 l 269 138 l 269 428 l 744 428 l 744 561 l 269 561 l 269 849 l 761 849 l 761 986 z m 267 1278 l 393 1097 l 497 1097 l 410 1278 z "},"Ё":{"ha":846,"x_min":0,"x_max":0,"o":"m 119 986 l 119 0 l 772 0 l 772 138 l 269 138 l 269 428 l 744 428 l 744 561 l 269 561 l 269 849 l 761 849 l 761 986 z m 247 1096 l 401 1096 l 401 1236 l 247 1236 z m 486 1096 l 640 1096 l 640 1236 l 486 1236 z "},"Ж":{"ha":1372,"x_min":0,"x_max":0,"o":"m 611 986 l 611 518 l 249 986 l 51 986 l 435 493 l 38 0 l 235 0 l 611 469 l 611 0 l 761 0 l 761 469 l 1138 0 l 1333 0 l 936 493 l 1319 986 l 1124 986 l 761 518 l 761 986 z "},"З":{"ha":924,"x_min":0,"x_max":0,"o":"m 479 586 l 378 588 l 378 460 l 479 461 b 700 289 589 463 700 410 b 463 115 700 182 608 115 b 222 274 325 115 231 176 l 68 265 b 463 -22 76 94 238 -22 b 856 271 694 -22 856 97 b 632 533 856 401 776 496 b 822 751 757 567 822 640 b 463 1008 822 904 675 1008 b 99 761 265 1008 118 907 l 254 751 b 461 871 265 825 343 871 b 665 742 588 871 665 822 b 479 586 665 626 567 585 z "},"И":{"ha":1029,"x_min":0,"x_max":0,"o":"m 910 986 l 721 986 l 269 199 l 269 986 l 119 986 l 119 0 l 315 0 l 760 771 l 760 0 l 910 0 z "},"Й":{"ha":1029,"x_min":0,"x_max":0,"o":"m 910 986 l 721 986 l 269 199 l 269 986 l 119 986 l 119 0 l 315 0 l 760 771 l 760 0 l 910 0 z m 310 1278 b 514 1094 310 1175 400 1094 b 718 1278 628 1094 718 1175 l 615 1278 b 514 1188 615 1226 571 1188 b 413 1278 457 1188 413 1226 z "},"К":{"ha":926,"x_min":0,"x_max":0,"o":"m 119 986 l 119 0 l 269 0 l 269 482 l 700 0 l 889 0 l 449 493 l 875 986 l 686 986 l 269 504 l 269 986 z "},"Ќ":{"ha":928,"x_min":0,"x_max":0,"o":"m 119 986 l 119 0 l 269 0 l 269 482 l 700 0 l 889 0 l 449 493 l 875 986 l 686 986 l 269 504 l 269 986 z m 421 1096 l 525 1096 l 650 1276 l 508 1276 z "},"Л":{"ha":1069,"x_min":0,"x_max":0,"o":"m 950 986 l 313 986 l 249 238 b 165 138 243 176 217 138 l 85 138 l 85 0 l 197 0 b 397 217 325 0 386 85 l 451 849 l 801 849 l 801 0 l 950 0 z "},"М":{"ha":1236,"x_min":0,"x_max":0,"o":"m 119 986 l 119 0 l 269 0 l 269 713 l 535 1 l 701 1 l 965 713 l 965 0 l 1117 0 l 1117 986 l 911 986 l 618 176 l 325 986 z "},"Н":{"ha":983,"x_min":0,"x_max":0,"o":"m 119 0 l 269 0 l 269 428 l 714 428 l 714 0 l 864 0 l 864 986 l 714 986 l 714 564 l 269 564 l 269 986 l 119 986 z "},"О":{"ha":1049,"x_min":0,"x_max":0,"o":"m 524 -22 b 985 492 813 -22 985 174 b 524 1008 985 813 813 1008 b 64 492 238 1008 64 813 b 524 -22 64 174 238 -22 z m 221 492 b 524 871 221 728 335 871 b 829 492 715 871 829 728 b 524 115 829 257 715 115 b 221 492 335 115 221 257 z "},"П":{"ha":983,"x_min":0,"x_max":0,"o":"m 864 986 l 119 986 l 119 0 l 269 0 l 269 849 l 714 849 l 714 0 l 864 0 z "},"Р":{"ha":913,"x_min":0,"x_max":0,"o":"m 488 986 l 119 986 l 119 0 l 269 0 l 269 369 l 488 369 b 846 679 713 369 846 486 b 488 986 846 871 713 986 z m 269 506 l 269 849 l 483 849 b 690 679 619 849 690 792 b 483 506 690 565 619 506 z "},"С":{"ha":986,"x_min":0,"x_max":0,"o":"m 929 335 l 769 343 b 518 115 743 197 653 115 b 219 492 313 115 219 286 b 518 871 219 699 311 871 b 764 663 646 871 735 796 l 922 671 b 519 1008 879 876 735 1008 b 64 492 233 1008 64 781 b 519 -22 64 203 233 -22 b 929 335 750 -22 892 118 z "},"Т":{"ha":828,"x_min":0,"x_max":0,"o":"m 792 986 l 36 986 l 36 849 l 339 849 l 339 0 l 489 0 l 489 849 l 792 849 z "},"У":{"ha":790,"x_min":0,"x_max":0,"o":"m 31 986 l 299 272 l 351 272 l 318 186 b 243 135 306 151 281 135 l 131 135 l 131 0 l 271 0 b 449 122 363 0 419 39 l 760 986 l 601 986 l 399 406 l 190 986 z "},"Ў":{"ha":790,"x_min":0,"x_max":0,"o":"m 31 986 l 299 272 l 351 272 l 318 186 b 243 135 306 151 281 135 l 131 135 l 131 0 l 271 0 b 449 122 363 0 419 39 l 760 986 l 601 986 l 399 406 l 190 986 z m 190 1278 b 394 1094 190 1175 281 1094 b 599 1278 508 1094 599 1175 l 496 1278 b 394 1188 496 1226 451 1188 b 293 1278 338 1188 293 1226 z "},"Ф":{"ha":1178,"x_min":0,"x_max":0,"o":"m 64 493 b 517 104 64 279 246 126 l 517 0 l 660 0 l 660 104 b 1114 493 931 128 1114 279 b 660 882 1114 707 931 858 l 660 986 l 517 986 l 517 882 b 64 493 246 860 64 707 z m 219 493 b 517 743 219 632 333 725 l 517 243 b 219 493 333 261 219 354 z m 660 243 l 660 743 b 958 493 844 725 958 632 b 660 243 958 354 844 261 z "},"Х":{"ha":915,"x_min":0,"x_max":0,"o":"m 703 986 l 460 613 l 214 986 l 40 986 l 367 496 l 38 0 l 210 0 l 457 379 l 704 0 l 878 0 l 549 494 l 874 986 z "},"Ч":{"ha":915,"x_min":0,"x_max":0,"o":"m 796 0 l 796 986 l 646 986 l 646 663 b 396 467 646 546 544 467 b 204 661 269 467 204 539 l 204 986 l 54 986 l 54 644 b 378 331 54 451 171 331 b 646 465 499 331 601 385 l 646 0 z "},"Ц":{"ha":1088,"x_min":0,"x_max":0,"o":"m 714 138 l 269 138 l 269 986 l 119 986 l 119 0 l 846 0 l 846 -208 l 996 -208 l 996 138 l 864 138 l 864 986 l 714 986 z "},"Ш":{"ha":1299,"x_min":0,"x_max":0,"o":"m 119 0 l 1179 0 l 1179 986 l 1029 986 l 1029 138 l 725 138 l 725 986 l 574 986 l 574 138 l 269 138 l 269 986 l 119 986 z "},"Щ":{"ha":1403,"x_min":0,"x_max":0,"o":"m 119 0 l 1161 0 l 1161 -208 l 1311 -208 l 1311 138 l 1179 138 l 1179 986 l 1029 986 l 1029 138 l 725 138 l 725 986 l 574 986 l 574 138 l 269 138 l 269 986 l 119 986 z "},"Џ":{"ha":983,"x_min":0,"x_max":0,"o":"m 864 0 l 864 986 l 714 986 l 714 138 l 269 138 l 269 986 l 119 986 l 119 0 l 417 0 l 417 -208 l 567 -208 l 567 0 z "},"Ь":{"ha":926,"x_min":0,"x_max":0,"o":"m 488 0 b 846 307 713 0 846 115 b 488 617 846 500 713 617 l 269 617 l 269 986 l 119 986 l 119 0 z m 269 138 l 269 481 l 483 481 b 690 307 619 481 690 421 b 483 138 690 194 619 138 z "},"Ы":{"ha":1221,"x_min":0,"x_max":0,"o":"m 488 0 b 846 307 713 0 846 115 b 488 617 846 500 713 617 l 269 617 l 269 986 l 119 986 l 119 0 z m 269 138 l 269 481 l 483 481 b 690 307 619 481 690 421 b 483 138 690 194 619 138 z m 951 0 l 1101 0 l 1101 986 l 951 986 z "},"Ъ":{"ha":1033,"x_min":0,"x_max":0,"o":"m 608 0 b 967 307 833 0 967 115 b 608 617 967 500 833 617 l 390 617 l 390 986 l 92 986 l 92 849 l 240 849 l 240 0 z m 390 138 l 390 481 l 604 481 b 811 307 740 481 811 421 b 604 138 811 194 740 138 z "},"Љ":{"ha":1608,"x_min":0,"x_max":0,"o":"m 950 986 l 313 986 l 249 238 b 165 138 243 176 217 138 l 85 138 l 85 0 l 197 0 b 397 217 325 0 386 85 l 451 849 l 800 849 l 800 0 l 1168 0 b 1526 307 1393 0 1526 115 b 1168 617 1526 500 1393 617 l 950 617 z m 950 138 l 950 481 l 1164 481 b 1371 307 1300 481 1371 421 b 1164 138 1371 194 1300 138 z "},"Њ":{"ha":1521,"x_min":0,"x_max":0,"o":"m 1082 0 b 1440 307 1307 0 1440 115 b 1082 617 1440 500 1307 617 l 864 617 l 864 986 l 714 986 l 714 617 l 269 617 l 269 986 l 119 986 l 119 0 l 269 0 l 269 481 l 714 481 l 714 0 z m 864 138 l 864 481 l 1078 481 b 1285 307 1214 481 1285 421 b 1078 138 1285 194 1214 138 z "},"Ѕ":{"ha":914,"x_min":0,"x_max":0,"o":"m 232 328 l 78 318 b 479 -17 94 115 256 -17 b 836 267 669 -17 836 82 b 501 558 836 418 694 510 b 254 729 382 590 254 622 b 435 872 253 817 329 872 b 664 679 561 872 647 796 l 817 688 b 438 1008 796 875 651 1008 b 99 731 238 1008 99 901 b 419 447 99 572 242 490 b 681 256 603 401 681 346 b 488 119 682 165 604 119 b 232 328 343 119 256 203 z "},"Є":{"ha":1036,"x_min":0,"x_max":0,"o":"m 972 347 l 813 347 b 525 115 774 201 672 115 b 224 426 351 115 243 231 l 600 426 l 600 558 l 224 558 b 525 871 243 754 353 871 b 813 638 672 871 774 785 l 972 638 b 525 1008 928 871 767 1008 b 65 492 238 1008 65 813 b 525 -22 65 174 238 -22 b 972 347 767 -22 926 117 z "},"Э":{"ha":1036,"x_min":0,"x_max":0,"o":"m 224 347 l 64 347 b 511 -22 110 117 269 -22 b 971 492 799 -22 971 174 b 511 1008 971 813 799 1008 b 64 638 269 1008 108 871 l 224 638 b 511 871 263 785 364 871 b 813 558 683 871 793 754 l 436 558 l 436 426 l 813 426 b 511 115 793 231 685 115 b 224 347 364 115 263 201 z "},"І":{"ha":389,"x_min":0,"x_max":0,"o":"m 119 986 l 119 0 l 269 0 l 269 986 z "},"Ї":{"ha":389,"x_min":0,"x_max":0,"o":"m 119 986 l 119 0 l 269 0 l 269 986 z m 0 1094 l 154 1094 l 154 1235 l 0 1235 z m 238 1094 l 392 1094 l 392 1235 l 238 1235 z "},"Ј":{"ha":843,"x_min":0,"x_max":0,"o":"m 238 340 l 85 329 b 413 -22 86 124 221 -22 b 744 347 614 -22 744 122 l 744 986 l 594 986 l 594 347 b 414 115 594 199 529 115 b 238 340 301 115 239 194 z "},"Ћ":{"ha":1092,"x_min":0,"x_max":0,"o":"m 739 986 l 36 986 l 36 849 l 296 849 l 296 0 l 446 0 l 446 324 b 696 519 446 440 547 519 b 888 325 822 519 888 447 l 888 0 l 1038 0 l 1038 342 b 714 656 1038 535 921 656 b 446 521 593 656 490 601 l 446 849 l 739 849 z "},"Ю":{"ha":1407,"x_min":0,"x_max":0,"o":"m 881 -22 b 1342 492 1169 -22 1342 174 b 881 1008 1342 813 1169 1008 b 424 561 615 1008 447 840 l 269 561 l 269 986 l 119 986 l 119 0 l 269 0 l 269 425 l 424 425 b 881 -22 446 146 615 -22 z m 578 492 b 881 871 578 728 692 871 b 1186 492 1072 871 1186 728 b 881 115 1186 257 1072 115 b 578 492 692 115 578 257 z "},"Я":{"ha":954,"x_min":0,"x_max":0,"o":"m 467 986 b 108 683 240 986 108 874 b 310 410 108 549 179 449 l 79 0 l 243 0 l 458 386 l 472 386 l 685 386 l 685 0 l 835 0 l 835 986 z m 264 685 b 471 849 264 790 339 849 l 685 849 l 685 522 l 471 522 b 264 685 339 522 264 579 z "},"Ђ":{"ha":1094,"x_min":0,"x_max":0,"o":"m 739 986 l 36 986 l 36 849 l 297 849 l 297 0 l 447 0 l 447 321 b 696 519 447 439 547 519 b 885 332 811 519 885 447 b 638 138 885 213 793 138 l 638 0 b 1039 333 885 0 1039 128 b 714 656 1039 525 907 656 b 447 524 593 656 493 603 l 447 849 l 739 849 z "},"Ѣ":{"ha":1038,"x_min":0,"x_max":0,"o":"m 597 0 b 956 307 822 0 956 115 b 597 617 956 500 822 617 l 379 617 l 379 736 l 533 736 l 533 856 l 379 856 l 379 986 l 229 986 l 229 856 l 78 856 l 78 736 l 229 736 l 229 0 z m 379 138 l 379 481 l 593 481 b 800 307 729 481 800 421 b 593 138 800 194 729 138 z "},"Ѫ":{"ha":1014,"x_min":0,"x_max":0,"o":"m 135 986 l 135 849 l 350 538 b 183 388 276 532 218 483 l 38 0 l 197 0 l 315 325 b 404 403 338 388 363 403 l 433 403 l 433 0 l 582 0 l 582 403 l 610 403 b 697 325 651 403 676 388 l 817 0 l 976 0 l 829 388 b 665 538 796 482 738 531 l 881 849 l 881 986 z m 300 849 l 715 849 l 508 547 z "},"Ѳ":{"ha":1049,"x_min":0,"x_max":0,"o":"m 524 -22 b 985 492 813 -22 985 174 b 524 1008 985 813 813 1008 b 64 492 238 1008 64 813 b 524 -22 64 174 238 -22 z m 222 440 b 315 468 251 456 282 464 b 504 438 365 474 439 463 b 760 382 657 382 701 375 b 822 397 781 385 801 389 b 524 115 796 219 688 115 b 222 440 349 115 239 236 z m 228 590 b 524 871 257 767 363 871 b 826 546 700 871 811 750 b 740 519 800 531 771 524 b 497 576 682 513 649 519 b 296 606 435 601 353 614 b 228 590 274 604 251 599 z "},"Ѵ":{"ha":1033,"x_min":0,"x_max":0,"o":"m 31 986 l 388 0 l 575 0 l 838 726 b 981 849 872 818 908 849 l 1003 849 l 1003 986 l 942 986 b 704 796 835 986 744 914 l 482 168 l 190 986 z "},"Җ":{"ha":1406,"x_min":0,"x_max":0,"o":"m 611 986 l 611 518 l 249 986 l 51 986 l 435 493 l 38 0 l 235 0 l 611 469 l 611 0 l 761 0 l 761 469 l 1138 0 l 1225 0 l 1225 -208 l 1375 -208 l 1375 108 l 1246 108 l 936 493 l 1319 986 l 1124 986 l 761 518 l 761 986 z "},"Қ":{"ha":965,"x_min":0,"x_max":0,"o":"m 119 986 l 119 0 l 269 0 l 269 482 l 700 0 l 778 0 l 778 -208 l 928 -208 l 928 108 l 792 108 l 449 493 l 875 986 l 686 986 l 269 504 l 269 986 z "},"Ң":{"ha":1060,"x_min":0,"x_max":0,"o":"m 119 0 l 269 0 l 269 428 l 714 428 l 714 0 l 818 0 l 818 -208 l 968 -208 l 968 108 l 864 108 l 864 986 l 714 986 l 714 564 l 269 564 l 269 986 l 119 986 z "},"Ү":{"ha":906,"x_min":0,"x_max":0,"o":"m 31 986 l 378 396 l 378 0 l 528 0 l 528 396 l 874 986 l 703 986 l 453 547 l 203 986 z "},"Ұ":{"ha":906,"x_min":0,"x_max":0,"o":"m 31 986 l 356 435 l 150 435 l 150 299 l 378 299 l 378 0 l 528 0 l 528 299 l 756 299 l 756 435 l 550 435 l 874 986 l 703 986 l 453 547 l 203 986 z "},"Ҳ":{"ha":972,"x_min":0,"x_max":0,"o":"m 703 986 l 460 613 l 214 986 l 40 986 l 367 496 l 38 0 l 210 0 l 457 379 l 704 0 l 785 0 l 785 -208 l 935 -208 l 935 108 l 806 108 l 549 494 l 874 986 z "},"Ҷ":{"ha":996,"x_min":0,"x_max":0,"o":"m 54 644 b 378 331 54 451 171 331 b 646 465 499 331 601 385 l 646 0 l 754 0 l 754 -208 l 904 -208 l 904 108 l 796 108 l 796 986 l 646 986 l 646 663 b 396 467 646 546 544 467 b 204 661 269 467 204 539 l 204 986 l 54 986 z "},"Һ":{"ha":915,"x_min":0,"x_max":0,"o":"m 119 986 l 119 0 l 269 0 l 269 324 b 519 519 269 440 371 519 b 711 325 646 519 711 447 l 711 0 l 861 0 l 861 342 b 538 656 861 535 744 656 b 269 521 417 656 314 601 l 269 986 z "},"Ӏ":{"ha":389,"x_min":0,"x_max":0,"o":"m 119 986 l 119 0 l 269 0 l 269 986 z "},"Ә":{"ha":1017,"x_min":0,"x_max":0,"o":"m 796 547 l 64 547 l 65 476 b 499 -22 81 132 275 -22 b 953 493 760 -22 953 190 b 499 1008 953 807 767 1008 b 90 703 307 1008 149 890 l 253 692 b 500 871 301 811 392 871 b 796 547 657 871 785 735 z m 226 411 l 792 411 b 500 115 763 222 657 115 b 226 411 351 115 253 222 z "},"Ӣ":{"ha":1029,"x_min":0,"x_max":0,"o":"m 910 986 l 721 986 l 269 199 l 269 986 l 119 986 l 119 0 l 315 0 l 760 771 l 760 0 l 910 0 z m 328 1114 l 699 1114 l 699 1217 l 328 1217 z "},"Ө":{"ha":1049,"x_min":0,"x_max":0,"o":"m 524 -22 b 985 492 813 -22 985 174 b 524 1008 985 813 813 1008 b 64 492 238 1008 64 813 b 524 -22 64 174 238 -22 z m 224 425 l 826 425 b 524 115 806 231 696 115 b 224 425 353 115 244 231 z m 225 561 b 524 871 244 756 354 871 b 825 561 696 871 806 756 z "},"Ӯ":{"ha":790,"x_min":0,"x_max":0,"o":"m 31 986 l 299 272 l 351 272 l 318 186 b 243 135 306 151 281 135 l 131 135 l 131 0 l 271 0 b 449 122 363 0 419 39 l 760 986 l 601 986 l 399 406 l 190 986 z m 210 1114 l 581 1114 l 581 1217 l 210 1217 z "},"а":{"ha":819,"x_min":0,"x_max":0,"o":"m 74 515 l 226 506 b 389 633 246 589 303 633 b 551 457 496 633 550 575 l 340 415 b 61 193 171 383 61 340 b 326 -17 61 63 178 -17 b 564 114 449 -17 531 43 b 728 0 571 10 661 -1 l 774 0 l 774 115 l 744 115 b 699 167 715 115 699 129 l 699 440 b 389 753 699 642 589 753 b 74 515 219 753 103 664 z m 214 196 b 397 317 214 289 296 299 l 554 344 l 554 335 b 358 97 554 176 468 99 b 214 196 261 97 214 142 z "},"б":{"ha":851,"x_min":0,"x_max":0,"o":"m 222 328 b 429 106 221 197 306 106 b 635 328 550 106 635 197 b 438 544 635 456 553 544 b 222 328 313 544 224 456 z m 64 435 b 318 904 64 701 136 825 b 438 1056 411 946 438 979 l 576 1057 b 419 808 576 943 536 864 b 206 543 303 753 217 718 b 447 672 257 626 343 672 b 788 328 651 672 788 532 b 426 -22 788 113 639 -22 b 167 92 332 -22 239 11 b 64 435 99 163 64 285 z "},"в":{"ha":835,"x_min":0,"x_max":0,"o":"m 104 0 l 461 0 b 744 208 639 0 744 79 b 549 381 744 307 671 371 b 714 532 651 390 714 447 b 421 736 714 660 604 736 l 104 736 z m 253 118 l 253 319 l 457 319 b 590 215 539 319 590 279 b 457 118 590 156 539 118 z m 253 429 l 253 618 l 419 618 b 560 525 506 618 560 583 b 419 429 560 467 506 429 z "},"г":{"ha":683,"x_min":0,"x_max":0,"o":"m 104 736 l 104 0 l 251 0 l 251 617 l 636 617 l 636 736 z "},"ѓ":{"ha":683,"x_min":0,"x_max":0,"o":"m 104 736 l 104 0 l 251 0 l 251 617 l 636 617 l 636 736 z m 314 846 l 418 846 l 543 1026 l 401 1026 z "},"ґ":{"ha":615,"x_min":0,"x_max":0,"o":"m 104 736 l 104 0 l 251 0 l 251 617 l 585 617 l 585 951 l 436 951 l 436 736 z "},"ғ":{"ha":750,"x_min":0,"x_max":0,"o":"m 157 736 l 157 425 l 76 425 l 76 306 l 157 306 l 157 0 l 304 0 l 304 306 l 521 306 l 521 425 l 304 425 l 304 617 l 689 617 l 689 736 z "},"д":{"ha":981,"x_min":0,"x_max":0,"o":"m 808 736 l 285 736 l 218 253 b 115 119 204 161 174 119 l 54 119 l 54 -208 l 201 -208 l 201 0 l 781 0 l 781 -208 l 928 -208 l 928 119 l 808 119 z m 317 119 b 358 243 338 151 351 192 l 410 617 l 661 617 l 661 119 z "},"е":{"ha":808,"x_min":0,"x_max":0,"o":"m 61 368 b 413 -17 61 135 199 -17 b 735 211 563 -17 692 71 l 581 222 b 413 108 551 151 485 108 b 217 326 297 108 226 189 l 746 326 l 744 374 b 413 753 738 635 589 753 b 61 368 199 753 61 601 z m 219 436 b 413 628 236 557 306 628 b 590 436 496 628 574 576 z "},"ѐ":{"ha":808,"x_min":0,"x_max":0,"o":"m 61 368 b 413 -17 61 135 199 -17 b 735 211 563 -17 692 71 l 581 222 b 413 108 551 151 485 108 b 217 326 297 108 226 189 l 746 326 l 744 374 b 413 753 738 635 589 753 b 61 368 199 753 61 601 z m 219 436 b 413 628 236 557 306 628 b 590 436 496 628 574 576 z m 235 1024 l 361 843 l 465 843 l 378 1024 z "},"ё":{"ha":808,"x_min":0,"x_max":0,"o":"m 61 368 b 413 -17 61 135 199 -17 b 735 211 563 -17 692 71 l 581 222 b 413 108 551 151 485 108 b 217 326 297 108 226 189 l 746 326 l 744 374 b 413 753 738 635 589 753 b 61 368 199 753 61 601 z m 218 842 l 372 842 l 372 982 l 218 982 z m 219 436 b 413 628 236 557 306 628 b 590 436 496 628 574 576 z m 456 842 l 610 842 l 610 982 l 456 982 z "},"ж":{"ha":1256,"x_min":0,"x_max":0,"o":"m 556 736 l 556 385 l 269 736 l 79 736 l 383 368 l 65 0 l 256 0 l 556 351 l 556 0 l 703 0 l 703 351 l 1003 0 l 1190 0 l 872 368 l 1176 736 l 989 736 l 703 385 l 703 736 z "},"з":{"ha":756,"x_min":0,"x_max":0,"o":"m 381 446 l 308 447 l 308 331 l 381 332 b 533 213 472 333 533 288 b 372 108 533 149 471 108 b 208 219 276 108 213 151 l 56 214 b 372 -17 63 72 185 -17 b 685 200 564 -17 685 67 b 508 396 685 294 619 365 b 661 546 604 421 661 475 b 372 753 661 674 550 753 b 82 557 208 753 96 678 l 236 550 b 371 638 243 604 293 638 b 508 546 456 638 508 601 b 381 446 508 482 458 444 z "},"и":{"ha":807,"x_min":0,"x_max":0,"o":"m 701 736 l 546 736 l 251 219 l 251 736 l 104 736 l 104 0 l 268 0 l 554 504 l 554 0 l 701 0 z "},"й":{"ha":807,"x_min":0,"x_max":0,"o":"m 701 736 l 546 736 l 251 219 l 251 736 l 104 736 l 104 0 l 268 0 l 554 504 l 554 0 l 701 0 z m 199 1028 b 403 844 199 925 289 844 b 607 1028 517 844 607 925 l 504 1028 b 403 938 504 976 460 938 b 301 1028 346 938 301 976 z "},"ѝ":{"ha":807,"x_min":0,"x_max":0,"o":"m 701 736 l 546 736 l 251 219 l 251 736 l 104 736 l 104 0 l 268 0 l 554 504 l 554 0 l 701 0 z m 226 1026 l 353 846 l 457 846 l 369 1026 z "},"к":{"ha":850,"x_min":0,"x_max":0,"o":"m 104 736 l 104 0 l 254 0 l 254 358 l 592 0 l 785 0 l 428 368 l 768 736 l 578 736 l 254 379 l 254 736 z "},"ќ":{"ha":850,"x_min":0,"x_max":0,"o":"m 104 736 l 104 0 l 254 0 l 254 358 l 592 0 l 785 0 l 428 368 l 768 736 l 578 736 l 254 379 l 254 736 z m 360 846 l 464 846 l 589 1026 l 447 1026 z "},"л":{"ha":940,"x_min":0,"x_max":0,"o":"m 836 736 l 272 736 l 217 232 b 136 132 210 165 183 132 l 76 132 l 76 0 l 178 0 b 363 204 288 0 349 69 l 406 617 l 689 617 l 689 0 l 836 0 z "},"м":{"ha":1013,"x_min":0,"x_max":0,"o":"m 104 736 l 104 0 l 251 0 l 251 481 l 433 0 l 579 0 l 760 479 l 760 0 l 907 0 l 907 736 l 719 736 l 507 144 l 294 736 z "},"н":{"ha":814,"x_min":0,"x_max":0,"o":"m 104 736 l 104 0 l 251 0 l 251 307 l 563 307 l 563 0 l 710 0 l 710 736 l 563 736 l 563 426 l 251 426 l 251 736 z "},"о":{"ha":824,"x_min":0,"x_max":0,"o":"m 413 -17 b 763 368 624 -17 763 133 b 413 753 763 603 624 753 b 61 368 200 753 61 603 b 413 -17 61 133 200 -17 z m 214 368 b 413 625 214 529 288 625 b 610 368 538 625 610 529 b 413 111 610 207 538 111 b 214 368 288 111 214 207 z "},"п":{"ha":821,"x_min":0,"x_max":0,"o":"m 717 736 l 104 736 l 104 0 l 251 0 l 251 617 l 569 617 l 569 0 l 717 0 z "},"р":{"ha":849,"x_min":0,"x_max":0,"o":"m 104 -208 l 251 -208 l 251 103 b 469 -17 293 25 369 -17 b 786 368 685 -17 786 161 b 469 753 786 575 685 753 b 246 626 364 753 286 708 l 242 736 l 104 736 z m 239 368 b 435 626 239 500 299 626 b 632 368 572 626 632 501 b 435 110 632 233 574 110 b 239 368 299 110 239 236 z "},"с":{"ha":790,"x_min":0,"x_max":0,"o":"m 583 478 l 736 486 b 413 753 717 651 576 753 b 61 368 199 753 61 601 b 413 -17 61 135 199 -17 b 742 263 582 -17 719 90 l 588 271 b 413 111 572 168 500 111 b 214 368 288 111 214 207 b 413 625 214 529 288 625 b 583 478 496 625 568 571 z "},"т":{"ha":792,"x_min":0,"x_max":0,"o":"m 731 736 l 61 736 l 61 617 l 322 617 l 322 0 l 471 0 l 471 617 l 731 617 z "},"у":{"ha":768,"x_min":0,"x_max":0,"o":"m 31 736 l 299 22 l 343 22 l 319 -39 b 246 -89 306 -75 285 -89 l 158 -89 l 158 -208 l 265 -208 b 443 -86 357 -208 414 -169 l 739 736 l 590 736 l 388 156 l 179 736 z "},"ў":{"ha":768,"x_min":0,"x_max":0,"o":"m 31 736 l 299 22 l 343 22 l 319 -39 b 246 -89 306 -75 285 -89 l 158 -89 l 158 -208 l 265 -208 b 443 -86 357 -208 414 -169 l 739 736 l 590 736 l 388 156 l 179 736 z m 181 1028 b 385 844 181 925 271 844 b 589 1028 499 844 589 925 l 486 1028 b 385 938 486 976 442 938 b 283 1028 328 938 283 976 z "},"ф":{"ha":935,"x_min":0,"x_max":0,"o":"m 61 372 b 399 38 61 189 194 60 l 399 -208 l 539 -208 l 539 38 b 874 372 743 63 874 190 b 539 707 874 554 743 682 l 539 986 l 399 986 l 399 707 b 61 372 194 685 61 556 z m 215 372 b 399 574 215 479 283 553 l 399 171 b 215 372 283 192 215 265 z m 539 172 l 539 572 b 721 372 653 551 721 478 b 539 172 721 267 653 193 z "},"х":{"ha":843,"x_min":0,"x_max":0,"o":"m 596 736 l 422 481 l 249 736 l 78 736 l 333 376 l 65 0 l 236 0 l 422 271 l 607 0 l 778 0 l 511 375 l 767 736 z "},"ч":{"ha":857,"x_min":0,"x_max":0,"o":"m 753 0 l 753 736 l 604 736 l 604 551 b 406 349 604 425 529 349 b 251 550 311 349 251 425 l 251 736 l 104 736 l 104 533 b 386 219 104 340 214 219 b 604 347 485 219 565 271 l 604 0 z "},"ц":{"ha":935,"x_min":0,"x_max":0,"o":"m 569 119 l 251 119 l 251 736 l 104 736 l 104 0 l 696 0 l 696 -208 l 844 -208 l 844 119 l 717 119 l 717 736 l 569 736 z "},"ш":{"ha":1133,"x_min":0,"x_max":0,"o":"m 104 0 l 1029 0 l 1029 736 l 882 736 l 882 119 l 640 119 l 640 736 l 494 736 l 494 119 l 251 119 l 251 736 l 104 736 z "},"щ":{"ha":1239,"x_min":0,"x_max":0,"o":"m 104 0 l 1014 0 l 1014 -208 l 1163 -208 l 1163 119 l 1029 119 l 1029 736 l 882 736 l 882 119 l 640 119 l 640 736 l 494 736 l 494 119 l 251 119 l 251 736 l 104 736 z "},"џ":{"ha":821,"x_min":0,"x_max":0,"o":"m 717 0 l 717 736 l 569 736 l 569 119 l 251 119 l 251 736 l 104 736 l 104 0 l 336 0 l 336 -208 l 483 -208 l 483 0 z "},"ь":{"ha":824,"x_min":0,"x_max":0,"o":"m 104 0 l 432 0 b 761 232 646 0 761 82 b 432 467 761 385 646 467 l 251 467 l 251 736 l 104 736 z m 251 117 l 251 350 l 425 350 b 608 232 549 350 608 311 b 425 117 608 154 549 117 z "},"ы":{"ha":1139,"x_min":0,"x_max":0,"o":"m 104 0 l 432 0 b 761 232 646 0 761 82 b 432 467 761 385 646 467 l 251 467 l 251 736 l 104 736 z m 251 117 l 251 350 l 425 350 b 608 232 549 350 608 311 b 425 117 608 154 549 117 z m 886 0 l 1033 0 l 1033 736 l 886 736 z "},"ъ":{"ha":913,"x_min":0,"x_max":0,"o":"m 193 0 l 521 0 b 850 232 735 0 850 82 b 521 467 850 385 735 467 l 340 467 l 340 736 l 76 736 l 76 617 l 193 617 z m 340 117 l 340 350 l 514 350 b 697 232 638 350 697 311 b 514 117 697 154 638 117 z "},"љ":{"ha":1421,"x_min":0,"x_max":0,"o":"m 689 0 l 1031 0 b 1360 232 1244 0 1360 82 b 1031 467 1360 385 1244 467 l 850 467 l 850 736 l 272 736 l 217 232 b 136 132 210 165 183 132 l 76 132 l 76 0 l 178 0 b 363 204 288 0 349 69 l 406 617 l 689 617 z m 850 117 l 850 350 l 1024 350 b 1207 232 1147 350 1207 311 b 1024 117 1207 154 1147 117 z "},"њ":{"ha":1281,"x_min":0,"x_max":0,"o":"m 561 0 l 889 0 b 1218 232 1103 0 1218 82 b 889 467 1218 385 1103 467 l 708 467 l 708 736 l 561 736 l 561 468 l 251 468 l 251 736 l 104 736 l 104 0 l 251 0 l 251 347 l 561 347 z m 708 117 l 708 350 l 882 350 b 1065 232 1006 350 1065 311 b 882 117 1065 154 1006 117 z "},"ѕ":{"ha":757,"x_min":0,"x_max":0,"o":"m 533 504 l 685 513 b 379 753 661 660 539 753 b 79 522 196 753 79 665 b 369 306 79 382 213 339 b 543 199 449 288 542 278 b 393 106 543 129 460 106 b 213 242 292 106 228 158 l 61 232 b 394 -17 72 78 207 -17 b 696 192 551 -17 696 47 b 396 418 696 336 579 385 b 232 526 318 433 233 460 b 368 631 232 592 293 631 b 533 504 444 631 518 583 z "},"є":{"ha":813,"x_min":0,"x_max":0,"o":"m 750 257 l 593 257 b 413 111 568 164 504 111 b 217 311 303 111 233 185 l 443 311 l 443 425 l 217 425 b 413 625 233 551 303 625 b 594 474 506 625 569 571 l 751 474 b 413 753 714 647 588 753 b 61 368 200 753 61 603 b 413 -17 61 133 200 -17 b 750 257 586 -17 713 85 z "},"э":{"ha":813,"x_min":0,"x_max":0,"o":"m 219 257 l 63 257 b 400 -17 100 85 226 -17 b 751 368 613 -17 751 133 b 400 753 751 603 613 753 b 61 474 225 753 99 647 l 218 474 b 400 625 243 571 307 625 b 596 425 510 625 579 551 l 369 425 l 369 311 l 596 311 b 400 111 579 185 510 111 b 219 257 308 111 244 164 z "},"і":{"ha":357,"x_min":0,"x_max":0,"o":"m 104 736 l 104 0 l 251 0 l 251 736 z m 101 844 l 256 844 l 256 985 l 101 985 z "},"ї":{"ha":357,"x_min":0,"x_max":0,"o":"m 104 736 l 104 0 l 251 0 l 251 736 z m -17 844 l 138 844 l 138 985 l -17 985 z m 222 844 l 376 844 l 376 985 l 222 985 z "},"ј":{"ha":394,"x_min":0,"x_max":0,"o":"m 290 10 l 290 736 l 142 736 l 142 10 b 61 -87 142 -50 111 -87 l -6 -87 l -6 -208 l 83 -208 b 290 10 222 -208 290 -128 z m 139 844 l 293 844 l 293 985 l 139 985 z "},"ћ":{"ha":858,"x_min":0,"x_max":0,"o":"m 156 986 l 156 914 l 76 914 l 76 807 l 156 807 l 156 0 l 303 0 l 303 421 b 478 622 303 551 371 622 b 621 421 576 622 621 554 l 621 0 l 768 0 l 768 474 b 519 753 768 643 672 753 b 303 636 429 753 346 718 l 303 807 l 461 807 l 461 914 l 303 914 l 303 986 z "},"ю":{"ha":1129,"x_min":0,"x_max":0,"o":"m 718 -17 b 1068 368 929 -17 1068 133 b 718 753 1068 603 929 753 b 369 428 524 753 392 628 l 251 428 l 251 736 l 104 736 l 104 0 l 251 0 l 251 308 l 369 308 b 718 -17 392 108 524 -17 z m 519 368 b 718 625 519 529 593 625 b 915 368 843 625 915 529 b 718 111 915 207 843 111 b 519 368 593 111 519 207 z "},"я":{"ha":835,"x_min":0,"x_max":0,"o":"m 731 736 l 428 736 b 121 510 229 736 121 657 b 282 303 121 418 178 344 l 104 0 l 267 0 l 429 279 l 583 279 l 583 0 l 731 0 z m 275 507 b 428 621 275 579 331 621 l 583 621 l 583 394 l 428 394 b 275 507 331 394 275 436 z "},"ђ":{"ha":872,"x_min":0,"x_max":0,"o":"m 156 986 l 156 914 l 76 914 l 76 807 l 156 807 l 156 0 l 303 0 l 303 421 b 478 622 303 551 371 622 b 621 421 576 622 621 554 l 621 10 b 539 -87 621 -50 589 -87 l 485 -87 l 485 -208 l 561 -208 b 768 10 700 -208 768 -128 l 768 474 b 519 753 768 643 672 753 b 303 636 429 753 346 718 l 303 807 l 461 807 l 461 914 l 303 914 l 303 986 z "},"ѣ":{"ha":953,"x_min":0,"x_max":0,"o":"m 233 0 l 561 0 b 892 246 772 0 892 88 b 561 494 892 406 772 494 l 381 494 l 381 735 l 538 735 l 538 853 l 381 853 l 381 986 l 233 986 l 233 853 l 76 853 l 76 735 l 233 735 z m 381 117 l 381 378 l 556 378 b 738 246 672 378 738 329 b 556 117 738 163 672 117 z "},"ѫ":{"ha":1003,"x_min":0,"x_max":0,"o":"m 133 736 l 133 618 l 347 397 b 196 289 282 390 225 353 l 65 0 l 222 0 l 322 240 b 411 299 340 286 367 299 l 431 299 l 431 0 l 574 0 l 574 299 l 592 299 b 682 240 638 299 664 286 l 782 0 l 939 0 l 808 289 b 658 397 781 353 722 389 l 872 618 l 872 736 z m 293 618 l 713 618 l 503 401 z "},"ѳ":{"ha":824,"x_min":0,"x_max":0,"o":"m 413 -17 b 763 368 624 -17 763 133 b 413 753 763 603 624 753 b 61 368 200 753 61 603 b 413 -17 61 133 200 -17 z m 215 336 b 249 344 226 340 238 343 b 403 314 290 347 347 339 b 597 261 519 263 554 258 b 413 111 571 165 507 111 b 215 336 296 111 224 194 z m 224 460 b 413 625 247 565 314 625 b 610 382 533 625 606 535 b 590 379 603 381 597 379 b 394 435 542 375 521 376 b 232 461 342 458 279 467 b 224 460 229 461 226 461 z "},"ѵ":{"ha":840,"x_min":0,"x_max":0,"o":"m 811 736 l 769 736 b 531 556 656 736 569 672 l 389 151 l 185 736 l 31 736 l 300 0 l 479 0 l 667 515 b 797 617 692 582 735 617 l 811 617 z "},"җ":{"ha":1269,"x_min":0,"x_max":0,"o":"m 556 736 l 556 385 l 269 736 l 79 736 l 383 368 l 65 0 l 256 0 l 556 351 l 556 0 l 703 0 l 703 351 l 1003 0 l 1057 0 l 1057 -208 l 1204 -208 l 1204 103 l 1101 103 l 872 368 l 1176 736 l 989 736 l 703 385 l 703 736 z "},"қ":{"ha":871,"x_min":0,"x_max":0,"o":"m 104 736 l 104 0 l 254 0 l 254 358 l 592 0 l 658 0 l 658 -208 l 806 -208 l 806 103 l 685 103 l 428 368 l 768 736 l 578 736 l 254 379 l 254 736 z "},"ң":{"ha":929,"x_min":0,"x_max":0,"o":"m 104 736 l 104 0 l 251 0 l 251 307 l 563 307 l 563 0 l 678 0 l 678 -208 l 825 -208 l 825 103 l 710 103 l 710 736 l 563 736 l 563 426 l 251 426 l 251 736 z "},"ү":{"ha":778,"x_min":0,"x_max":0,"o":"m 749 736 l 593 736 l 389 165 l 185 736 l 31 736 l 315 0 l 315 -208 l 463 -208 l 463 0 z "},"ұ":{"ha":778,"x_min":0,"x_max":0,"o":"m 749 736 l 593 736 l 389 165 l 185 736 l 31 736 l 292 60 l 153 60 l 153 -60 l 315 -60 l 315 -208 l 463 -208 l 463 -60 l 626 -60 l 626 60 l 486 60 z "},"ҳ":{"ha":892,"x_min":0,"x_max":0,"o":"m 596 736 l 422 481 l 249 736 l 78 736 l 333 376 l 65 0 l 236 0 l 422 271 l 607 0 l 679 0 l 679 -208 l 826 -208 l 826 103 l 704 103 l 511 375 l 767 736 z "},"ҷ":{"ha":949,"x_min":0,"x_max":0,"o":"m 104 533 b 386 219 104 340 214 219 b 604 347 485 219 565 271 l 604 0 l 718 0 l 718 -208 l 865 -208 l 865 103 l 753 103 l 753 736 l 604 736 l 604 551 b 406 349 604 425 529 349 b 251 550 311 349 251 425 l 251 736 l 104 736 z "},"һ":{"ha":821,"x_min":0,"x_max":0,"o":"m 104 986 l 104 0 l 251 0 l 251 421 b 426 622 251 551 319 622 b 569 421 525 622 569 554 l 569 0 l 717 0 l 717 474 b 468 753 717 643 621 753 b 251 636 378 753 294 718 l 251 986 z "},"ӏ":{"ha":386,"x_min":0,"x_max":0,"o":"m 119 986 l 119 0 l 267 0 l 267 986 z "},"ә":{"ha":807,"x_min":0,"x_max":0,"o":"m 746 368 b 394 753 746 601 608 753 b 72 525 244 753 115 665 l 226 514 b 394 628 256 585 322 628 b 590 410 510 628 581 547 l 61 410 l 63 363 b 394 -17 69 101 218 -17 b 746 368 608 -17 746 135 z m 217 300 l 588 300 b 394 108 571 179 501 108 b 217 300 311 108 233 160 z "},"ӣ":{"ha":807,"x_min":0,"x_max":0,"o":"m 701 736 l 546 736 l 251 219 l 251 736 l 104 736 l 104 0 l 268 0 l 554 504 l 554 0 l 701 0 z m 218 864 l 589 864 l 589 967 l 218 967 z "},"ө":{"ha":824,"x_min":0,"x_max":0,"o":"m 413 -17 b 763 368 624 -17 763 133 b 413 753 763 603 624 753 b 61 368 200 753 61 603 b 413 -17 61 133 200 -17 z m 218 308 l 606 308 b 413 111 590 183 521 111 b 218 308 304 111 233 183 z m 218 428 b 413 625 233 553 304 625 b 606 428 521 625 590 553 z "},"ӯ":{"ha":769,"x_min":0,"x_max":0,"o":"m 31 736 l 299 22 l 343 22 l 319 -39 b 246 -89 306 -75 285 -89 l 158 -89 l 158 -208 l 265 -208 b 443 -86 357 -208 414 -169 l 739 736 l 590 736 l 388 156 l 179 736 z m 200 864 l 571 864 l 571 967 l 200 967 z "},"Λ":{"ha":960,"x_min":0,"x_max":0,"o":"m 479 843 l 771 0 l 929 0 l 574 986 l 386 986 l 31 0 l 189 0 z "},"Ω":{"ha":1038,"x_min":0,"x_max":0,"o":"m 518 871 b 819 506 710 871 819 733 b 585 138 819 301 715 140 l 585 0 l 972 0 l 972 138 l 782 136 b 974 519 899 207 974 344 b 518 1008 974 810 799 1008 b 64 519 240 1008 64 810 b 257 136 64 344 139 207 l 67 138 l 67 0 l 453 0 l 453 138 b 219 506 322 140 219 301 b 518 871 219 733 329 871 z "},"λ":{"ha":831,"x_min":0,"x_max":0,"o":"m 733 0 l 800 0 l 800 119 l 751 119 b 664 201 700 119 686 149 l 428 796 b 207 986 376 928 324 986 l 119 986 l 119 867 l 192 867 b 283 783 244 867 261 838 l 315 701 l 31 0 l 183 0 l 390 515 l 519 190 b 733 0 574 54 618 0 z "},"π":{"ha":921,"x_min":0,"x_max":0,"o":"m 69 736 l 69 615 l 217 615 l 217 0 l 351 0 l 351 615 l 597 615 l 597 217 b 822 0 597 82 664 0 l 869 0 l 869 121 l 825 121 b 732 217 765 121 732 157 l 732 615 l 872 615 l 872 736 z "},"ℇ":{"ha":825,"x_min":0,"x_max":0,"o":"m 772 126 l 688 238 b 415 103 619 156 507 103 b 194 283 281 103 194 176 b 415 463 194 394 281 465 l 486 461 l 486 583 l 415 582 b 228 744 326 581 228 628 b 415 883 228 829 300 883 b 653 763 497 883 596 833 l 742 871 b 413 1008 668 953 536 1008 b 88 750 219 1008 88 903 b 264 532 88 640 149 565 b 54 272 128 493 54 400 b 413 -22 54 100 197 -22 b 772 126 553 -22 700 39 z "},"⓿":{"ha":1149,"x_min":0,"x_max":0,"o":"m 578 206 b 792 493 708 206 792 317 b 578 783 792 671 708 783 b 364 493 447 783 364 671 b 578 206 364 317 447 206 z m 61 497 b 574 1008 61 779 290 1008 b 1086 497 857 1008 1086 779 b 574 -17 1086 213 857 -17 b 61 497 290 -17 61 213 z m 457 493 b 578 696 457 624 501 696 b 642 672 603 696 625 688 l 469 396 b 457 493 461 424 457 456 z m 514 317 l 686 594 b 699 493 694 565 699 532 b 578 293 699 367 654 293 b 514 317 553 293 531 301 z "},"❶":{"ha":1149,"x_min":0,"x_max":0,"o":"m 574 -17 b 61 497 290 -17 61 213 b 574 1008 61 779 290 1008 b 1086 497 857 1008 1086 779 b 574 -17 1086 213 857 -17 z m 408 564 l 543 565 l 543 224 l 643 224 l 643 763 l 567 763 b 442 635 567 681 524 635 l 408 635 z "},"❷":{"ha":1149,"x_min":0,"x_max":0,"o":"m 574 -17 b 61 497 290 -17 61 213 b 574 1008 61 779 290 1008 b 1086 497 857 1008 1086 779 b 574 -17 1086 213 857 -17 z m 388 222 l 760 222 l 760 310 l 499 310 b 590 413 503 343 540 378 l 629 438 b 757 622 710 492 757 550 b 586 779 757 715 685 779 b 394 603 485 779 407 710 l 492 599 b 586 692 503 661 533 692 b 660 622 629 692 660 664 b 590 521 660 583 639 553 l 546 492 b 388 222 408 401 388 308 z "},"❸":{"ha":1149,"x_min":0,"x_max":0,"o":"m 574 -17 b 61 497 290 -17 61 213 b 574 1008 61 779 290 1008 b 1086 497 857 1008 1086 779 b 574 -17 1086 213 857 -17 z m 381 363 b 579 206 386 275 471 206 b 771 369 686 206 771 278 b 654 518 771 438 721 500 b 750 640 715 536 750 588 b 576 785 750 721 675 785 b 399 649 488 785 410 725 l 496 643 b 576 697 499 674 531 697 b 653 625 621 697 653 665 b 571 556 653 592 619 556 l 536 556 l 536 471 l 571 471 b 674 378 631 471 674 429 b 579 293 674 329 633 293 b 476 367 524 293 481 325 z "},"❹":{"ha":1149,"x_min":0,"x_max":0,"o":"m 574 -17 b 61 497 290 -17 61 213 b 574 1008 61 779 290 1008 b 1086 497 857 1008 1086 779 b 574 -17 1086 213 857 -17 z m 331 326 l 585 326 l 585 224 l 681 224 l 681 326 l 740 326 l 740 415 l 681 415 l 681 763 l 601 763 l 331 404 z m 453 415 l 585 592 l 585 415 z "},"❺":{"ha":1149,"x_min":0,"x_max":0,"o":"m 574 -17 b 61 497 290 -17 61 213 b 574 1008 61 779 290 1008 b 1086 497 857 1008 1086 779 b 574 -17 1086 213 857 -17 z m 383 357 b 574 201 392 265 472 201 b 767 394 685 201 767 281 b 592 585 767 503 692 585 b 500 549 554 585 526 574 l 517 676 l 731 676 l 731 764 l 436 764 l 393 449 l 485 449 b 576 501 513 496 544 501 b 669 394 629 501 669 454 b 576 289 669 332 629 289 b 481 361 529 289 489 318 z "},"❻":{"ha":1149,"x_min":0,"x_max":0,"o":"m 574 -17 b 61 497 290 -17 61 213 b 574 1008 61 779 290 1008 b 1086 497 857 1008 1086 779 b 574 -17 1086 213 857 -17 z m 385 461 b 575 206 385 324 447 206 b 765 401 683 206 765 282 b 593 594 765 518 690 594 b 474 538 540 594 501 572 b 590 696 485 625 522 696 b 669 642 631 696 657 678 l 763 650 b 592 782 740 733 671 782 b 385 461 446 782 385 629 z m 486 401 b 579 507 488 464 526 507 b 668 401 638 507 668 464 b 578 293 668 338 635 293 b 486 401 522 293 485 338 z "},"❼":{"ha":1149,"x_min":0,"x_max":0,"o":"m 574 -17 b 61 497 290 -17 61 213 b 574 1008 61 779 290 1008 b 1086 497 857 1008 1086 779 b 574 -17 1086 213 857 -17 z m 382 675 l 656 675 b 494 224 556 543 494 386 l 590 224 b 765 696 590 400 657 560 l 765 763 l 382 763 z "},"❽":{"ha":1149,"x_min":0,"x_max":0,"o":"m 574 -17 b 61 497 290 -17 61 213 b 574 1008 61 779 290 1008 b 1086 497 857 1008 1086 779 b 574 -17 1086 213 857 -17 z m 374 371 b 574 206 374 269 460 206 b 774 371 688 206 774 269 b 664 518 774 439 732 490 b 747 632 717 539 747 576 b 574 782 747 718 672 782 b 400 632 476 782 400 718 b 483 518 400 576 431 539 b 374 371 414 492 374 439 z m 471 379 b 574 475 471 435 513 475 b 676 379 635 475 676 435 b 574 293 676 326 635 293 b 471 379 513 293 471 326 z m 497 626 b 574 694 497 668 528 694 b 650 626 619 694 650 668 b 574 553 650 582 619 553 b 497 626 528 553 497 582 z "},"❾":{"ha":1149,"x_min":0,"x_max":0,"o":"m 574 -17 b 61 497 290 -17 61 213 b 574 1008 61 779 290 1008 b 1086 497 857 1008 1086 779 b 574 -17 1086 213 857 -17 z m 383 586 b 556 393 383 469 458 393 b 675 451 608 393 649 415 b 558 292 664 350 621 292 b 479 346 518 292 492 310 l 385 338 b 557 206 407 254 478 206 b 764 526 683 206 764 331 b 574 782 764 664 700 782 b 383 586 465 782 383 706 z m 481 586 b 571 694 481 650 514 694 b 664 586 625 694 665 650 b 569 481 663 524 621 481 b 481 586 511 481 481 524 z "},"⓪":{"ha":1161,"x_min":0,"x_max":0,"o":"m 581 -24 b 1100 497 868 -24 1100 208 b 581 1015 1100 783 868 1015 b 61 497 293 1015 61 783 b 581 -24 61 208 293 -24 z m 169 497 b 581 908 169 726 350 908 b 993 497 811 908 993 726 b 581 85 993 267 811 85 b 169 497 350 85 169 267 z m 367 493 b 581 206 367 317 450 206 b 794 493 711 206 794 317 b 581 783 794 671 711 783 b 367 493 450 783 367 671 z m 460 493 b 581 696 460 624 504 696 b 644 672 606 696 628 688 l 472 396 b 460 493 464 424 460 456 z m 517 317 l 689 594 b 701 493 697 565 701 532 b 581 293 701 367 657 293 b 517 317 556 293 533 301 z "},"①":{"ha":1161,"x_min":0,"x_max":0,"o":"m 581 -24 b 1100 497 868 -24 1100 208 b 581 1015 1100 783 868 1015 b 61 497 293 1015 61 783 b 581 -24 61 208 293 -24 z m 169 497 b 581 908 169 726 350 908 b 993 497 811 908 993 726 b 581 85 993 267 811 85 b 169 497 350 85 169 267 z m 415 564 l 550 565 l 550 224 l 650 224 l 650 763 l 574 763 b 449 635 574 681 531 635 l 415 635 z "},"②":{"ha":1161,"x_min":0,"x_max":0,"o":"m 581 -24 b 1100 497 868 -24 1100 208 b 581 1015 1100 783 868 1015 b 61 497 293 1015 61 783 b 581 -24 61 208 293 -24 z m 169 497 b 581 908 169 726 350 908 b 993 497 811 908 993 726 b 581 85 993 267 811 85 b 169 497 350 85 169 267 z m 394 222 l 767 222 l 767 310 l 506 310 b 597 413 510 343 547 378 l 636 438 b 764 622 717 492 764 550 b 593 779 764 715 692 779 b 401 603 492 779 414 710 l 499 599 b 593 692 510 661 540 692 b 667 622 636 692 667 664 b 597 521 667 583 646 553 l 553 492 b 394 222 415 401 394 308 z "},"③":{"ha":1161,"x_min":0,"x_max":0,"o":"m 581 -24 b 1100 497 868 -24 1100 208 b 581 1015 1100 783 868 1015 b 61 497 293 1015 61 783 b 581 -24 61 208 293 -24 z m 169 497 b 581 908 169 726 350 908 b 993 497 811 908 993 726 b 581 85 993 267 811 85 b 169 497 350 85 169 267 z m 386 363 b 585 206 392 275 476 206 b 776 369 692 206 776 278 b 660 518 776 438 726 500 b 756 640 721 536 756 588 b 582 785 756 721 681 785 b 404 649 493 785 415 725 l 501 643 b 582 697 504 674 536 697 b 658 625 626 697 658 665 b 576 556 658 592 625 556 l 542 556 l 542 471 l 576 471 b 679 378 636 471 679 429 b 585 293 679 329 639 293 b 482 367 529 293 486 325 z "},"④":{"ha":1161,"x_min":0,"x_max":0,"o":"m 581 -24 b 1100 497 868 -24 1100 208 b 581 1015 1100 783 868 1015 b 61 497 293 1015 61 783 b 581 -24 61 208 293 -24 z m 169 497 b 581 908 169 726 350 908 b 993 497 811 908 993 726 b 581 85 993 267 811 85 b 169 497 350 85 169 267 z m 339 326 l 593 326 l 593 224 l 689 224 l 689 326 l 749 326 l 749 415 l 689 415 l 689 763 l 610 763 l 339 404 z m 461 415 l 593 592 l 593 415 z "},"⑤":{"ha":1161,"x_min":0,"x_max":0,"o":"m 581 -24 b 1100 497 868 -24 1100 208 b 581 1015 1100 783 868 1015 b 61 497 293 1015 61 783 b 581 -24 61 208 293 -24 z m 169 497 b 581 908 169 726 350 908 b 993 497 811 908 993 726 b 581 85 993 267 811 85 b 169 497 350 85 169 267 z m 390 357 b 581 201 399 265 479 201 b 774 394 692 201 774 281 b 599 585 774 503 699 585 b 507 549 561 585 533 574 l 524 676 l 738 676 l 738 764 l 443 764 l 400 449 l 492 449 b 583 501 519 496 551 501 b 676 394 636 501 676 454 b 583 289 676 332 636 289 b 488 361 536 289 496 318 z "},"⑥":{"ha":1161,"x_min":0,"x_max":0,"o":"m 581 -24 b 1100 497 868 -24 1100 208 b 581 1015 1100 783 868 1015 b 61 497 293 1015 61 783 b 581 -24 61 208 293 -24 z m 169 497 b 581 908 169 726 350 908 b 993 497 811 908 993 726 b 581 85 993 267 811 85 b 169 497 350 85 169 267 z m 390 461 b 581 206 390 324 453 206 b 771 401 689 206 771 282 b 599 594 771 518 696 594 b 479 538 546 594 507 572 b 596 696 490 625 528 696 b 675 642 636 696 663 678 l 768 650 b 597 782 746 733 676 782 b 390 461 451 782 390 629 z m 492 401 b 585 507 493 464 532 507 b 674 401 643 507 674 464 b 583 293 674 338 640 293 b 492 401 528 293 490 338 z "},"⑦":{"ha":1161,"x_min":0,"x_max":0,"o":"m 581 -24 b 1100 497 868 -24 1100 208 b 581 1015 1100 783 868 1015 b 61 497 293 1015 61 783 b 581 -24 61 208 293 -24 z m 169 497 b 581 908 169 726 350 908 b 993 497 811 908 993 726 b 581 85 993 267 811 85 b 169 497 350 85 169 267 z m 389 675 l 663 675 b 501 224 563 543 501 386 l 597 224 b 772 696 597 400 664 560 l 772 763 l 389 763 z "},"⑧":{"ha":1161,"x_min":0,"x_max":0,"o":"m 581 -24 b 1100 497 868 -24 1100 208 b 581 1015 1100 783 868 1015 b 61 497 293 1015 61 783 b 581 -24 61 208 293 -24 z m 169 497 b 581 908 169 726 350 908 b 993 497 811 908 993 726 b 581 85 993 267 811 85 b 169 497 350 85 169 267 z m 381 371 b 581 206 381 269 467 206 b 781 371 694 206 781 269 b 671 518 781 439 739 490 b 754 632 724 539 754 576 b 581 782 754 718 679 782 b 407 632 483 782 407 718 b 490 518 407 576 438 539 b 381 371 421 492 381 439 z m 478 379 b 581 475 478 435 519 475 b 683 379 642 475 683 435 b 581 293 683 326 642 293 b 478 379 519 293 478 326 z m 504 626 b 581 694 504 668 535 694 b 657 626 626 694 657 668 b 581 553 657 582 626 553 b 504 626 535 553 504 582 z "},"⑨":{"ha":1161,"x_min":0,"x_max":0,"o":"m 581 -24 b 1100 497 868 -24 1100 208 b 581 1015 1100 783 868 1015 b 61 497 293 1015 61 783 b 581 -24 61 208 293 -24 z m 169 497 b 581 908 169 726 350 908 b 993 497 811 908 993 726 b 581 85 993 267 811 85 b 169 497 350 85 169 267 z m 390 586 b 563 393 390 469 465 393 b 682 451 615 393 656 415 b 565 292 671 350 628 292 b 486 346 525 292 499 310 l 392 338 b 564 206 414 254 485 206 b 771 526 690 206 771 331 b 581 782 771 664 707 782 b 390 586 472 782 390 706 z m 488 586 b 578 694 488 650 521 694 b 671 586 632 694 672 650 b 576 481 669 524 628 481 b 488 586 518 481 488 524 z "},"⁄":{"ha":833,"x_min":0,"x_max":0,"o":"m 815 986 l 690 986 l 18 0 l 143 0 z "},"½":{"ha":1350,"x_min":0,"x_max":0,"o":"m 1050 986 l 925 986 l 253 0 l 378 0 z m 64 789 l 199 790 l 199 449 l 299 449 l 299 988 l 222 988 b 97 860 222 906 179 860 l 64 860 z m 913 0 l 1285 0 l 1285 88 l 1024 88 b 1115 190 1028 121 1065 156 l 1154 215 b 1282 400 1235 269 1282 328 b 1111 557 1282 493 1210 557 b 919 381 1010 557 932 488 l 1017 376 b 1111 469 1028 439 1058 469 b 1185 400 1154 469 1185 442 b 1115 299 1185 361 1164 331 l 1071 269 b 913 0 933 179 913 86 z "},"⅓":{"ha":1331,"x_min":0,"x_max":0,"o":"m 1050 986 l 925 986 l 253 0 l 378 0 z m 64 789 l 199 790 l 199 449 l 299 449 l 299 988 l 222 988 b 97 860 222 906 179 860 l 64 860 z m 876 135 b 1075 -22 882 47 967 -22 b 1267 142 1182 -22 1267 50 b 1150 290 1267 210 1217 272 b 1246 413 1211 308 1246 360 b 1072 557 1246 493 1171 557 b 894 421 983 557 906 497 l 992 415 b 1072 469 994 446 1026 469 b 1149 397 1117 469 1149 438 b 1067 328 1149 364 1115 328 l 1032 328 l 1032 243 l 1067 243 b 1169 150 1126 243 1169 201 b 1075 65 1169 101 1129 65 b 972 139 1019 65 976 97 z "},"⅔":{"ha":1324,"x_min":0,"x_max":0,"o":"m 1043 986 l 918 986 l 246 0 l 371 0 z m 65 451 l 438 451 l 438 539 l 176 539 b 268 642 181 572 218 607 l 307 667 b 435 851 388 721 435 779 b 264 1008 435 944 363 1008 b 72 832 163 1008 85 939 l 169 828 b 264 921 181 890 211 921 b 338 851 307 921 338 893 b 268 750 338 813 317 782 l 224 721 b 65 451 86 631 65 538 z m 869 135 b 1068 -22 875 47 960 -22 b 1260 142 1175 -22 1260 50 b 1143 290 1260 210 1210 272 b 1239 413 1204 308 1239 360 b 1065 557 1239 493 1164 557 b 888 421 976 557 899 497 l 985 415 b 1065 469 988 446 1019 469 b 1142 397 1110 469 1142 438 b 1060 328 1142 364 1108 328 l 1025 328 l 1025 243 l 1060 243 b 1163 150 1119 243 1163 201 b 1068 65 1163 101 1122 65 b 965 139 1013 65 969 97 z "},"¼":{"ha":1324,"x_min":0,"x_max":0,"o":"m 1050 986 l 925 986 l 253 0 l 378 0 z m 64 789 l 199 790 l 199 449 l 299 449 l 299 988 l 222 988 b 97 860 222 906 179 860 l 64 860 z m 850 103 l 1104 103 l 1104 0 l 1200 0 l 1200 103 l 1260 103 l 1260 192 l 1200 192 l 1200 539 l 1121 539 l 850 181 z m 972 192 l 1104 368 l 1104 192 z "},"¾":{"ha":1350,"x_min":0,"x_max":0,"o":"m 1076 986 l 951 986 l 279 0 l 404 0 z m 65 586 b 264 429 71 499 156 429 b 456 593 371 429 456 501 b 339 742 456 661 406 724 b 435 864 400 760 435 811 b 261 1008 435 944 360 1008 b 83 872 172 1008 94 949 l 181 867 b 261 921 183 897 215 921 b 338 849 306 921 338 889 b 256 779 338 815 304 779 l 221 779 l 221 694 l 256 694 b 358 601 315 694 358 653 b 264 517 358 553 318 517 b 161 590 208 517 165 549 z m 876 103 l 1131 103 l 1131 0 l 1226 0 l 1226 103 l 1286 103 l 1286 192 l 1226 192 l 1226 539 l 1147 539 l 876 181 z m 999 192 l 1131 368 l 1131 192 z "},"⅕":{"ha":1315,"x_min":0,"x_max":0,"o":"m 1050 986 l 925 986 l 253 0 l 378 0 z m 64 789 l 199 790 l 199 449 l 299 449 l 299 988 l 222 988 b 97 860 222 906 179 860 l 64 860 z m 868 133 b 1058 -22 876 42 957 -22 b 1251 171 1169 -22 1251 57 b 1076 361 1251 279 1176 361 b 985 325 1039 361 1011 350 l 1001 453 l 1215 453 l 1215 540 l 921 540 l 878 225 l 969 225 b 1061 278 997 272 1029 278 b 1154 171 1114 278 1154 231 b 1061 65 1154 108 1114 65 b 965 138 1014 65 974 94 z "},"⅛":{"ha":1328,"x_min":0,"x_max":0,"o":"m 1050 986 l 925 986 l 253 0 l 378 0 z m 64 789 l 199 790 l 199 449 l 299 449 l 299 988 l 222 988 b 97 860 222 906 179 860 l 64 860 z m 864 143 b 1064 -22 864 42 950 -22 b 1264 143 1178 -22 1264 42 b 1154 290 1264 211 1222 263 b 1238 404 1207 311 1238 349 b 1064 554 1238 490 1163 554 b 890 404 967 554 890 490 b 974 290 890 349 921 311 b 864 143 904 264 864 211 z m 961 151 b 1064 247 961 207 1003 247 b 1167 151 1125 247 1167 207 b 1064 65 1167 99 1125 65 b 961 151 1003 65 961 99 z m 988 399 b 1064 467 988 440 1018 467 b 1140 399 1110 467 1140 440 b 1064 325 1140 354 1110 325 b 988 399 1018 325 988 354 z "},"⅜":{"ha":1354,"x_min":0,"x_max":0,"o":"m 1076 986 l 951 986 l 279 0 l 404 0 z m 65 586 b 264 429 71 499 156 429 b 456 593 371 429 456 501 b 339 742 456 661 406 724 b 435 864 400 760 435 811 b 261 1008 435 944 360 1008 b 83 872 172 1008 94 949 l 181 867 b 261 921 183 897 215 921 b 338 849 306 921 338 889 b 256 779 338 815 304 779 l 221 779 l 221 694 l 256 694 b 358 601 315 694 358 653 b 264 517 358 553 318 517 b 161 590 208 517 165 549 z m 890 143 b 1090 -22 890 42 976 -22 b 1290 143 1204 -22 1290 42 b 1181 290 1290 211 1249 263 b 1264 404 1233 311 1264 349 b 1090 554 1264 490 1189 554 b 917 404 993 554 917 490 b 1000 290 917 349 947 311 b 890 143 931 264 890 211 z m 988 151 b 1090 247 988 207 1029 247 b 1193 151 1151 247 1193 207 b 1090 65 1193 99 1151 65 b 988 151 1029 65 988 99 z m 1014 399 b 1090 467 1014 440 1044 467 b 1167 399 1136 467 1167 440 b 1090 325 1167 354 1136 325 b 1014 399 1044 325 1014 354 z "},"⅝":{"ha":1347,"x_min":0,"x_max":0,"o":"m 1069 986 l 944 986 l 272 0 l 397 0 z m 64 581 b 254 425 72 489 153 425 b 447 618 365 425 447 504 b 272 808 447 726 372 808 b 181 772 235 808 207 797 l 197 900 l 411 900 l 411 988 l 117 988 l 74 672 l 165 672 b 257 725 193 719 225 725 b 350 618 310 725 350 678 b 257 513 350 556 310 513 b 161 585 210 513 169 542 z m 883 143 b 1083 -22 883 42 969 -22 b 1283 143 1197 -22 1283 42 b 1174 290 1283 211 1242 263 b 1257 404 1226 311 1257 349 b 1083 554 1257 490 1182 554 b 910 404 986 554 910 490 b 993 290 910 349 940 311 b 883 143 924 264 883 211 z m 981 151 b 1083 247 981 207 1022 247 b 1186 151 1144 247 1186 207 b 1083 65 1186 99 1144 65 b 981 151 1022 65 981 99 z m 1007 399 b 1083 467 1007 440 1038 467 b 1160 399 1129 467 1160 440 b 1083 325 1160 354 1129 325 b 1007 399 1038 325 1007 354 z "},"⅞":{"ha":1667,"x_min":0,"x_max":0,"o":"m 1232 986 l 1107 986 l 435 0 l 560 0 z m 231 899 l 504 899 b 343 447 404 767 343 610 l 439 447 b 614 919 439 624 506 783 l 614 986 l 231 986 z m 1046 143 b 1246 -22 1046 42 1132 -22 b 1446 143 1360 -22 1446 42 b 1336 290 1446 211 1404 263 b 1419 404 1389 311 1419 349 b 1246 554 1419 490 1344 554 b 1072 404 1149 554 1072 490 b 1156 290 1072 349 1103 311 b 1046 143 1086 264 1046 211 z m 1143 151 b 1246 247 1143 207 1185 247 b 1349 151 1307 247 1349 207 b 1246 65 1349 99 1307 65 b 1143 151 1185 65 1143 99 z m 1169 399 b 1246 467 1169 440 1200 467 b 1322 399 1292 467 1322 440 b 1246 325 1322 354 1292 325 b 1169 399 1200 325 1169 354 z "},"₀":{"ha":833,"x_min":0,"x_max":0,"o":"m 417 -21 b 631 267 547 -21 631 90 b 417 557 631 444 547 557 b 203 267 286 557 203 444 b 417 -21 203 90 286 -21 z m 296 267 b 417 469 296 397 340 469 b 481 446 442 469 464 461 l 308 169 b 296 267 300 197 296 229 z m 353 90 l 525 368 b 538 267 533 339 538 306 b 417 67 538 140 493 67 b 353 90 392 67 369 75 z "},"₁":{"ha":833,"x_min":0,"x_max":0,"o":"m 282 411 l 249 411 l 249 340 l 383 342 l 383 0 l 483 0 l 483 539 l 407 539 b 282 411 407 457 364 411 z "},"₂":{"ha":833,"x_min":0,"x_max":0,"o":"m 228 381 l 325 376 b 419 469 336 439 367 469 b 493 400 463 469 493 442 b 424 299 493 361 472 331 l 379 269 b 221 0 242 179 221 86 l 593 0 l 593 88 l 332 88 b 424 190 336 121 374 156 l 463 215 b 590 400 543 269 590 328 b 419 557 590 493 518 557 b 228 381 318 557 240 488 z "},"₃":{"ha":833,"x_min":0,"x_max":0,"o":"m 411 328 l 376 328 l 376 243 l 411 243 b 514 150 471 243 514 201 b 419 65 514 101 474 65 b 317 139 364 65 321 97 l 221 135 b 419 -22 226 47 311 -22 b 611 142 526 -22 611 50 b 494 290 611 210 561 272 b 590 413 556 308 590 360 b 417 557 590 493 515 557 b 239 421 328 557 250 497 l 336 415 b 417 469 339 446 371 469 b 493 397 461 469 493 438 b 411 328 493 364 460 328 z "},"₄":{"ha":833,"x_min":0,"x_max":0,"o":"m 535 539 l 456 539 l 185 181 l 185 103 l 439 103 l 439 0 l 535 0 l 535 103 l 594 103 l 594 192 l 535 192 z m 307 192 l 439 368 l 439 192 z "},"₅":{"ha":833,"x_min":0,"x_max":0,"o":"m 574 540 l 279 540 l 236 225 l 328 225 b 419 278 356 272 388 278 b 513 171 472 278 513 231 b 419 65 513 108 472 65 b 324 138 372 65 332 94 l 226 133 b 417 -22 235 42 315 -22 b 610 171 528 -22 610 57 b 435 361 610 279 535 361 b 343 325 397 361 369 350 l 360 453 l 574 453 z "},"₆":{"ha":833,"x_min":0,"x_max":0,"o":"m 513 414 l 606 422 b 435 554 583 506 514 554 b 228 233 289 554 228 401 b 418 -22 228 96 290 -22 b 608 174 526 -22 608 54 b 436 367 608 290 533 367 b 317 310 383 367 344 344 b 433 468 328 397 365 468 b 513 414 474 468 500 450 z m 329 174 b 422 279 331 236 369 279 b 511 174 481 279 511 236 b 421 65 511 110 478 65 b 329 174 365 65 328 110 z "},"₇":{"ha":833,"x_min":0,"x_max":0,"o":"m 231 538 l 231 450 l 504 450 b 343 -1 404 318 343 161 l 439 -1 b 614 471 439 175 506 335 l 614 538 z "},"₈":{"ha":833,"x_min":0,"x_max":0,"o":"m 417 -22 b 617 143 531 -22 617 42 b 507 290 617 211 575 263 b 590 404 560 311 590 349 b 417 554 590 490 515 554 b 243 404 319 554 243 490 b 326 290 243 349 274 311 b 217 143 257 264 217 211 b 417 -22 217 42 303 -22 z m 314 151 b 417 247 314 207 356 247 b 519 151 478 247 519 207 b 417 65 519 99 478 65 b 314 151 356 65 314 99 z m 340 399 b 417 467 340 440 371 467 b 493 399 463 467 493 440 b 417 325 493 354 463 325 b 340 399 371 325 340 354 z "},"₉":{"ha":833,"x_min":0,"x_max":0,"o":"m 326 118 l 232 110 b 404 -22 254 26 325 -22 b 611 299 531 -22 611 103 b 421 554 611 436 547 554 b 231 358 313 554 231 478 b 403 165 231 242 306 165 b 522 224 456 165 496 188 b 406 64 511 122 468 64 b 326 118 365 64 339 82 z m 328 358 b 418 467 328 422 361 467 b 511 358 472 467 513 422 b 417 253 510 296 468 253 b 328 358 358 253 328 296 z "},"⁰":{"ha":833,"x_min":0,"x_max":0,"o":"m 417 431 b 631 718 547 431 631 542 b 417 1008 631 896 547 1008 b 203 718 286 1008 203 896 b 417 431 203 542 286 431 z m 296 718 b 417 921 296 849 340 921 b 481 897 442 921 464 913 l 308 621 b 296 718 300 649 296 681 z m 353 542 l 525 819 b 538 718 533 790 538 757 b 417 518 538 592 493 518 b 353 542 392 518 369 526 z "},"¹":{"ha":833,"x_min":0,"x_max":0,"o":"m 282 860 l 249 860 l 249 789 l 383 790 l 383 449 l 483 449 l 483 988 l 407 988 b 282 860 407 906 364 860 z "},"²":{"ha":833,"x_min":0,"x_max":0,"o":"m 228 832 l 325 828 b 419 921 336 890 367 921 b 493 851 463 921 493 893 b 424 750 493 813 472 782 l 379 721 b 221 451 242 631 221 538 l 593 451 l 593 539 l 332 539 b 424 642 336 572 374 607 l 463 667 b 590 851 543 721 590 779 b 419 1008 590 944 518 1008 b 228 832 318 1008 240 939 z "},"³":{"ha":833,"x_min":0,"x_max":0,"o":"m 411 779 l 376 779 l 376 694 l 411 694 b 514 601 471 694 514 653 b 419 517 514 553 474 517 b 317 590 364 517 321 549 l 221 586 b 419 429 226 499 311 429 b 611 593 526 429 611 501 b 494 742 611 661 561 724 b 590 864 556 760 590 811 b 417 1008 590 944 515 1008 b 239 872 328 1008 250 949 l 336 867 b 417 921 339 897 371 921 b 493 849 461 921 493 889 b 411 779 493 815 460 779 z "},"⁴":{"ha":833,"x_min":0,"x_max":0,"o":"m 535 988 l 456 988 l 185 629 l 185 551 l 439 551 l 439 449 l 535 449 l 535 551 l 594 551 l 594 640 l 535 640 z m 307 640 l 439 817 l 439 640 z "},"⁵":{"ha":833,"x_min":0,"x_max":0,"o":"m 574 988 l 279 988 l 236 672 l 328 672 b 419 725 356 719 388 725 b 513 618 472 725 513 678 b 419 513 513 556 472 513 b 324 585 372 513 332 542 l 226 581 b 417 425 235 489 315 425 b 610 618 528 425 610 504 b 435 808 610 726 535 808 b 343 772 397 808 369 797 l 360 900 l 574 900 z "},"⁶":{"ha":833,"x_min":0,"x_max":0,"o":"m 513 868 l 606 876 b 435 1008 583 960 514 1008 b 228 688 289 1008 228 856 b 418 432 228 550 290 432 b 608 628 526 432 608 508 b 436 821 608 744 533 821 b 317 764 383 821 344 799 b 433 922 328 851 365 922 b 513 868 474 922 500 904 z m 329 628 b 422 733 331 690 369 733 b 511 628 481 733 511 690 b 421 519 511 564 478 519 b 329 628 365 519 328 564 z "},"⁷":{"ha":833,"x_min":0,"x_max":0,"o":"m 231 986 l 231 899 l 504 899 b 343 447 404 767 343 610 l 439 447 b 614 919 439 624 506 783 l 614 986 z "},"⁸":{"ha":833,"x_min":0,"x_max":0,"o":"m 417 432 b 617 597 531 432 617 496 b 507 744 617 665 575 717 b 590 858 560 765 590 803 b 417 1008 590 944 515 1008 b 243 858 319 1008 243 944 b 326 744 243 803 274 765 b 217 597 257 718 217 665 b 417 432 217 496 303 432 z m 314 606 b 417 701 314 661 356 701 b 519 606 478 701 519 661 b 417 519 519 553 478 519 b 314 606 356 519 314 553 z m 340 853 b 417 921 340 894 371 921 b 493 853 463 921 493 894 b 417 779 493 808 463 779 b 340 853 371 779 340 808 z "},"⁹":{"ha":833,"x_min":0,"x_max":0,"o":"m 326 572 l 232 564 b 404 432 254 481 325 432 b 611 753 531 432 611 557 b 421 1008 611 890 547 1008 b 231 813 313 1008 231 932 b 403 619 231 696 306 619 b 522 678 456 619 496 642 b 406 518 511 576 468 518 b 326 572 365 518 339 536 z m 328 813 b 418 921 328 876 361 921 b 511 813 472 921 513 876 b 417 707 510 750 468 707 b 328 813 358 707 328 750 z "}," ":{"ha":338,"x_min":0,"x_max":0,"o":""},"。":{"ha":492,"x_min":0,"x_max":0,"o":"m 247 -158 b 429 25 349 -158 429 -76 b 247 211 429 128 349 211 b 61 25 146 211 61 128 b 247 -158 61 -76 146 -158 z m 168 25 b 247 107 168 68 204 107 b 325 25 292 107 325 68 b 247 -54 325 -18 292 -54 b 168 25 204 -54 168 -18 z "},".":{"ha":296,"x_min":0,"x_max":0,"o":"m 61 169 l 61 0 l 235 0 l 235 169 z "},",":{"ha":297,"x_min":0,"x_max":0,"o":"m 236 0 l 235 0 l 235 169 l 61 169 l 61 0 l 125 0 l 68 -215 l 151 -215 z "},":":{"ha":413,"x_min":0,"x_max":0,"o":"m 119 169 l 119 0 l 293 0 l 293 169 z m 119 476 l 293 476 l 293 646 l 119 646 z "},";":{"ha":413,"x_min":0,"x_max":0,"o":"m 119 646 l 119 476 l 293 476 l 293 646 z m 119 0 l 183 0 l 126 -215 l 210 -215 l 294 0 l 293 0 l 293 169 l 119 169 z "},"…":{"ha":851,"x_min":0,"x_max":0,"o":"m 61 169 l 61 0 l 235 0 l 235 169 z m 338 0 l 511 0 l 511 169 l 338 169 z m 615 0 l 789 0 l 789 169 l 615 169 z "},"!":{"ha":317,"x_min":0,"x_max":0,"o":"m 88 986 l 88 674 b 114 296 88 547 104 421 l 211 296 b 236 674 219 421 236 547 l 236 986 z m 71 0 l 244 0 l 244 169 l 71 169 z "},"¡":{"ha":317,"x_min":0,"x_max":0,"o":"m 88 88 l 88 -225 l 236 -225 l 236 88 b 211 465 236 214 219 340 l 114 465 b 88 88 104 340 88 214 z m 71 592 l 244 592 l 244 761 l 71 761 z "},"?":{"ha":799,"x_min":0,"x_max":0,"o":"m 321 296 l 469 296 b 569 483 469 386 496 433 b 738 729 688 561 738 633 b 399 1008 738 893 599 1008 b 61 694 217 1008 79 875 l 217 686 b 404 874 232 797 301 874 b 583 729 514 874 583 814 b 451 565 583 643 518 619 b 321 296 351 489 321 419 z m 306 0 l 479 0 l 479 169 l 306 169 z "},"¿":{"ha":799,"x_min":0,"x_max":0,"o":"m 478 488 l 329 488 b 229 300 329 397 303 350 b 61 54 111 222 61 150 b 400 -225 61 -110 200 -225 b 738 89 582 -225 719 -92 l 582 97 b 394 -90 567 -14 497 -90 b 215 54 285 -90 215 -31 b 347 218 215 140 281 164 b 478 488 447 294 478 364 z m 319 614 l 493 614 l 493 783 l 319 783 z "},"·":{"ha":296,"x_min":0,"x_max":0,"o":"m 61 494 l 61 325 l 235 325 l 235 494 z "},"•":{"ha":428,"x_min":0,"x_max":0,"o":"m 215 232 b 368 383 304 232 368 297 b 215 533 368 471 304 533 b 61 383 128 533 61 471 b 215 232 61 297 128 232 z "},"*":{"ha":601,"x_min":0,"x_max":0,"o":"m 539 808 l 381 807 l 463 943 l 379 990 l 300 853 l 222 990 l 140 943 l 219 807 l 61 808 l 61 713 l 219 714 l 140 576 l 222 529 l 300 667 l 379 529 l 463 576 l 381 714 l 539 713 z "},"〃":{"ha":531,"x_min":0,"x_max":0,"o":"m 286 668 l 149 668 l 61 390 l 160 390 z m 244 390 l 343 390 l 468 668 l 332 668 z "},"#":{"ha":715,"x_min":0,"x_max":0,"o":"m 57 0 l 188 0 l 232 258 l 406 258 l 361 0 l 492 0 l 536 258 l 646 258 l 663 378 l 558 378 l 597 601 l 700 601 l 717 722 l 618 722 l 664 986 l 532 985 l 486 722 l 313 722 l 358 986 l 228 985 l 182 722 l 64 722 l 46 601 l 161 601 l 122 378 l 10 378 l -8 258 l 101 258 z m 253 378 l 292 601 l 465 601 l 426 378 z "},"/":{"ha":688,"x_min":0,"x_max":0,"o":"m 51 -153 l 194 -153 l 606 1042 l 461 1042 z "},"\\":{"ha":682,"x_min":0,"x_max":0,"o":"m 619 -153 l 210 1042 l 65 1042 l 476 -153 z "},"＆":{"ha":922,"x_min":0,"x_max":0,"o":"m 418 1008 b 644 729 564 997 685 872 b 454 515 622 650 557 576 l 658 257 b 697 446 689 299 700 378 l 850 432 b 753 147 846 322 810 214 l 876 0 l 701 0 l 654 56 b 422 -17 599 8 514 -17 b 54 263 203 -17 54 82 b 235 532 54 376 107 449 l 251 544 b 156 775 185 626 156 703 b 418 1008 156 919 281 1018 z m 207 267 b 414 114 207 174 286 114 b 556 164 474 114 528 133 l 336 440 b 207 267 276 403 206 349 z m 306 767 b 371 615 306 726 325 676 b 503 767 454 654 503 711 b 414 871 503 825 469 868 b 306 767 351 875 306 826 z "},"＊":{"ha":601,"x_min":0,"x_max":0,"o":"m 539 808 l 381 807 l 463 943 l 379 990 l 300 853 l 222 990 l 140 943 l 219 807 l 61 808 l 61 713 l 219 714 l 140 576 l 222 529 l 300 667 l 379 529 l 463 576 l 381 714 l 539 713 z "},"＠":{"ha":1278,"x_min":0,"x_max":0,"o":"m 814 681 l 807 611 b 632 696 776 663 711 696 b 335 403 454 696 351 557 b 578 114 317 249 400 114 b 796 238 672 114 763 167 b 1215 453 824 46 1196 53 b 693 986 1232 751 997 986 b 61 417 354 986 75 736 b 896 -83 42 -25 433 -257 l 869 31 b 186 417 472 -115 172 54 b 688 868 197 671 414 868 b 1100 447 931 868 1110 683 b 913 246 1093 251 965 174 b 899 369 893 265 894 328 l 922 681 z m 463 403 b 644 599 474 507 528 599 b 792 403 761 599 800 506 b 610 210 782 304 725 210 b 463 403 493 210 453 303 z "},"＼":{"ha":660,"x_min":0,"x_max":0,"o":"m 617 -153 l 207 1042 l 63 1042 l 474 -153 z "},"：":{"ha":296,"x_min":0,"x_max":0,"o":"m 61 169 l 61 0 l 235 0 l 235 169 z m 61 476 l 235 476 l 235 646 l 61 646 z "},"，":{"ha":297,"x_min":0,"x_max":0,"o":"m 236 0 l 235 0 l 235 169 l 61 169 l 61 0 l 125 0 l 68 -215 l 151 -215 z "},"！":{"ha":382,"x_min":0,"x_max":0,"o":"m 88 986 l 88 674 b 114 296 88 547 104 421 l 211 296 b 236 674 219 421 236 547 l 236 986 z m 71 0 l 244 0 l 244 169 l 71 169 z "},"＃":{"ha":715,"x_min":0,"x_max":0,"o":"m 54 0 l 185 0 l 229 258 l 403 258 l 358 0 l 489 0 l 533 258 l 643 258 l 660 378 l 556 378 l 594 601 l 697 601 l 714 722 l 615 722 l 661 986 l 529 985 l 483 722 l 310 722 l 356 986 l 225 985 l 179 722 l 61 722 l 43 601 l 158 601 l 119 378 l 7 378 l -11 258 l 99 258 z m 250 378 l 289 601 l 463 601 l 424 378 z "},"％":{"ha":1100,"x_min":0,"x_max":0,"o":"m 833 1008 l 114 -17 l 272 -17 l 992 1008 z m 61 747 b 269 508 61 613 154 508 b 478 747 385 508 478 613 b 269 988 478 883 385 988 b 61 747 154 988 61 883 z m 179 747 b 269 879 179 828 214 879 b 361 747 325 879 361 828 b 269 617 361 667 325 617 b 179 747 214 617 179 667 z m 622 240 b 831 0 622 104 715 0 b 1039 240 946 0 1039 104 b 831 479 1039 375 946 479 b 622 240 715 479 622 375 z m 740 240 b 831 371 740 321 775 371 b 921 240 886 371 921 321 b 831 108 921 160 886 108 b 740 240 775 108 740 160 z "},"．":{"ha":296,"x_min":0,"x_max":0,"o":"m 61 161 l 61 -8 l 235 -8 l 235 161 z "},"？":{"ha":799,"x_min":0,"x_max":0,"o":"m 321 296 l 469 296 b 569 483 469 386 496 433 b 738 729 688 561 738 633 b 399 1008 738 893 599 1008 b 61 694 217 1008 79 875 l 217 686 b 404 874 232 797 301 874 b 583 729 514 874 583 814 b 451 565 583 643 518 619 b 321 296 351 489 321 419 z m 306 0 l 479 0 l 479 169 l 306 169 z "},"＂":{"ha":503,"x_min":0,"x_max":0,"o":"m 306 986 l 311 617 l 408 617 l 440 874 l 440 986 z m 61 874 l 94 617 l 192 617 l 197 986 l 61 986 z "},"＇":{"ha":258,"x_min":0,"x_max":0,"o":"m 61 986 l 61 876 l 81 617 l 179 617 l 197 876 l 197 986 z "},"；":{"ha":297,"x_min":0,"x_max":0,"o":"m 61 646 l 61 476 l 235 476 l 235 646 z m 61 0 l 125 0 l 68 -215 l 151 -215 l 236 0 l 235 0 l 235 169 l 61 169 z "},"／":{"ha":668,"x_min":0,"x_max":0,"o":"m 50 -153 l 193 -153 l 604 1042 l 460 1042 z "},"＿":{"ha":782,"x_min":0,"x_max":0,"o":"m 61 -58 l 61 -186 l 721 -186 l 721 -58 z "},"-":{"ha":589,"x_min":0,"x_max":0,"o":"m 61 469 l 61 340 l 526 340 l 526 469 z "},"­":{"ha":596,"x_min":0,"x_max":0,"o":"m 61 469 l 61 340 l 526 340 l 526 469 z "},"–":{"ha":829,"x_min":0,"x_max":0,"o":"m 61 469 l 61 342 l 768 342 l 768 469 z "},"—":{"ha":1268,"x_min":0,"x_max":0,"o":"m 61 469 l 61 342 l 1207 342 l 1207 469 z "},"_":{"ha":782,"x_min":0,"x_max":0,"o":"m 61 -58 l 61 -186 l 721 -186 l 721 -58 z "},"〜":{"ha":1194,"x_min":0,"x_max":0,"o":"m 1053 569 l 1133 464 b 819 317 1032 367 926 317 b 569 403 757 317 728 322 b 381 456 506 436 433 456 b 139 331 289 456 218 417 l 61 440 b 379 594 186 556 267 594 b 582 542 439 594 521 574 b 819 456 732 463 757 456 b 1053 569 903 456 958 483 z "},"－":{"ha":1000,"x_min":0,"x_max":0,"o":"m 61 551 l 61 424 l 939 424 l 939 551 z "},"(":{"ha":449,"x_min":0,"x_max":0,"o":"m 388 1042 l 253 1042 b 253 -153 -1 656 -1 233 l 388 -153 b 388 1042 156 246 156 643 z "},")":{"ha":449,"x_min":0,"x_max":0,"o":"m 196 1042 l 61 1042 b 61 -153 293 643 293 246 l 196 -153 b 196 1042 450 233 450 656 z "},"{":{"ha":590,"x_min":0,"x_max":0,"o":"m 61 507 l 61 375 b 199 197 144 378 199 311 l 199 82 b 465 -164 199 -62 308 -164 l 529 -164 l 529 -35 b 339 92 393 -39 339 -1 l 339 206 b 160 440 339 332 267 424 l 160 443 b 339 675 264 460 339 550 l 339 790 b 529 914 339 882 393 918 l 529 1046 l 465 1046 b 199 799 308 1046 199 943 l 199 683 b 61 507 199 569 144 504 z "},"}":{"ha":590,"x_min":0,"x_max":0,"o":"m 529 375 l 529 507 b 392 683 446 504 392 569 l 392 799 b 125 1046 392 943 282 1046 l 61 1046 l 61 914 b 251 790 197 918 251 882 l 251 675 b 431 443 251 550 326 460 l 431 440 b 251 206 324 424 251 332 l 251 92 b 61 -35 251 -1 197 -39 l 61 -164 l 125 -164 b 392 82 282 -164 392 -62 l 392 197 b 529 375 392 311 446 378 z "},"[":{"ha":486,"x_min":0,"x_max":0,"o":"m 61 1042 l 61 -153 l 425 -153 l 425 -22 l 203 -22 l 203 911 l 425 911 l 425 1042 z "},"]":{"ha":486,"x_min":0,"x_max":0,"o":"m 425 1042 l 61 1042 l 61 911 l 283 911 l 283 -22 l 61 -22 l 61 -153 l 425 -153 z "},"〈":{"ha":514,"x_min":0,"x_max":0,"o":"m 310 1140 l 61 492 l 310 -158 l 454 -158 l 206 492 l 454 1140 z "},"〉":{"ha":514,"x_min":0,"x_max":0,"o":"m 206 1140 l 61 1140 l 310 492 l 61 -158 l 206 -158 l 454 492 z "},"【":{"ha":508,"x_min":0,"x_max":0,"o":"m 446 1146 l 61 1146 l 61 -87 l 446 -87 b 446 1146 200 311 200 749 z "},"】":{"ha":508,"x_min":0,"x_max":0,"o":"m 446 1146 l 61 1146 b 61 -87 307 749 307 311 l 446 -87 z "},"｛":{"ha":590,"x_min":0,"x_max":0,"o":"m 61 507 l 61 375 b 199 197 144 378 199 311 l 199 82 b 465 -164 199 -62 308 -164 l 529 -164 l 529 -35 b 339 92 393 -39 339 -1 l 339 206 b 160 440 339 332 267 424 l 160 443 b 339 675 264 460 339 550 l 339 790 b 529 914 339 882 393 918 l 529 1046 l 465 1046 b 199 799 308 1046 199 943 l 199 683 b 61 507 199 569 144 504 z "},"｝":{"ha":590,"x_min":0,"x_max":0,"o":"m 529 375 l 529 507 b 392 683 446 504 392 569 l 392 799 b 125 1046 392 943 282 1046 l 61 1046 l 61 914 b 251 790 197 918 251 882 l 251 675 b 431 443 251 550 326 460 l 431 440 b 251 206 324 424 251 332 l 251 92 b 61 -35 251 -1 197 -39 l 61 -164 l 125 -164 b 392 82 282 -164 392 -62 l 392 197 b 529 375 392 311 446 378 z "},"「":{"ha":544,"x_min":0,"x_max":0,"o":"m 61 326 l 181 326 l 181 1031 l 483 1031 l 483 1147 l 61 1147 z "},"」":{"ha":544,"x_min":0,"x_max":0,"o":"m 483 678 l 364 678 l 364 -26 l 61 -26 l 61 -143 l 483 -143 z "},"《":{"ha":779,"x_min":0,"x_max":0,"o":"m 310 1140 l 61 492 l 310 -158 l 454 -158 l 206 492 l 454 1140 z m 326 492 l 575 -158 l 719 -158 l 471 492 l 719 1140 l 575 1140 z "},"》":{"ha":779,"x_min":0,"x_max":0,"o":"m 469 1140 l 325 1140 l 574 492 l 325 -158 l 469 -158 l 718 492 z m 61 -158 l 206 -158 l 454 492 l 206 1140 l 61 1140 l 310 492 z "},"〔":{"ha":550,"x_min":0,"x_max":0,"o":"m 407 1181 l 61 871 l 61 111 l 410 -203 l 488 -118 l 181 158 l 181 824 l 485 1096 z "},"〕":{"ha":550,"x_min":0,"x_max":0,"o":"m 142 1181 l 64 1096 l 368 824 l 368 158 l 61 -118 l 139 -203 l 488 111 l 488 871 z "},"『":{"ha":544,"x_min":0,"x_max":0,"o":"m 61 324 l 283 324 l 283 925 l 482 925 l 482 1147 l 61 1147 z m 119 381 l 119 1090 l 425 1090 l 425 982 l 226 982 l 226 381 z "},"』":{"ha":544,"x_min":0,"x_max":0,"o":"m 482 683 l 260 683 l 260 82 l 61 82 l 61 -140 l 482 -140 z m 118 -83 l 118 25 l 317 25 l 317 626 l 424 626 l 424 -83 z "},"〖":{"ha":507,"x_min":0,"x_max":0,"o":"m 446 1146 l 61 1146 l 61 -87 l 446 -87 b 446 1146 200 311 200 749 z m 125 -26 l 125 1085 l 336 1085 b 336 -26 150 717 151 344 z "},"〗":{"ha":507,"x_min":0,"x_max":0,"o":"m 446 1146 l 61 1146 b 61 -87 307 749 307 311 l 446 -87 z m 171 -26 b 171 1085 356 344 357 717 l 382 1085 l 382 -26 z "},"［":{"ha":486,"x_min":0,"x_max":0,"o":"m 61 1042 l 61 -153 l 425 -153 l 425 -22 l 203 -22 l 203 911 l 425 911 l 425 1042 z "},"］":{"ha":486,"x_min":0,"x_max":0,"o":"m 425 1042 l 61 1042 l 61 911 l 283 911 l 283 -22 l 61 -22 l 61 -153 l 425 -153 z "},"（":{"ha":449,"x_min":0,"x_max":0,"o":"m 388 1042 l 253 1042 b 253 -153 -1 656 -1 233 l 388 -153 b 388 1042 156 246 156 643 z "},"）":{"ha":449,"x_min":0,"x_max":0,"o":"m 196 1042 l 61 1042 b 61 -153 293 643 293 246 l 196 -153 b 196 1042 450 233 450 656 z "},"‚":{"ha":303,"x_min":0,"x_max":0,"o":"m 239 0 l 238 0 l 238 169 l 64 169 l 64 0 l 128 0 l 71 -215 l 154 -215 z "},"„":{"ha":554,"x_min":0,"x_max":0,"o":"m 492 0 l 490 0 l 490 169 l 317 169 l 317 0 l 381 0 l 324 -215 l 407 -215 z m 64 0 l 128 0 l 71 -215 l 154 -215 l 239 0 l 238 0 l 238 169 l 64 169 z "},"“":{"ha":554,"x_min":0,"x_max":0,"o":"m 64 789 l 65 789 l 65 619 l 239 619 l 239 789 l 175 789 l 232 1004 l 149 1004 z m 317 789 l 318 789 l 318 619 l 492 619 l 492 789 l 428 789 l 485 1004 l 401 1004 z "},"”":{"ha":554,"x_min":0,"x_max":0,"o":"m 492 817 l 490 817 l 490 986 l 317 986 l 317 817 l 381 817 l 324 601 l 407 601 z m 64 817 l 128 817 l 71 601 l 154 601 l 239 817 l 238 817 l 238 986 l 64 986 z "},"‘":{"ha":303,"x_min":0,"x_max":0,"o":"m 64 789 l 65 789 l 65 619 l 239 619 l 239 789 l 175 789 l 232 1004 l 149 1004 z "},"’":{"ha":303,"x_min":0,"x_max":0,"o":"m 239 818 l 238 818 l 238 988 l 64 988 l 64 818 l 128 818 l 71 603 l 154 603 z "},"«":{"ha":800,"x_min":0,"x_max":0,"o":"m 258 661 l 61 428 l 61 339 l 258 106 l 431 106 l 194 383 l 431 661 z m 369 339 l 567 106 l 739 106 l 503 383 l 739 661 l 567 661 l 369 428 z "},"»":{"ha":800,"x_min":0,"x_max":0,"o":"m 543 661 l 371 661 l 607 383 l 371 106 l 543 106 l 740 339 l 740 428 z m 61 106 l 233 106 l 431 339 l 431 428 l 233 661 l 61 661 l 297 383 z "},"‹":{"ha":492,"x_min":0,"x_max":0,"o":"m 258 661 l 61 428 l 61 339 l 258 106 l 431 106 l 194 383 l 431 661 z "},"›":{"ha":492,"x_min":0,"x_max":0,"o":"m 233 661 l 61 661 l 297 383 l 61 106 l 233 106 l 431 339 l 431 428 z "},"\"":{"ha":508,"x_min":0,"x_max":0,"o":"m 308 986 l 314 617 l 411 617 l 443 874 l 443 986 z m 64 874 l 97 617 l 194 617 l 200 986 l 64 986 z "},"'":{"ha":264,"x_min":0,"x_max":0,"o":"m 64 986 l 64 876 l 83 617 l 182 617 l 200 876 l 200 986 z "},"ƒ":{"ha":721,"x_min":0,"x_max":0,"o":"m 76 0 l 172 -1 b 388 189 300 -4 374 65 l 435 606 l 667 606 l 667 726 l 447 726 l 454 783 b 539 861 460 833 489 861 l 667 861 l 667 985 l 528 986 b 314 796 403 988 328 919 l 307 726 l 181 726 l 181 606 l 293 606 l 249 201 b 164 125 243 151 214 125 l 76 125 z "},"฿":{"ha":904,"x_min":0,"x_max":0,"o":"m 119 0 l 376 0 l 376 -126 l 483 -126 l 483 0 b 824 279 699 4 824 108 b 597 510 824 411 739 494 b 782 713 708 526 782 606 b 483 983 782 872 678 967 l 483 1118 l 376 1118 l 376 986 l 119 986 z m 269 135 l 269 438 l 376 438 l 376 135 z m 269 565 l 269 851 l 376 851 l 376 565 z m 483 135 l 483 438 b 674 285 607 435 674 379 b 483 135 674 193 603 138 z m 483 569 l 483 847 b 632 707 581 833 632 785 b 483 569 632 631 581 582 z "},"☹":{"ha":1161,"x_min":0,"x_max":0,"o":"m 581 -24 b 1100 497 868 -24 1100 208 b 581 1015 1100 783 868 1015 b 61 497 293 1015 61 783 b 581 -24 61 208 293 -24 z m 169 497 b 581 908 169 726 350 908 b 993 497 811 908 993 726 b 581 85 993 267 811 85 b 169 497 350 85 169 267 z m 307 286 l 413 286 b 585 415 443 369 504 415 b 756 286 664 415 726 369 l 861 286 b 585 514 829 425 722 514 b 307 286 447 514 340 425 z m 375 644 b 446 572 375 604 406 572 b 517 644 485 572 517 604 b 446 713 517 682 485 713 b 375 644 406 713 375 682 z m 654 644 b 725 572 654 604 686 572 b 796 644 764 572 796 604 b 725 713 796 682 764 713 b 654 644 686 713 654 682 z "},"☺":{"ha":1161,"x_min":0,"x_max":0,"o":"m 581 -24 b 1100 497 868 -24 1100 208 b 581 1015 1100 783 868 1015 b 61 497 293 1015 61 783 b 581 -24 61 208 293 -24 z m 169 497 b 581 908 169 726 350 908 b 993 497 811 908 993 726 b 581 85 993 267 811 85 b 169 497 350 85 169 267 z m 286 488 b 585 228 307 338 432 228 b 885 488 738 228 863 338 l 783 488 b 585 325 761 393 681 325 b 386 488 488 325 407 393 z m 375 644 b 446 572 375 604 406 572 b 517 644 485 572 517 604 b 446 713 517 682 485 713 b 375 644 406 713 375 682 z m 654 644 b 725 572 654 604 686 572 b 796 644 764 572 796 604 b 725 713 796 682 764 713 b 654 644 686 713 654 682 z "},"@":{"ha":1292,"x_min":0,"x_max":0,"o":"m 819 681 l 814 611 b 638 696 783 664 718 696 b 342 403 461 696 358 557 b 585 114 324 249 407 114 b 803 239 681 114 771 167 b 1226 453 829 46 1207 51 b 699 986 1242 751 1011 986 b 64 417 357 986 78 736 b 903 -83 44 -25 438 -260 l 876 31 b 193 417 479 -115 179 54 b 694 868 204 671 421 868 b 1107 447 938 868 1115 683 b 919 246 1100 251 972 174 b 906 369 900 265 901 328 l 929 681 z m 471 403 b 651 599 482 506 536 599 b 796 403 765 599 806 506 b 617 210 786 304 731 210 b 471 403 500 210 461 303 z "},"&":{"ha":901,"x_min":0,"x_max":0,"o":"m 418 1008 b 644 729 564 997 685 872 b 454 515 622 650 557 576 l 658 257 b 697 446 689 299 700 378 l 850 432 b 753 147 846 322 810 214 l 876 0 l 701 0 l 654 56 b 422 -17 599 8 514 -17 b 54 263 203 -17 54 82 b 235 532 54 376 107 449 l 251 544 b 156 775 185 626 156 703 b 418 1008 156 919 281 1018 z m 207 267 b 414 114 207 174 286 114 b 556 164 474 114 528 133 l 336 440 b 207 267 276 403 206 349 z m 306 767 b 371 615 306 726 325 676 b 503 767 454 654 503 711 b 414 871 503 825 469 868 b 306 767 351 875 306 826 z "},"¶":{"ha":849,"x_min":0,"x_max":0,"o":"m 729 986 l 386 986 b 49 706 179 986 49 878 b 372 426 49 538 174 431 l 372 0 l 503 0 l 503 881 l 599 881 l 599 0 l 729 0 z "},"§":{"ha":794,"x_min":0,"x_max":0,"o":"m 565 696 l 715 704 b 404 944 693 858 542 944 b 104 724 232 944 104 867 b 225 572 104 657 144 608 b 101 401 140 533 101 474 b 376 186 99 290 176 231 b 560 67 494 157 560 122 b 410 -28 560 10 500 -28 b 229 107 314 -28 242 24 l 78 99 b 411 -151 92 -50 231 -151 b 713 58 571 -151 713 -81 b 601 231 713 131 688 189 b 715 382 678 263 715 313 b 418 621 715 514 632 574 b 257 731 293 653 257 678 b 393 822 256 785 314 822 b 565 696 490 822 551 774 z m 254 408 b 389 496 254 460 311 496 b 563 392 458 496 563 468 b 411 300 563 335 501 300 b 254 408 297 313 254 354 z "},"©":{"ha":1153,"x_min":0,"x_max":0,"o":"m 582 785 b 838 569 726 785 825 701 l 721 563 b 582 682 710 636 657 682 b 421 496 482 682 421 615 b 582 308 421 376 482 308 b 725 439 661 308 715 356 l 843 431 b 582 206 829 293 731 206 b 303 496 411 206 303 317 b 582 785 303 675 411 785 z m 64 496 b 576 -17 64 213 293 -17 b 1089 496 860 -17 1089 213 b 576 1008 1089 779 860 1008 b 64 496 293 1008 64 779 z m 171 496 b 576 903 171 719 354 903 b 982 496 799 903 982 719 b 576 89 982 272 799 89 b 171 496 354 89 171 272 z "},"®":{"ha":829,"x_min":0,"x_max":0,"o":"m 404 843 l 276 843 l 276 469 l 353 469 l 353 611 l 407 611 l 489 469 l 574 469 l 481 622 b 560 726 532 636 560 675 b 404 843 560 799 501 843 z m 64 658 b 414 306 64 464 219 306 b 764 658 608 306 764 464 b 414 1008 764 851 608 1008 b 64 658 219 1008 64 851 z m 147 658 b 414 924 147 804 269 924 b 681 658 560 924 681 804 b 414 390 681 511 560 390 b 147 658 269 390 147 511 z m 353 675 l 353 778 l 413 778 b 485 728 458 778 485 760 b 413 675 485 694 458 675 z "},"℗":{"ha":829,"x_min":0,"x_max":0,"o":"m 425 843 l 297 843 l 297 469 l 374 469 l 374 611 l 428 611 b 581 726 525 611 581 653 b 425 843 581 799 521 843 z m 64 658 b 414 306 64 464 219 306 b 764 658 608 306 764 464 b 414 1008 764 851 608 1008 b 64 658 219 1008 64 851 z m 147 658 b 414 924 147 804 269 924 b 681 658 560 924 681 804 b 414 390 681 511 560 390 b 147 658 269 390 147 511 z m 374 675 l 374 778 l 432 778 b 504 728 478 778 504 760 b 432 675 504 694 478 675 z "},"™":{"ha":1233,"x_min":0,"x_max":0,"o":"m 119 986 l 119 900 l 269 900 l 269 499 l 363 499 l 363 900 l 511 900 l 511 986 z m 578 499 l 672 499 l 672 819 l 793 499 l 900 499 l 1019 817 l 1019 499 l 1114 499 l 1114 986 l 989 986 l 847 600 l 706 986 l 578 986 z "},"°":{"ha":557,"x_min":0,"x_max":0,"o":"m 278 529 b 496 746 397 529 496 626 b 278 963 496 864 397 963 b 61 746 160 963 61 864 b 278 529 61 626 160 529 z m 178 746 b 278 849 178 801 222 849 b 379 746 335 849 379 801 b 278 643 379 689 335 643 b 178 746 222 643 178 689 z "},"′":{"ha":353,"x_min":0,"x_max":0,"o":"m 290 1026 l 149 1026 l 61 846 l 165 846 z "},"″":{"ha":535,"x_min":0,"x_max":0,"o":"m 290 1026 l 149 1026 l 61 846 l 165 846 z m 243 846 l 347 846 l 472 1026 l 331 1026 z "},"|":{"ha":379,"x_min":0,"x_max":0,"o":"m 119 986 l 119 -208 l 261 -208 l 261 986 z "},"¦":{"ha":379,"x_min":0,"x_max":0,"o":"m 119 986 l 119 493 l 261 493 l 261 986 z m 119 -208 l 261 -208 l 261 285 l 119 285 z "},"†":{"ha":796,"x_min":0,"x_max":0,"o":"m 329 986 l 329 736 l 119 736 l 119 617 l 329 617 l 329 0 l 467 0 l 467 617 l 676 617 l 676 736 l 467 736 l 467 986 z "},"‡":{"ha":797,"x_min":0,"x_max":0,"o":"m 329 986 l 329 736 l 119 736 l 119 617 l 329 617 l 329 143 l 121 143 l 121 22 l 329 22 l 329 -208 l 467 -208 l 467 22 l 678 22 l 678 143 l 467 143 l 467 617 l 676 617 l 676 736 l 467 736 l 467 986 z "},"№":{"ha":1522,"x_min":0,"x_max":0,"o":"m 119 986 l 119 0 l 269 0 l 269 771 l 714 0 l 910 0 l 910 986 l 760 986 l 760 199 l 308 986 z m 990 444 b 1197 204 990 299 1071 204 b 1403 444 1324 204 1403 299 b 1197 683 1403 590 1324 683 b 990 444 1071 683 990 590 z m 1014 0 l 1379 0 l 1379 117 l 1014 117 z m 1106 444 b 1197 576 1106 529 1139 576 b 1290 444 1256 576 1290 529 b 1197 313 1290 360 1256 313 b 1106 444 1139 313 1106 360 z "},"␌":{"ha":833,"x_min":0,"x_max":0,"o":"m 458 557 l 458 99 l 535 99 l 535 286 l 732 286 l 732 358 l 535 358 l 535 485 l 744 485 l 744 557 z m 108 417 l 185 417 l 185 604 l 381 604 l 381 676 l 185 676 l 185 803 l 393 803 l 393 875 l 108 875 z "},"⏎":{"ha":1210,"x_min":0,"x_max":0,"o":"m 472 326 l 1025 326 l 1025 865 l 838 865 l 838 513 l 472 513 l 472 664 l 228 419 l 472 174 z m 64 419 l 589 944 l 589 635 l 715 635 l 715 986 l 1146 986 l 1146 204 l 589 204 l 589 -107 z "},"␋":{"ha":833,"x_min":0,"x_max":0,"o":"m 761 557 l 426 557 l 426 485 l 557 485 l 557 99 l 631 99 l 631 485 l 761 485 z m 71 875 l 211 417 l 289 417 l 429 875 l 351 875 l 250 531 l 149 875 z "},"¢":{"ha":790,"x_min":0,"x_max":0,"o":"m 583 478 l 736 486 b 483 746 719 626 615 721 l 494 874 l 389 874 l 378 751 b 61 368 183 736 61 589 b 313 -4 61 174 157 36 l 301 -126 l 407 -126 l 417 -17 b 742 263 585 -15 719 92 l 588 271 b 428 111 574 174 508 118 l 472 615 b 583 478 528 596 572 547 z m 214 368 b 367 621 214 508 269 599 l 324 131 b 214 368 254 167 214 250 z "},"¤":{"ha":810,"x_min":0,"x_max":0,"o":"m 404 131 b 563 179 463 131 518 149 l 669 74 l 744 147 l 638 254 b 688 413 669 299 688 354 b 638 572 688 472 669 526 l 744 679 l 669 753 l 563 646 b 404 694 517 676 463 694 b 247 646 346 694 292 676 l 139 753 l 64 679 l 171 572 b 122 413 140 526 122 471 b 171 254 122 354 140 300 l 64 147 l 139 74 l 246 179 b 404 131 292 149 346 131 z m 239 413 b 404 578 239 503 314 578 b 569 413 493 578 569 503 b 404 247 569 322 493 247 b 239 413 314 247 239 322 z "},"$":{"ha":914,"x_min":0,"x_max":0,"o":"m 232 328 l 78 318 b 415 -12 93 135 225 10 l 415 -126 l 522 -126 l 522 -15 b 836 267 694 -1 836 96 b 522 553 836 413 704 503 l 522 858 b 664 679 600 831 651 767 l 817 688 b 522 1001 799 849 689 971 l 522 1118 l 415 1118 l 415 1008 b 99 731 228 1000 99 894 b 415 449 99 574 239 492 l 415 128 b 232 328 314 151 251 225 z m 254 729 b 415 872 253 811 319 865 l 415 582 b 254 729 328 610 254 649 z m 522 121 l 522 417 b 681 256 632 376 681 326 b 522 121 682 175 619 129 z "},"€":{"ha":1022,"x_min":0,"x_max":0,"o":"m 965 319 l 811 328 b 600 115 788 203 707 115 b 360 325 479 115 397 201 l 564 325 l 579 431 l 340 431 b 338 492 339 450 338 471 b 339 539 338 507 338 524 l 592 539 l 607 644 l 356 644 b 600 871 390 776 472 871 b 807 678 700 871 779 793 l 958 688 b 601 1008 915 876 782 1008 b 204 644 399 1008 251 857 l 78 644 l 78 539 l 189 539 b 188 492 188 524 188 507 b 190 431 188 471 189 450 l 78 431 l 78 325 l 207 325 b 601 -22 258 121 404 -22 b 965 319 794 -22 928 118 z "},"₴":{"ha":954,"x_min":0,"x_max":0,"o":"m 78 326 l 131 326 b 114 261 121 307 114 283 b 467 -17 114 97 258 -17 b 838 236 651 -17 792 81 l 668 247 b 460 119 633 169 554 119 b 269 261 347 119 269 178 b 293 326 269 283 278 306 l 875 326 l 875 432 l 78 432 z m 78 538 l 875 538 l 875 643 l 810 643 b 833 726 824 668 833 699 b 475 1008 833 899 694 1008 b 136 740 310 1008 181 906 l 296 725 b 490 872 336 819 406 872 b 678 725 600 872 679 811 b 644 643 678 692 668 667 l 78 643 z "},"₽":{"ha":1004,"x_min":0,"x_max":0,"o":"m 578 986 l 210 986 l 210 267 l 61 267 l 61 160 l 210 160 l 210 0 l 360 0 l 360 160 l 508 160 l 508 267 l 360 267 l 360 369 l 578 369 b 936 679 803 369 936 486 b 578 986 936 871 803 986 z m 360 506 l 360 849 l 574 849 b 781 679 710 849 781 792 b 574 506 781 565 710 506 z "},"₹":{"ha":957,"x_min":0,"x_max":0,"o":"m 524 0 l 721 0 l 314 369 l 408 369 b 764 621 610 369 739 463 l 876 621 l 876 729 l 765 729 b 697 881 757 789 733 840 l 876 881 l 876 986 l 119 986 l 119 849 l 404 849 b 607 729 521 849 588 808 l 119 729 l 119 621 l 606 621 b 404 503 586 542 518 503 l 119 503 l 119 369 z "},"₪":{"ha":1119,"x_min":0,"x_max":0,"o":"m 543 986 l 119 986 l 119 0 l 257 0 l 257 871 l 529 871 b 614 785 582 871 614 838 l 614 215 l 750 215 l 750 778 b 543 986 750 906 671 986 z m 369 0 l 792 0 b 1000 208 919 0 1000 81 l 1000 986 l 861 986 l 861 201 b 776 115 861 149 829 115 l 503 115 l 503 771 l 369 771 z "},"£":{"ha":869,"x_min":0,"x_max":0,"o":"m 476 1008 b 172 735 304 1008 172 892 b 204 571 172 689 183 635 l 213 543 l 78 543 l 78 438 l 236 438 b 239 386 238 419 239 401 b 79 133 239 276 185 192 l 79 0 l 793 4 l 793 142 l 221 142 b 385 438 342 196 393 314 l 600 438 l 600 543 l 364 543 b 324 713 342 615 324 665 b 482 871 324 806 399 871 b 639 756 556 871 618 829 l 808 765 b 476 1008 785 894 678 1008 z "},"¥":{"ha":906,"x_min":0,"x_max":0,"o":"m 31 986 l 314 506 l 160 506 l 160 393 l 378 393 l 378 306 l 160 306 l 160 193 l 378 193 l 378 0 l 528 0 l 528 193 l 746 193 l 746 306 l 528 306 l 528 393 l 746 393 l 746 506 l 592 506 l 874 986 l 703 986 l 453 547 l 203 986 z "},"+":{"ha":785,"x_min":0,"x_max":0,"o":"m 61 469 l 61 342 l 328 342 l 328 75 l 457 75 l 457 342 l 722 342 l 722 469 l 457 469 l 457 736 l 328 736 l 328 469 z "},"−":{"ha":785,"x_min":0,"x_max":0,"o":"m 61 469 l 61 340 l 722 340 l 722 469 z "},"×":{"ha":682,"x_min":0,"x_max":0,"o":"m 153 692 l 61 601 l 250 414 l 61 225 l 153 133 l 342 322 l 529 135 l 619 225 l 432 413 l 621 601 l 529 692 l 340 504 z "},"÷":{"ha":785,"x_min":0,"x_max":0,"o":"m 61 519 l 61 390 l 722 390 l 722 519 z m 311 190 b 401 103 311 140 350 103 b 490 190 453 103 490 140 b 401 278 490 242 453 278 b 311 190 350 278 311 242 z m 311 729 b 401 642 311 679 350 642 b 490 729 453 642 490 679 b 401 817 490 781 453 817 b 311 729 350 817 311 781 z "},"=":{"ha":900,"x_min":0,"x_max":0,"o":"m 119 625 l 119 497 l 781 497 l 781 625 z m 119 200 l 781 200 l 781 329 l 119 329 z "},"≠":{"ha":785,"x_min":0,"x_max":0,"o":"m 440 740 l 406 625 l 61 625 l 61 497 l 367 497 l 315 329 l 61 329 l 61 200 l 276 200 l 224 28 l 353 28 l 406 200 l 722 200 l 722 329 l 444 329 l 496 497 l 722 497 l 722 625 l 535 625 l 569 740 z "},">":{"ha":763,"x_min":0,"x_max":0,"o":"m 64 765 l 64 625 l 568 403 l 64 182 l 64 42 l 699 319 l 699 486 z "},"<":{"ha":757,"x_min":0,"x_max":0,"o":"m 696 765 l 61 486 l 61 319 l 696 42 l 696 182 l 192 403 l 696 625 z "},"≥":{"ha":785,"x_min":0,"x_max":0,"o":"m 61 129 l 61 0 l 722 0 l 722 129 z m 61 232 l 722 411 l 722 582 l 61 761 l 61 628 l 574 497 l 61 365 z "},"≤":{"ha":785,"x_min":0,"x_max":0,"o":"m 722 129 l 61 129 l 61 0 l 722 0 z m 61 411 l 722 232 l 722 365 l 210 497 l 722 628 l 722 761 l 61 582 z "},"±":{"ha":796,"x_min":0,"x_max":0,"o":"m 61 168 l 61 43 l 735 43 l 735 168 z m 61 438 l 329 438 l 329 264 l 467 264 l 467 438 l 735 438 l 735 563 l 467 563 l 467 736 l 329 736 l 329 563 l 61 563 z "},"≈":{"ha":738,"x_min":0,"x_max":0,"o":"m 61 432 l 185 432 b 253 565 185 513 204 565 b 344 500 294 565 317 535 b 490 421 378 460 417 421 b 676 665 606 421 676 521 l 554 665 b 485 533 554 586 533 533 b 388 606 440 533 418 568 b 246 678 356 643 317 678 b 61 432 133 678 61 578 z m 61 129 l 185 129 b 253 261 185 210 204 261 b 340 201 290 261 314 235 b 490 117 375 160 411 117 b 676 363 606 117 676 218 l 554 363 b 485 229 554 283 533 229 b 375 319 433 229 413 276 b 246 374 343 350 307 374 b 61 129 133 374 61 274 z "},"~":{"ha":738,"x_min":0,"x_max":0,"o":"m 61 342 l 185 342 b 253 478 185 425 204 478 b 356 397 300 478 321 438 b 490 329 386 360 426 329 b 676 583 606 329 676 433 l 554 583 b 485 447 554 500 533 447 b 394 514 443 447 421 478 b 246 596 360 557 322 596 b 61 342 133 596 61 492 z "},"¬":{"ha":667,"x_min":0,"x_max":0,"o":"m 61 442 l 61 325 l 488 325 l 488 92 l 604 92 l 604 442 z "},"^":{"ha":564,"x_min":0,"x_max":0,"o":"m 376 532 l 503 532 l 364 935 l 200 935 l 61 532 l 188 532 l 282 813 z "},"∞":{"ha":1179,"x_min":0,"x_max":0,"o":"m 524 376 b 338 249 478 294 408 249 b 214 376 268 249 214 306 b 338 504 214 447 268 504 b 524 376 410 503 478 458 z m 61 376 b 310 128 61 238 172 128 b 590 289 422 128 531 183 b 874 128 650 182 760 128 b 1117 376 1010 128 1117 238 b 874 625 1117 515 1010 625 b 590 463 757 625 651 568 b 310 625 529 565 424 625 b 61 376 172 625 61 515 z m 656 376 b 844 503 704 458 772 504 b 964 376 913 501 964 446 b 844 249 964 307 913 250 b 656 376 771 247 703 294 z "},"∫":{"ha":560,"x_min":0,"x_max":0,"o":"m 6 -207 l 89 -208 b 304 -18 215 -211 290 -142 l 394 783 b 481 861 400 833 429 864 l 540 858 l 553 985 l 469 986 b 253 796 343 989 267 919 l 165 -6 b 83 -83 160 -56 131 -85 l 18 -81 z "},"∆":{"ha":910,"x_min":0,"x_max":0,"o":"m 31 121 l 31 0 l 879 0 l 879 121 l 540 986 l 372 986 z m 160 121 l 456 869 l 751 121 z "},"∏":{"ha":901,"x_min":0,"x_max":0,"o":"m 865 986 l 36 986 l 36 856 l 190 856 l 190 -208 l 332 -208 l 332 856 l 575 856 l 575 -208 l 715 -208 l 715 856 l 865 856 z "},"∑":{"ha":749,"x_min":0,"x_max":0,"o":"m 38 986 l 38 849 l 278 493 l 38 138 l 38 0 l 710 0 l 710 138 l 199 138 l 438 493 l 199 849 l 710 849 l 710 986 z "},"√":{"ha":886,"x_min":0,"x_max":0,"o":"m 856 986 l 450 986 l 263 11 l 169 467 l 31 467 l 171 -208 l 358 -208 l 565 861 l 856 861 z "},"∂":{"ha":839,"x_min":0,"x_max":0,"o":"m 432 658 b 63 346 225 676 81 556 b 385 -17 44 147 179 -3 b 625 65 475 -24 550 3 b 292 1049 838 257 901 988 l 254 926 b 646 510 493 904 643 743 b 432 658 607 596 529 649 z m 215 336 b 425 532 225 461 311 542 b 614 365 521 524 599 464 b 386 107 603 204 508 97 b 215 336 274 119 203 204 z "},"µ":{"ha":839,"x_min":0,"x_max":0,"o":"m 729 0 l 729 736 l 582 736 l 582 308 b 408 107 582 183 517 107 b 268 308 314 107 268 174 l 268 736 l 121 736 l 121 -208 l 268 -208 l 268 75 b 408 -7 290 25 344 -7 b 589 119 488 -7 557 42 l 589 0 z "},"%":{"ha":1100,"x_min":0,"x_max":0,"o":"m 833 1008 l 114 -17 l 272 -17 l 992 1008 z m 61 747 b 269 508 61 613 154 508 b 478 747 385 508 478 613 b 269 988 478 883 385 988 b 61 747 154 988 61 883 z m 179 747 b 269 879 179 828 214 879 b 361 747 325 879 361 828 b 269 617 361 667 325 617 b 179 747 214 617 179 667 z m 622 240 b 831 0 622 104 715 0 b 1039 240 946 0 1039 104 b 831 479 1039 375 946 479 b 622 240 715 479 622 375 z m 740 240 b 831 371 740 321 775 371 b 921 240 886 371 921 321 b 831 108 921 160 886 108 b 740 240 775 108 740 160 z "},"‰":{"ha":1556,"x_min":0,"x_max":0,"o":"m 1288 0 b 1494 240 1403 0 1494 104 b 1288 479 1494 375 1403 479 b 1082 240 1171 479 1082 375 b 1288 0 1082 104 1171 0 z m 61 747 b 269 508 61 613 154 508 b 478 747 385 508 478 613 b 269 988 478 883 385 988 b 61 747 154 988 61 883 z m 114 -17 l 272 -17 l 992 1008 l 833 1008 z m 179 747 b 269 879 179 828 214 879 b 361 747 325 879 361 828 b 269 617 361 667 325 617 b 179 747 214 617 179 667 z m 622 240 b 831 0 622 104 715 0 b 1039 240 946 0 1039 104 b 831 479 1039 375 946 479 b 622 240 715 479 622 375 z m 740 240 b 831 371 740 321 775 371 b 921 240 886 371 921 321 b 831 108 921 160 886 108 b 740 240 775 108 740 160 z m 1196 240 b 1288 372 1196 321 1232 372 b 1379 240 1343 372 1379 321 b 1288 108 1379 160 1343 108 b 1196 240 1232 108 1196 160 z "},"↑":{"ha":993,"x_min":0,"x_max":0,"o":"m 496 986 l 64 556 l 64 382 l 425 743 l 425 0 l 568 0 l 568 739 l 928 381 l 928 554 z "},"↗":{"ha":876,"x_min":0,"x_max":0,"o":"m 811 988 l 201 989 l 79 867 l 590 867 l 64 340 l 165 240 l 688 763 l 689 254 l 811 378 z "},"→":{"ha":1114,"x_min":0,"x_max":0,"o":"m 1050 492 l 619 924 l 446 924 l 807 563 l 64 563 l 64 419 l 803 419 l 444 60 l 618 60 z "},"↘":{"ha":878,"x_min":0,"x_max":0,"o":"m 813 3 l 814 613 l 692 736 l 692 225 l 165 750 l 65 650 l 589 126 l 79 126 l 203 3 z "},"↓":{"ha":993,"x_min":0,"x_max":0,"o":"m 496 0 l 928 432 l 928 606 l 568 247 l 568 986 l 425 986 l 425 243 l 64 604 l 64 431 z "},"↙":{"ha":878,"x_min":0,"x_max":0,"o":"m 65 3 l 675 3 l 799 126 l 289 126 l 813 650 l 713 750 l 186 225 l 186 736 l 64 613 z "},"←":{"ha":1114,"x_min":0,"x_max":0,"o":"m 64 492 l 496 60 l 669 60 l 311 419 l 1050 419 l 1050 563 l 307 563 l 668 924 l 494 924 z "},"↖":{"ha":876,"x_min":0,"x_max":0,"o":"m 65 988 l 65 378 l 188 254 l 189 763 l 711 240 l 813 340 l 286 867 l 797 867 l 675 989 z "},"↔":{"ha":1467,"x_min":0,"x_max":0,"o":"m 1403 492 l 972 924 l 799 924 l 1160 563 l 307 563 l 668 924 l 494 924 l 64 492 l 496 60 l 669 60 l 311 419 l 1156 419 l 797 60 l 971 60 z "},"↕":{"ha":993,"x_min":0,"x_max":0,"o":"m 496 -239 l 928 192 l 928 365 l 567 4 l 567 856 l 928 494 l 928 668 l 496 1099 l 64 667 l 64 493 l 424 851 l 424 8 l 64 367 l 64 193 z "},"↝":{"ha":908,"x_min":0,"x_max":0,"o":"m 64 422 l 189 422 b 308 506 214 496 267 529 b 357 386 350 482 347 436 b 442 258 367 336 385 292 b 726 385 538 203 651 260 l 844 315 l 814 653 l 510 511 l 621 446 b 493 365 578 374 533 342 b 446 469 456 386 451 426 b 360 613 438 519 428 572 b 64 422 251 675 90 576 z "},"⇤":{"ha":936,"x_min":0,"x_max":0,"o":"m 225 490 l 504 258 l 504 429 l 872 429 l 872 551 l 503 551 l 503 722 z m 64 219 l 176 219 l 176 761 l 64 761 z "},"⇥":{"ha":936,"x_min":0,"x_max":0,"o":"m 711 490 l 433 722 l 433 551 l 64 551 l 64 429 l 432 429 l 432 258 z m 760 219 l 872 219 l 872 761 l 760 761 z "},"↩":{"ha":918,"x_min":0,"x_max":0,"o":"m 542 335 b 854 632 717 335 854 464 b 542 931 854 800 717 931 l 132 931 l 132 808 l 542 808 b 731 632 647 808 731 731 b 542 457 731 535 647 457 l 285 457 l 457 628 l 294 628 l 64 396 l 297 163 l 458 163 l 288 335 z "},"↪":{"ha":918,"x_min":0,"x_max":0,"o":"m 376 335 l 631 335 l 460 163 l 621 163 l 854 396 l 624 628 l 461 628 l 633 457 l 376 457 b 188 632 271 457 188 535 b 376 808 188 731 271 808 l 786 808 l 786 931 l 376 931 b 64 632 201 931 64 800 b 376 335 64 464 201 335 z "},"↰":{"ha":925,"x_min":0,"x_max":0,"o":"m 64 618 l 350 381 l 350 554 l 733 554 l 733 0 l 861 0 l 861 682 l 349 682 l 349 856 z "},"↱":{"ha":925,"x_min":0,"x_max":0,"o":"m 861 618 l 576 856 l 576 682 l 64 682 l 64 0 l 192 0 l 192 554 l 575 554 l 575 381 z "},"↳":{"ha":925,"x_min":0,"x_max":0,"o":"m 861 368 l 575 606 l 575 432 l 192 432 l 192 986 l 64 986 l 64 304 l 576 304 l 576 131 z "},"↴":{"ha":929,"x_min":0,"x_max":0,"o":"m 633 0 l 865 278 l 694 278 l 694 985 l 64 985 l 64 863 l 572 863 l 572 279 l 401 279 z "},"↵":{"ha":925,"x_min":0,"x_max":0,"o":"m 64 368 l 349 131 l 349 304 l 861 304 l 861 986 l 733 986 l 733 432 l 350 432 l 350 606 z "},"⇧":{"ha":1153,"x_min":0,"x_max":0,"o":"m 451 578 l 451 122 l 704 122 l 704 578 l 843 578 l 578 844 l 311 578 z m 31 464 l 578 1007 l 1122 464 l 826 464 l 826 0 l 329 0 l 329 464 z "},"●":{"ha":1175,"x_min":0,"x_max":0,"o":"m 588 -17 b 1111 494 883 -17 1111 199 b 588 1008 1111 793 883 1008 b 64 494 292 1008 64 793 b 588 -17 64 199 292 -17 z "},"○":{"ha":1175,"x_min":0,"x_max":0,"o":"m 588 -17 b 1111 494 883 -17 1111 199 b 588 1008 1111 793 883 1008 b 64 494 292 1008 64 793 b 588 -17 64 199 292 -17 z m 189 494 b 588 888 189 724 361 888 b 988 494 814 888 988 724 b 588 104 988 268 814 104 b 189 494 361 104 189 268 z "},"◌":{"ha":1175,"x_min":0,"x_max":0,"o":"m 883 233 l 958 158 b 1024 238 982 182 1004 208 l 933 297 b 883 233 918 274 903 254 z m 64 508 b 75 407 64 474 68 439 l 181 429 b 171 510 174 456 171 481 z m 74 610 l 179 590 b 203 668 183 617 192 643 l 103 708 b 74 610 89 678 79 644 z m 107 308 b 158 219 121 278 139 247 l 246 283 b 207 351 231 304 218 326 z m 151 799 l 242 739 b 293 803 257 763 274 782 l 217 878 b 151 799 193 854 171 828 z m 226 143 b 307 81 251 119 278 99 l 364 171 b 300 221 340 186 319 203 z m 297 942 l 357 853 b 428 892 378 868 403 881 l 388 990 b 297 942 356 976 325 961 z m 399 35 b 499 7 431 22 464 14 l 517 113 b 438 135 489 118 464 125 z m 486 1019 l 507 915 b 588 922 535 919 561 922 l 588 1029 b 486 1019 553 1029 519 1025 z m 588 7 b 689 17 622 7 656 11 l 668 121 b 588 114 642 117 615 114 z m 658 924 b 738 901 686 918 714 911 l 776 1001 b 676 1029 744 1014 711 1022 z m 747 144 l 788 46 b 878 94 819 60 850 75 l 819 183 b 747 144 799 168 774 156 z m 813 865 b 876 815 835 850 856 833 l 949 893 b 868 956 924 917 897 938 z m 929 753 b 971 685 944 732 960 710 l 1068 728 b 1017 817 1054 758 1036 789 z m 975 368 l 1072 328 b 1101 426 1086 358 1096 392 l 996 446 b 975 368 992 419 985 393 z m 994 607 b 1004 526 1001 581 1004 556 l 1111 528 b 1100 629 1111 563 1107 597 z "},"◊":{"ha":774,"x_min":0,"x_max":0,"o":"m 299 894 l 64 447 l 299 0 l 475 0 l 710 447 l 475 894 z m 210 447 l 388 783 l 564 447 l 388 113 z "},"▲":{"ha":1200,"x_min":0,"x_max":0,"o":"m 599 986 l 1168 0 l 31 0 z "},"▶":{"ha":1138,"x_min":0,"x_max":0,"o":"m 1106 494 l 119 989 l 119 -1 z "},"▼":{"ha":1200,"x_min":0,"x_max":0,"o":"m 599 0 l 31 986 l 1168 986 z "},"◀":{"ha":1136,"x_min":0,"x_max":0,"o":"m 31 494 l 1017 -1 l 1017 989 z "},"△":{"ha":1200,"x_min":0,"x_max":0,"o":"m 249 129 l 953 129 l 599 747 z m 31 0 l 599 986 l 1168 0 z "},"▷":{"ha":1138,"x_min":0,"x_max":0,"o":"m 1106 494 l 119 989 l 119 -1 z m 240 194 l 240 793 l 835 494 z "},"▽":{"ha":1200,"x_min":0,"x_max":0,"o":"m 249 857 l 599 239 l 953 857 z m 31 986 l 1168 986 l 599 0 z "},"◁":{"ha":1136,"x_min":0,"x_max":0,"o":"m 31 494 l 1017 -1 l 1017 989 z m 301 494 l 896 793 l 896 194 z "},"̈":{"ha":0,"x_min":0,"x_max":0,"o":"m 61 985 l 61 844 l 215 844 l 215 985 z m 300 844 l 454 844 l 454 985 l 300 985 z "},"̇":{"ha":0,"x_min":0,"x_max":0,"o":"m 61 985 l 61 844 l 215 844 l 215 985 z "},"̀":{"ha":0,"x_min":0,"x_max":0,"o":"m 61 1026 l 188 846 l 292 846 l 204 1026 z "},"́":{"ha":0,"x_min":0,"x_max":0,"o":"m 290 1026 l 149 1026 l 61 846 l 165 846 z "},"̋":{"ha":0,"x_min":0,"x_max":0,"o":"m 290 1026 l 149 1026 l 61 846 l 165 846 z m 242 846 l 346 846 l 471 1026 l 329 1026 z "},"̂":{"ha":0,"x_min":0,"x_max":0,"o":"m 351 846 l 472 846 l 351 1013 l 181 1013 l 61 846 l 182 846 l 267 964 z "},"̌":{"ha":0,"x_min":0,"x_max":0,"o":"m 351 1013 l 267 894 l 182 1013 l 61 1013 l 181 846 l 351 846 l 472 1013 z "},"̆":{"ha":0,"x_min":0,"x_max":0,"o":"m 164 1028 l 61 1028 b 265 844 61 925 151 844 b 469 1028 379 844 469 925 l 367 1028 b 265 938 367 976 322 938 b 164 1028 208 938 164 976 z "},"̊":{"ha":0,"x_min":0,"x_max":0,"o":"m 194 813 b 328 944 268 813 328 868 b 194 1078 328 1017 268 1078 b 61 944 122 1078 61 1017 b 194 813 61 868 122 813 z m 143 946 b 194 996 143 971 167 996 b 246 946 222 996 246 971 b 194 894 246 918 222 894 b 143 946 167 894 143 918 z "},"̃":{"ha":0,"x_min":0,"x_max":0,"o":"m 213 935 b 282 890 243 935 258 913 b 392 843 306 865 336 843 b 533 1032 478 843 533 917 l 436 1032 b 385 942 436 971 419 942 b 306 993 350 942 333 968 b 204 1032 281 1018 251 1032 b 61 844 117 1032 61 961 l 160 844 b 213 935 160 906 176 935 z "},"̄":{"ha":0,"x_min":0,"x_max":0,"o":"m 61 967 l 61 864 l 432 864 l 432 967 z "},"̒":{"ha":0,"x_min":0,"x_max":0,"o":"m 61 1019 l 63 1019 l 63 850 l 236 850 l 236 1019 l 172 1019 l 229 1235 l 146 1235 z "},"̦":{"ha":0,"x_min":0,"x_max":0,"o":"m 290 -83 l 149 -83 l 61 -264 l 165 -264 z "},"̧":{"ha":0,"x_min":0,"x_max":0,"o":"m 144 -65 l 186 -119 b 288 -168 242 -106 288 -125 b 226 -225 288 -203 264 -225 b 126 -156 179 -225 147 -181 l 61 -215 b 233 -312 117 -281 165 -312 b 375 -178 310 -312 375 -254 b 240 -49 375 -103 317 -49 l 297 14 l 217 14 z "},"̨":{"ha":0,"x_min":0,"x_max":0,"o":"m 214 -57 l 254 0 l 165 0 l 115 -54 b 61 -181 78 -93 61 -136 b 186 -300 61 -249 118 -299 b 303 -261 225 -300 265 -289 l 303 -165 b 217 -194 272 -179 240 -194 b 171 -147 189 -194 171 -174 b 214 -57 171 -119 193 -85 z "},"̵":{"ha":0,"x_min":0,"x_max":0,"o":"m 276 450 l 276 342 l 854 342 l 854 450 z "},"¨":{"ha":515,"x_min":0,"x_max":0,"o":"m 61 985 l 61 844 l 215 844 l 215 985 z m 300 844 l 454 844 l 454 985 l 300 985 z "},"˙":{"ha":276,"x_min":0,"x_max":0,"o":"m 61 985 l 61 844 l 215 844 l 215 985 z "},"`":{"ha":354,"x_min":0,"x_max":0,"o":"m 61 1026 l 188 846 l 292 846 l 204 1026 z "},"´":{"ha":353,"x_min":0,"x_max":0,"o":"m 290 1026 l 149 1026 l 61 846 l 165 846 z "},"˝":{"ha":533,"x_min":0,"x_max":0,"o":"m 290 1026 l 149 1026 l 61 846 l 165 846 z m 242 846 l 346 846 l 471 1026 l 329 1026 z "},"ˆ":{"ha":533,"x_min":0,"x_max":0,"o":"m 351 846 l 472 846 l 351 1013 l 181 1013 l 61 846 l 182 846 l 267 964 z "},"ˇ":{"ha":533,"x_min":0,"x_max":0,"o":"m 351 1013 l 267 894 l 182 1013 l 61 1013 l 181 846 l 351 846 l 472 1013 z "},"˘":{"ha":531,"x_min":0,"x_max":0,"o":"m 164 1028 l 61 1028 b 265 844 61 925 151 844 b 469 1028 379 844 469 925 l 367 1028 b 265 938 367 976 322 938 b 164 1028 208 938 164 976 z "},"˚":{"ha":389,"x_min":0,"x_max":0,"o":"m 194 813 b 328 944 268 813 328 868 b 194 1078 328 1017 268 1078 b 61 944 122 1078 61 1017 b 194 813 61 868 122 813 z m 143 946 b 194 996 143 971 167 996 b 246 946 222 996 246 971 b 194 894 246 918 222 894 b 143 946 167 894 143 918 z "},"˜":{"ha":596,"x_min":0,"x_max":0,"o":"m 213 935 b 282 890 243 935 258 913 b 392 843 306 865 336 843 b 533 1032 478 843 533 917 l 436 1032 b 385 942 436 971 419 942 b 306 993 350 942 333 968 b 204 1032 281 1018 251 1032 b 61 844 117 1032 61 961 l 160 844 b 213 935 160 906 176 935 z "},"¯":{"ha":493,"x_min":0,"x_max":0,"o":"m 61 967 l 61 864 l 432 864 l 432 967 z "},"¸":{"ha":436,"x_min":0,"x_max":0,"o":"m 144 -65 l 186 -119 b 288 -168 242 -106 288 -125 b 226 -225 288 -203 264 -225 b 126 -156 179 -225 147 -181 l 61 -215 b 233 -312 117 -281 165 -312 b 375 -178 310 -312 375 -254 b 240 -49 375 -103 317 -49 l 297 14 l 217 14 z "},"˛":{"ha":364,"x_min":0,"x_max":0,"o":"m 214 -57 l 254 0 l 165 0 l 115 -54 b 61 -181 78 -93 61 -136 b 186 -300 61 -249 118 -299 b 303 -261 225 -300 265 -289 l 303 -165 b 217 -194 272 -179 240 -194 b 171 -147 189 -194 171 -174 b 214 -57 171 -119 193 -85 z "},"ʼ":{"ha":303,"x_min":0,"x_max":0,"o":"m 239 818 l 238 818 l 238 988 l 64 988 l 64 818 l 128 818 l 71 603 l 154 603 z "},"ʹ":{"ha":353,"x_min":0,"x_max":0,"o":"m 290 1026 l 149 1026 l 61 846 l 165 846 z "},"ˈ":{"ha":258,"x_min":0,"x_max":0,"o":"m 61 986 l 61 876 l 81 672 l 179 672 l 197 876 l 197 986 z "}}}
